<svg id="172daa57-f16b-4850-b70b-c3d46a6be8b3" data-name="Layer 1" xmlns="http://www.w3.org/2000/svg" viewBox="0 0 328.07 284"><title>certification</title><circle cx="164.04" cy="142" r="142" fill="#f8f8fa"/><path d="M117.4,220.26,1.12,153.12c-.92-.53-.81-1.47.26-2.08L152.32,63.89a4,4,0,0,1,3.61-.15l116.28,67.13c.92.53.81,1.47-.26,2.08L121,220.11A4,4,0,0,1,117.4,220.26Z" fill="#fff" stroke="#161746" stroke-miterlimit="10"/><line x1="162.91" y1="83.98" x2="36.55" y2="156.93" fill="none" stroke="#00a3e0" stroke-miterlimit="10" stroke-width="2"/><line x1="182.14" y1="94.36" x2="55.78" y2="167.31" fill="none" stroke="#00a3e0" stroke-miterlimit="10" stroke-width="2"/><line x1="200.75" y1="105.1" x2="74.39" y2="178.05" fill="none" stroke="#00a3e0" stroke-miterlimit="10" stroke-width="2"/><line x1="219.36" y1="115.84" x2="93" y2="188.79" fill="none" stroke="#00a3e0" stroke-miterlimit="10" stroke-width="2"/><line x1="190.42" y1="154.03" x2="111.6" y2="199.54" fill="none" stroke="#00a3e0" stroke-miterlimit="10" stroke-width="2"/><path d="M243.46,167.49l17.27,22.56a.66.66,0,0,0,.86,0l8.68-10a.63.63,0,0,1,.53-.14L289,182.4c.39.05.71-.18.54-.38l-18.18-22Z" fill="#fff" stroke="#161746" stroke-miterlimit="10"/><path d="M275.53,156.81l37.74,11.57c.35.11.77-.07.69-.3l-3.91-11c0-.12.07-.25.27-.3l17-4.53c.36-.1.37-.39,0-.49l-37.89-10.84Z" fill="#fff" stroke="#161746" stroke-miterlimit="10"/><path d="M220.47,127.07l.32-.41a6.79,6.79,0,0,1,4.75-2.05l.77-.06a8.11,8.11,0,0,0,3.81-1.2l.51-.34a9,9,0,0,1,5.56-1.2l.77.07a9.94,9.94,0,0,0,4.24-.53l.65-.24a10.14,10.14,0,0,1,5.92-.24l.7.19a10.35,10.35,0,0,0,4.33.18l.74-.13a9.74,9.74,0,0,1,5.8.73l.58.3A9.16,9.16,0,0,0,264,123h.78a8,8,0,0,1,5.21,1.64l.42.38a6.92,6.92,0,0,0,3.48,1.5l.75.12c2,.34,3.61,1.25,4.2,2.42l.22.43a4.57,4.57,0,0,0,2.6,2l.65.24c1.78.65,2.85,1.79,2.84,3v.45a2.9,2.9,0,0,0,1.52,2.35l.51.34c1.39.92,1.86,2.18,1.26,3.35l-.22.43a2.21,2.21,0,0,0,.31,2.5l.33.41a2.33,2.33,0,0,1-.42,3.42l-.42.38a2.44,2.44,0,0,0-.92,2.45l.11.44c.31,1.2-.47,2.42-2.07,3.21l-.59.29a3.62,3.62,0,0,0-2.08,2.2l-.11.44c-.29,1.21-1.63,2.24-3.56,2.74l-.71.18a5.7,5.7,0,0,0-3.07,1.77l-.32.41a6.79,6.79,0,0,1-4.75,2.05l-.77.06a8.11,8.11,0,0,0-3.81,1.2l-.51.34a9,9,0,0,1-5.56,1.2l-.77-.07a9.94,9.94,0,0,0-4.24.53l-.65.24a10.14,10.14,0,0,1-5.92.24l-.7-.19a10.35,10.35,0,0,0-4.33-.18l-.74.13a9.74,9.74,0,0,1-5.8-.73l-.58-.3a9.16,9.16,0,0,0-4.07-.88h-.78a8,8,0,0,1-5.21-1.64l-.42-.38a6.92,6.92,0,0,0-3.48-1.5l-.75-.12c-2-.34-3.61-1.25-4.2-2.42l-.22-.43a4.57,4.57,0,0,0-2.6-2l-.65-.24c-1.78-.65-2.85-1.79-2.84-3V154a2.9,2.9,0,0,0-1.52-2.35l-.51-.34c-1.39-.92-1.86-2.18-1.26-3.35l.22-.43A2.21,2.21,0,0,0,207,145l-.33-.41a2.33,2.33,0,0,1,.42-3.42l.42-.38a2.44,2.44,0,0,0,.92-2.45l-.11-.44c-.31-1.2.47-2.42,2.07-3.21l.59-.29a3.62,3.62,0,0,0,2.08-2.2l.11-.44c.29-1.21,1.63-2.24,3.56-2.74l.71-.18A5.7,5.7,0,0,0,220.47,127.07Z" fill="#fff" stroke="#161746" stroke-miterlimit="10"/><path d="M269.59,132c12.07,7,12.07,18.27,0,25.24s-31.65,7-43.72,0-12.07-18.27,0-25.24S257.52,125,269.59,132Z" fill="#161746"/></svg>