<?xml version="1.0" encoding="UTF-8"?>
<svg width="302px" height="326px" viewBox="0 0 302 326" version="1.1" xmlns="http://www.w3.org/2000/svg" xmlns:xlink="http://www.w3.org/1999/xlink">
    <!-- Generator: Sketch 48.2 (47327) - http://www.bohemiancoding.com/sketch -->
    <title>illustration_courses</title>
    <desc>Created with Sketch.</desc>
    <defs>
        <path d="M289.4154,209.0257 L289.4154,216.9717 C289.4154,218.1017 288.8554,219.2327 287.7364,219.8787 L124.6834,314.1307 C123.6444,314.7307 122.3654,314.7307 121.3264,314.1307 L4.9864,246.9647 C3.9484,246.3657 3.3084,245.2577 3.3084,244.0587 L3.3084,238.0507 L121.3264,306.1857 C122.3654,306.7857 123.6444,306.7857 124.6834,306.1857 L287.7364,212.0477 C288.8554,211.4017 289.4154,210.2717 289.4154,209.1417" id="path-1"></path>
        <filter x="-4.9%" y="-9.5%" width="109.8%" height="126.5%" filterUnits="objectBoundingBox" id="filter-2">
            <feOffset dx="0" dy="4" in="SourceAlpha" result="shadowOffsetOuter1"></feOffset>
            <feGaussianBlur stdDeviation="4" in="shadowOffsetOuter1" result="shadowBlurOuter1"></feGaussianBlur>
            <feColorMatrix values="0 0 0 0 0.0823529412   0 0 0 0 0.0901960784   0 0 0 0 0.274509804  0 0 0 0.2 0" type="matrix" in="shadowBlurOuter1"></feColorMatrix>
        </filter>
    </defs>
    <g id="Home" stroke="none" stroke-width="1" fill="none" fill-rule="evenodd" transform="translate(-247.000000, -1190.000000)">
        <g id="library" transform="translate(208.000000, 1190.000000)">
            <g id="illustration">
                <g id="illustration_courses" transform="translate(44.000000, 0.000000)">
                    <polygon id="Fill-1" fill="#F4F4F7" points="173.0287 140.1009 3.3077 238.1139 3.3137 99.9069 173.1147 1.8939"></polygon>
                    <g id="Group-108">
                        <path d="M9.6244,104.552 L9.6244,223.531 C9.6244,224.819 11.0174,225.627 12.1364,224.987 L165.9534,137.412 C166.4774,137.113 166.7994,136.557 166.7994,135.955 L166.7994,16.478 C166.7994,15.187 165.4024,14.38 164.2844,15.023 L10.4664,103.097 C9.9454,103.396 9.6244,103.951 9.6244,104.552" id="Fill-2" fill="#FFFFFF"></path>
                        <path d="M92.5746,117.8914 L86.4666,125.4644 C86.1936,125.8024 85.8536,125.7734 85.8536,125.4124 L85.8536,117.3194 C85.8536,116.9584 86.1936,116.5364 86.4666,116.5584 L92.5746,117.0794 C92.8466,117.1024 92.8466,117.5534 92.5746,117.8914 M88.2116,104.9944 C80.9876,109.1644 75.1316,119.2664 75.1316,127.5564 C75.1316,135.8464 80.9876,139.1844 88.2116,135.0144 C95.4356,130.8434 101.2926,120.7414 101.2926,112.4524 C101.2926,104.1624 95.4356,100.8234 88.2116,104.9944" id="Fill-4" fill="#00A3E0"></path>
                        <path d="M156.013,132.7351 L22.576,209.7751 C21.568,210.3571 20.265,209.9891 19.666,208.9531 C19.069,207.9171 19.401,206.6051 20.409,206.0221 L153.847,128.9831 C154.856,128.4001 156.159,128.7681 156.757,129.8041 C157.355,130.8401 157.022,132.1521 156.013,132.7351" id="Fill-6" fill="#C9F0FF"></path>
                        <path d="M59.5042,188.4544 L22.5762,209.7744 C21.5672,210.3574 20.2652,209.9894 19.6662,208.9534 C19.0682,207.9174 19.4002,206.6044 20.4092,206.0224 L57.3382,184.7024 C58.3472,184.1194 59.6502,184.4874 60.2482,185.5234 C60.8462,186.5594 60.5132,187.8714 59.5042,188.4544" id="Fill-8" fill="#00A3E0"></path>
                        <path d="M173.0716,1.8313 L171.0156,0.6443 C170.4966,0.3443 169.8566,0.3443 169.3376,0.6443 L2.0966,97.2043 C1.0586,97.8033 0.4186,98.9113 0.4186,100.1103 L0.4186,235.2983 C0.4186,235.8743 0.7136,236.4093 1.1996,236.7173 L3.3076,238.0513 L3.3136,99.8443 L173.0716,1.8313 Z" id="Fill-10" fill="#F4F4F7"></path>
                        <g id="Fill-12">
                            <use fill="black" fill-opacity="1" filter="url(#filter-2)" xlink:href="#path-1"></use>
                            <use fill="#F4F4F7" fill-rule="evenodd" xlink:href="#path-1"></use>
                        </g>
                        <path d="M124.683,306.1858 L287.737,212.0478 C289.974,210.7558 289.974,207.5268 287.737,206.2348 L173.086,140.0388 L3.308,238.0508 L121.327,306.1858 C122.366,306.7858 123.645,306.7858 124.683,306.1858" id="Fill-14" fill="#FFFFFF"></path>
                        <path d="M288.9955,216.971 C288.9955,218.033 288.4465,218.985 287.5265,219.514 L124.4735,313.767 C123.5695,314.29 122.4455,314.294 121.5355,313.767 L5.1965,246.602 C4.2905,246.079 3.7285,245.104 3.7285,244.058 L3.7285,238.778 L121.1165,306.55 C121.6995,306.886 122.3515,307.054 123.0045,307.054 C123.6585,307.054 124.3105,306.886 124.8925,306.55 L287.9465,212.411 C288.3695,212.167 288.7055,211.836 288.9955,211.472 L288.9955,216.971 Z M0.8395,235.299 L0.8395,100.111 C0.8395,99.065 1.4015,98.09 2.3085,97.567 L169.5475,1.008 C169.9335,0.782 170.4195,0.782 170.8065,1.008 L172.2315,1.832 L3.1035,99.48 C2.9745,99.555 2.8935,99.694 2.8935,99.844 L2.8895,237.289 L1.4245,236.364 C1.0575,236.131 0.8395,235.733 0.8395,235.299 Z M172.6515,139.795 L23.7495,225.765 L3.7285,237.323 L3.7335,100.086 L172.6515,2.558 L172.6515,139.795 Z M288.9955,209.142 C288.9955,210.202 288.4465,211.155 287.5265,211.684 L124.4735,305.822 C123.5695,306.345 122.4455,306.348 121.5355,305.822 L4.1485,238.051 L13.0995,232.882 L173.0865,140.523 L287.5265,206.598 C288.4465,207.129 288.9955,208.08 288.9955,209.142 Z M289.8195,209.025 C289.7795,207.709 289.0935,206.534 287.9465,205.87 L173.4905,139.786 L173.4905,1.832 C173.4905,1.683 173.4105,1.544 173.2805,1.469 L171.2255,0.28 C170.5805,-0.093 169.7735,-0.093 169.1285,0.28 L1.8885,96.839 C0.7235,97.513 0.0005,98.765 0.0005,100.111 L0.0005,235.299 C0.0005,236.023 0.3635,236.685 0.9745,237.072 L2.8895,238.281 L2.8895,244.058 C2.8895,245.404 3.6115,246.656 4.7775,247.33 L121.1165,314.495 C121.6995,314.831 122.3515,315 123.0045,315 C123.6585,315 124.3105,314.831 124.8925,314.495 L287.9465,220.242 C289.1285,219.56 289.8345,218.338 289.8345,216.971 L289.8345,209.025 L289.8195,209.025 Z" id="Fill-16" fill="#464465"></path>
                        <g id="keys" transform="translate(24.000000, 152.000000)" fill="#D0D0DD" opacity="0.537477355">
                            <path d="M8.3949,80.5418 L1.7749,84.3628 C0.6559,85.0088 0.6559,86.6238 1.7749,87.2698 L8.3949,91.0928 C8.9149,91.3918 9.5539,91.3928 10.0739,91.0928 L16.6939,87.2708 C17.8129,86.6258 17.8129,85.0108 16.6939,84.3648 L10.0739,80.5418 C9.5539,80.2428 8.9149,80.2428 8.3949,80.5418" id="Fill-18"></path>
                            <path d="M20.6283,73.5423 L14.0083,77.3633 C12.8893,78.0093 12.8893,79.6243 14.0073,80.2703 L20.6283,84.0923 C21.1483,84.3923 21.7873,84.3923 22.3063,84.0933 L28.9273,80.2713 C30.0453,79.6263 30.0463,78.0113 28.9273,77.3653 L22.3063,73.5423 C21.7873,73.2433 21.1483,73.2433 20.6283,73.5423" id="Fill-20"></path>
                            <path d="M32.9662,66.3987 L26.3462,70.2197 C25.2272,70.8657 25.2272,72.4807 26.3462,73.1267 L32.9662,76.9487 C33.4862,77.2487 34.1252,77.2487 34.6442,76.9497 L41.2652,73.1277 C42.3842,72.4817 42.3842,70.8677 41.2652,70.2217 L34.6442,66.3987 C34.1252,66.0997 33.4862,66.0987 32.9662,66.3987" id="Fill-22"></path>
                            <path d="M45.2259,59.3074 L38.6049,63.1284 C37.4859,63.7744 37.4859,65.3894 38.6049,66.0354 L45.2259,69.8574 C45.7449,70.1574 46.3839,70.1574 46.9039,69.8574 L53.5239,66.0364 C54.6429,65.3904 54.6429,63.7754 53.5239,63.1294 L46.9039,59.3074 C46.3839,59.0074 45.7449,59.0074 45.2259,59.3074" id="Fill-24"></path>
                            <path d="M57.4583,52.2381 L50.8383,56.0591 C49.7193,56.7051 49.7193,58.3201 50.8383,58.9661 L57.4583,62.7881 C57.9783,63.0881 58.6173,63.0881 59.1373,62.7881 L65.7573,58.9671 C66.8763,58.3211 66.8763,56.7061 65.7573,56.0601 L59.1373,52.2381 C58.6173,51.9381 57.9783,51.9381 57.4583,52.2381" id="Fill-26"></path>
                            <path d="M69.7699,45.1248 L63.1499,48.9458 C62.0309,49.5918 62.0309,51.2068 63.1499,51.8528 L69.7709,55.6748 C70.2899,55.9748 70.9289,55.9748 71.4489,55.6748 L78.0689,51.8538 C79.1879,51.2078 79.1879,49.5928 78.0689,48.9468 L71.4489,45.1248 C70.9289,44.8248 70.2899,44.8248 69.7699,45.1248" id="Fill-28"></path>
                            <path d="M81.7933,38.2039 L75.1733,42.0249 C74.0543,42.6709 74.0543,44.2859 75.1733,44.9319 L81.7933,48.7539 C82.3133,49.0539 82.9523,49.0539 83.4723,48.7539 L90.0923,44.9329 C91.2113,44.2869 91.2113,42.6719 90.0923,42.0259 L83.4723,38.2039 C82.9523,37.9039 82.3133,37.9039 81.7933,38.2039" id="Fill-30"></path>
                            <path d="M94.0267,31.1516 L87.4067,34.9726 C86.2877,35.6186 86.2877,37.2336 87.4067,37.8796 L94.0267,41.7026 C94.5467,42.0016 95.1857,42.0026 95.7047,41.7026 L102.3257,37.8806 C103.4447,37.2356 103.4447,35.6206 102.3257,34.9746 L95.7047,31.1516 C95.1857,30.8526 94.5467,30.8526 94.0267,31.1516" id="Fill-32"></path>
                            <path d="M106.2601,24.0735 L99.6401,27.8945 C98.5211,28.5405 98.5211,30.1555 99.6391,30.8015 L106.2601,34.6235 C106.7791,34.9235 107.4181,34.9235 107.9381,34.6245 L114.5581,30.8025 C115.6771,30.1565 115.6771,28.5425 114.5591,27.8965 L107.9381,24.0735 C107.4181,23.7745 106.7791,23.7735 106.2601,24.0735" id="Fill-34"></path>
                            <path d="M118.6244,16.9417 L112.0034,20.7627 C110.8854,21.4087 110.8854,23.0237 112.0034,23.6697 L118.6244,27.4927 C119.1434,27.7917 119.7824,27.7917 120.3024,27.4927 L126.9224,23.6707 C128.0414,23.0257 128.0414,21.4107 126.9234,20.7647 L120.3024,16.9417 C119.7824,16.6427 119.1434,16.6427 118.6244,16.9417" id="Fill-36"></path>
                            <path d="M130.7259,9.9314 L124.1059,13.7524 C122.9869,14.3984 122.9869,16.0134 124.1059,16.6594 L130.7259,20.4824 C131.2459,20.7824 131.8849,20.7824 132.4049,20.4824 L139.0249,16.6604 C140.1439,16.0154 140.1439,14.4004 139.0249,13.7544 L132.4039,9.9314 C131.8849,9.6324 131.2459,9.6324 130.7259,9.9314" id="Fill-38"></path>
                            <path d="M146.9105,0.5242 L136.9165,6.3592 C135.8045,7.0092 135.8075,8.6182 136.9245,9.2622 L142.7105,12.6032 C143.7545,13.2062 145.0405,13.2032 146.0815,12.5952 L156.0745,6.7592 C157.1875,6.1092 157.1835,4.5012 156.0675,3.8572 L150.2815,0.5162 C149.2375,-0.0868 147.9515,-0.0838 146.9105,0.5242" id="Fill-40"></path>
                            <path d="M164.1322,19.2327 L170.7522,15.4117 C171.8712,14.7657 171.8712,13.1507 170.7522,12.5047 L164.1322,8.6817 C163.6122,8.3827 162.9732,8.3817 162.4532,8.6817 L155.8332,12.5037 C154.7142,13.1487 154.7142,14.7637 155.8332,15.4097 L162.4532,19.2327 C162.9732,19.5317 163.6122,19.5317 164.1322,19.2327" id="Fill-42"></path>
                            <path d="M151.8988,26.2322 L158.5188,22.4112 C159.6378,21.7652 159.6378,20.1502 158.5188,19.5042 L151.8988,15.6812 C151.3788,15.3822 150.7398,15.3822 150.2208,15.6812 L143.5998,19.5032 C142.4808,20.1482 142.4808,21.7632 143.5998,22.4092 L150.2208,26.2322 C150.7398,26.5312 151.3788,26.5312 151.8988,26.2322" id="Fill-44"></path>
                            <path d="M139.5609,33.3758 L146.1809,29.5548 C147.2999,28.9088 147.2999,27.2938 146.1809,26.6478 L139.5609,22.8258 C139.0409,22.5258 138.4019,22.5258 137.8819,22.8248 L131.2619,26.6468 C130.1429,27.2928 130.1429,28.9068 131.2619,29.5528 L137.8829,33.3758 C138.4019,33.6748 139.0409,33.6748 139.5609,33.3758" id="Fill-46"></path>
                            <path d="M127.3011,40.4671 L133.9221,36.6461 C135.0401,36.0001 135.0401,34.3851 133.9221,33.7391 L127.3011,29.9171 C126.7821,29.6171 126.1431,29.6171 125.6231,29.9171 L119.0031,33.7381 C117.8841,34.3841 117.8841,35.9991 119.0021,36.6451 L125.6231,40.4671 C126.1431,40.7671 126.7821,40.7671 127.3011,40.4671" id="Fill-48"></path>
                            <path d="M115.0687,47.5364 L121.6887,43.7154 C122.8077,43.0694 122.8077,41.4544 121.6887,40.8084 L115.0687,36.9864 C114.5487,36.6864 113.9097,36.6864 113.3897,36.9864 L106.7697,40.8074 C105.6507,41.4534 105.6507,43.0684 106.7697,43.7144 L113.3897,47.5364 C113.9097,47.8364 114.5487,47.8364 115.0687,47.5364" id="Fill-50"></path>
                            <path d="M102.7562,54.6497 L109.3772,50.8287 C110.4952,50.1827 110.4962,48.5677 109.3772,47.9217 L102.7562,44.0997 C102.2372,43.7997 101.5982,43.7997 101.0782,44.0997 L94.4582,47.9207 C93.3392,48.5667 93.3392,50.1817 94.4572,50.8277 L101.0782,54.6497 C101.5982,54.9497 102.2372,54.9497 102.7562,54.6497" id="Fill-52"></path>
                            <path d="M90.7328,61.5706 L97.3538,57.7496 C98.4728,57.1036 98.4728,55.4886 97.3538,54.8426 L90.7328,51.0206 C90.2138,50.7206 89.5748,50.7206 89.0548,51.0206 L82.4348,54.8416 C81.3158,55.4876 81.3158,57.1026 82.4348,57.7486 L89.0548,61.5706 C89.5748,61.8706 90.2138,61.8706 90.7328,61.5706" id="Fill-54"></path>
                            <path d="M78.5003,68.6228 L85.1203,64.8018 C86.2393,64.1558 86.2393,62.5408 85.1203,61.8948 L78.5003,58.0718 C77.9803,57.7728 77.3413,57.7718 76.8213,58.0718 L70.2013,61.8938 C69.0823,62.5388 69.0823,64.1538 70.2013,64.7998 L76.8213,68.6228 C77.3413,68.9218 77.9803,68.9218 78.5003,68.6228" id="Fill-56"></path>
                            <path d="M66.2669,75.701 L72.8869,71.88 C74.0059,71.234 74.0059,69.619 72.8869,68.973 L66.2669,65.151 C65.7469,64.851 65.1079,64.851 64.5889,65.15 L57.9679,68.972 C56.8499,69.618 56.8489,71.232 57.9679,71.878 L64.5889,75.701 C65.1079,76 65.7469,76.001 66.2669,75.701" id="Fill-58"></path>
                            <path d="M53.9027,82.8328 L60.5227,79.0118 C61.6417,78.3658 61.6417,76.7508 60.5237,76.1048 L53.9027,72.2818 C53.3827,71.9828 52.7437,71.9818 52.2247,72.2818 L45.6037,76.1038 C44.4857,76.7488 44.4847,78.3638 45.6037,79.0098 L52.2247,82.8328 C52.7437,83.1318 53.3827,83.1318 53.9027,82.8328" id="Fill-60"></path>
                            <path d="M41.8011,89.843 L48.4211,86.022 C49.5401,85.376 49.5401,83.761 48.4211,83.115 L41.8011,79.292 C41.2811,78.992 40.6421,78.992 40.1221,79.292 L33.5021,83.114 C32.3831,83.759 32.3831,85.374 33.5021,86.02 L40.1221,89.843 C40.6421,90.142 41.2811,90.142 41.8011,89.843" id="Fill-62"></path>
                            <path d="M25.6165,99.2503 L35.6105,93.4153 C36.7225,92.7653 36.7195,91.1563 35.6025,90.5123 L29.8165,87.1713 C28.7725,86.5683 27.4865,86.5713 26.4455,87.1793 L16.4515,93.0153 C15.3395,93.6653 15.3435,95.2733 16.4595,95.9173 L22.2455,99.2583 C23.2895,99.8613 24.5755,99.8583 25.6165,99.2503" id="Fill-64"></path>
                            <path d="M52.6078,106.2332 L45.9878,110.0542 C44.8688,110.7002 44.8688,112.3152 45.9878,112.9612 L52.6078,116.7842 C53.1278,117.0842 53.7668,117.0842 54.2868,116.7842 L60.9068,112.9622 C62.0258,112.3172 62.0258,110.7022 60.9068,110.0562 L54.2868,106.2332 C53.7668,105.9342 53.1278,105.9342 52.6078,106.2332" id="Fill-66"></path>
                            <path d="M64.8412,99.2337 L58.2212,103.0547 C57.1022,103.7007 57.1022,105.3157 58.2212,105.9617 L64.8412,109.7847 C65.3612,110.0847 66.0002,110.0847 66.5192,109.7847 L73.1402,105.9627 C74.2592,105.3177 74.2592,103.7027 73.1402,103.0567 L66.5192,99.2337 C66.0002,98.9347 65.3612,98.9347 64.8412,99.2337" id="Fill-68"></path>
                            <path d="M77.179,92.0901 L70.559,95.9111 C69.44,96.5571 69.44,98.1721 70.559,98.8181 L77.179,102.6411 C77.699,102.9401 78.338,102.9411 78.858,102.6411 L85.478,98.8191 C86.597,98.1741 86.597,96.5591 85.478,95.9131 L78.857,92.0901 C78.338,91.7911 77.699,91.7911 77.179,92.0901" id="Fill-70"></path>
                            <path d="M89.4388,84.9988 L82.8178,88.8198 C81.6998,89.4658 81.6988,91.0808 82.8178,91.7268 L89.4388,95.5488 C89.9578,95.8488 90.5968,95.8488 91.1168,95.5488 L97.7368,91.7278 C98.8558,91.0818 98.8558,89.4678 97.7378,88.8218 L91.1168,84.9988 C90.5968,84.6988 89.9578,84.6988 89.4388,84.9988" id="Fill-72"></path>
                            <path d="M155.2611,47.1243 L148.6411,50.9453 C147.5221,51.5913 147.5221,53.2063 148.6411,53.8523 L155.2621,57.6743 C155.7811,57.9743 156.4201,57.9743 156.9401,57.6743 L163.5601,53.8533 C164.6791,53.2073 164.6791,51.5923 163.5601,50.9463 L156.9401,47.1243 C156.4201,46.8243 155.7811,46.8243 155.2611,47.1243" id="Fill-74"></path>
                            <path d="M167.4945,40.1248 L160.8745,43.9458 C159.7555,44.5918 159.7555,46.2068 160.8745,46.8528 L167.4945,50.6748 C168.0145,50.9748 168.6535,50.9748 169.1735,50.6748 L175.7935,46.8538 C176.9125,46.2078 176.9125,44.5928 175.7935,43.9468 L169.1725,40.1248 C168.6535,39.8248 168.0145,39.8248 167.4945,40.1248" id="Fill-76"></path>
                            <path d="M179.8324,32.9812 L173.2124,36.8022 C172.0934,37.4482 172.0934,39.0632 173.2124,39.7092 L179.8324,43.5312 C180.3524,43.8312 180.9914,43.8312 181.5114,43.5312 L188.1314,39.7102 C189.2504,39.0642 189.2504,37.4492 188.1314,36.8032 L181.5114,32.9812 C180.9914,32.6812 180.3524,32.6812 179.8324,32.9812" id="Fill-78"></path>
                            <path d="M192.0921,25.8894 L185.4721,29.7104 C184.3531,30.3564 184.3531,31.9714 185.4711,32.6174 L192.0921,36.4404 C192.6121,36.7394 193.2511,36.7394 193.7701,36.4404 L200.3911,32.6184 C201.5091,31.9734 201.5091,30.3584 200.3911,29.7124 L193.7701,25.8894 C193.2511,25.5904 192.6121,25.5904 192.0921,25.8894" id="Fill-80"></path>
                            <path d="M143.0335,54.1126 L95.5635,81.5676 C94.4455,82.2136 94.4445,83.8286 95.5635,84.4746 L102.1845,88.2976 C102.7035,88.5966 103.3435,88.5966 103.8625,88.2976 L151.3315,60.8416 C152.4505,60.1956 152.4505,58.5806 151.3315,57.9346 L144.7115,54.1126 C144.1915,53.8126 143.5525,53.8126 143.0335,54.1126" id="Fill-82"></path>
                            <path d="M159.2415,39.4012 L165.8615,35.5802 C166.9805,34.9342 166.9805,33.3192 165.8615,32.6732 L159.2415,28.8512 C158.7215,28.5512 158.0825,28.5512 157.5625,28.8512 L150.9425,32.6722 C149.8235,33.3182 149.8235,34.9332 150.9425,35.5792 L157.5625,39.4012 C158.0825,39.7012 158.7215,39.7012 159.2415,39.4012" id="Fill-84"></path>
                            <path d="M146.9818,46.493 L153.6018,42.672 C154.7208,42.026 154.7208,40.411 153.6028,39.765 L146.9818,35.943 C146.4618,35.643 145.8228,35.643 145.3038,35.942 L138.6828,39.764 C137.5648,40.41 137.5638,42.024 138.6828,42.67 L145.3038,46.493 C145.8228,46.793 146.4618,46.793 146.9818,46.493" id="Fill-86"></path>
                            <path d="M134.7484,53.5623 L141.3694,49.7413 C142.4884,49.0953 142.4884,47.4803 141.3694,46.8343 L134.7484,43.0123 C134.2294,42.7123 133.5904,42.7123 133.0704,43.0123 L126.4504,46.8333 C125.3314,47.4793 125.3314,49.0933 126.4504,49.7403 L133.0704,53.5623 C133.5904,53.8623 134.2294,53.8623 134.7484,53.5623" id="Fill-88"></path>
                            <path d="M122.4369,60.6756 L129.0569,56.8546 C130.1759,56.2086 130.1759,54.5936 129.0579,53.9476 L122.4369,50.1256 C121.9169,49.8256 121.2779,49.8256 120.7589,50.1246 L114.1389,53.9466 C113.0199,54.5926 113.0199,56.2066 114.1379,56.8526 L120.7589,60.6756 C121.2789,60.9756 121.9179,60.9756 122.4369,60.6756" id="Fill-90"></path>
                            <path d="M110.4134,67.5965 L117.0344,63.7755 C118.1524,63.1295 118.1534,61.5145 117.0344,60.8685 L110.4134,57.0465 C109.8944,56.7465 109.2554,56.7465 108.7354,57.0455 L102.1154,60.8675 C100.9964,61.5135 100.9964,63.1275 102.1144,63.7735 L108.7354,67.5965 C109.2554,67.8965 109.8944,67.8965 110.4134,67.5965" id="Fill-92"></path>
                            <path d="M98.181,74.6482 L104.801,70.8272 C105.92,70.1812 105.92,68.5662 104.801,67.9202 L98.181,64.0982 C97.661,63.7982 97.022,63.7982 96.502,64.0982 L89.882,67.9192 C88.763,68.5652 88.763,70.1802 89.882,70.8262 L96.502,74.6482 C97.022,74.9482 97.661,74.9482 98.181,74.6482" id="Fill-94"></path>
                            <path d="M85.9476,81.7268 L92.5676,77.9058 C93.6866,77.2598 93.6866,75.6448 92.5676,74.9988 L85.9476,71.1758 C85.4276,70.8758 84.7886,70.8758 84.2696,71.1758 L77.6486,74.9978 C76.5296,75.6428 76.5296,77.2578 77.6486,77.9038 L84.2696,81.7268 C84.7886,82.0258 85.4276,82.0258 85.9476,81.7268" id="Fill-96"></path>
                            <path d="M73.5833,88.8582 L80.2033,85.0372 C81.3223,84.3912 81.3223,82.7762 80.2033,82.1302 L73.5833,78.3082 C73.0633,78.0082 72.4243,78.0082 71.9053,78.3082 L65.2843,82.1292 C64.1653,82.7752 64.1653,84.3902 65.2843,85.0362 L71.9053,88.8582 C72.4243,89.1582 73.0633,89.1582 73.5833,88.8582" id="Fill-98"></path>
                            <path d="M61.4818,95.8684 L68.1018,92.0474 C69.2208,91.4014 69.2208,89.7864 68.1018,89.1404 L61.4808,85.3184 C60.9618,85.0184 60.3228,85.0184 59.8028,85.3184 L53.1828,89.1394 C52.0638,89.7854 52.0638,91.4004 53.1828,92.0464 L59.8028,95.8684 C60.3228,96.1684 60.9618,96.1684 61.4818,95.8684" id="Fill-100"></path>
                            <path d="M40.807,107.8025 L53.319,100.6025 C54.431,99.9525 54.427,98.3445 53.312,97.6995 L47.525,94.3595 C46.482,93.7565 45.195,93.7605 44.155,94.3675 L31.643,101.5675 C30.531,102.2175 30.535,103.8255 31.65,104.4695 L37.437,107.8105 C38.48,108.4135 39.767,108.4105 40.807,107.8025" id="Fill-102"></path>
                            <path d="M173.388,31.2049 L185.899,24.0049 C187.012,23.3559 187.008,21.7469 185.892,21.1019 L180.106,17.7619 C179.062,17.1589 177.776,17.1629 176.735,17.7699 L164.223,24.9699 C163.111,25.6199 163.115,27.2279 164.231,27.8719 L170.017,31.2129 C171.061,31.8159 172.347,31.8129 173.388,31.2049" id="Fill-104"></path>
                            <path d="M99.5833,102.9339 L132.8003,122.1309 C133.8393,122.7309 135.1193,122.7309 136.1583,122.1309 L209.2993,79.8609 C211.5373,78.5669 211.5353,75.3369 209.2953,74.0459 L176.0843,54.9109 C175.0463,54.3119 173.7693,54.3129 172.7303,54.9119 L99.5853,97.1209 C97.3483,98.4119 97.3473,101.6419 99.5833,102.9339" id="Fill-106"></path>
                        </g>
                    </g>
                </g>
            </g>
        </g>
    </g>
</svg>