<?xml version="1.0" encoding="UTF-8"?>
<svg width="329px" height="309px" viewBox="0 0 329 309" version="1.1" xmlns="http://www.w3.org/2000/svg" xmlns:xlink="http://www.w3.org/1999/xlink">
    <!-- Generator: Sketch 48.2 (47327) - http://www.bohemiancoding.com/sketch -->
    <title>illustration_exams</title>
    <desc>Created with Sketch.</desc>
    <defs>
        <path d="M129.8408,297.5382 L314.5128,190.7752 C315.8348,190.0112 315.8348,188.1012 314.5118,187.3372 L189.0518,114.9182 C188.4378,114.5632 187.6808,114.5632 187.0668,114.9192 L2.4878,221.6052 C1.1658,222.3692 1.1658,224.2782 2.4868,225.0422 L127.8538,297.5382 C128.4688,297.8932 129.2268,297.8932 129.8408,297.5382" id="path-1"></path>
        <filter x="-4.5%" y="-5.5%" width="108.9%" height="115.3%" filterUnits="objectBoundingBox" id="filter-2">
            <feOffset dx="0" dy="4" in="SourceAlpha" result="shadowOffsetOuter1"></feOffset>
            <feGaussianBlur stdDeviation="4" in="shadowOffsetOuter1" result="shadowBlurOuter1"></feGaussianBlur>
            <feColorMatrix values="0 0 0 0 0.0823529412   0 0 0 0 0.0901960784   0 0 0 0 0.274509804  0 0 0 0.2 0" type="matrix" in="shadowBlurOuter1"></feColorMatrix>
        </filter>
        <path d="M94.3545,52.7599 C79.6915,52.7599 67.8045,46.6609 67.8045,39.1369 L67.8045,80.0059 C67.8045,87.5309 79.6915,93.6299 94.3545,93.6299 C109.0185,93.6299 120.9055,87.5309 120.9055,80.0059 L120.9055,39.1369 C120.9055,46.6609 109.0185,52.7599 94.3545,52.7599" id="path-3"></path>
        <filter x="-26.4%" y="-18.4%" width="152.7%" height="151.4%" filterUnits="objectBoundingBox" id="filter-4">
            <feOffset dx="0" dy="4" in="SourceAlpha" result="shadowOffsetOuter1"></feOffset>
            <feGaussianBlur stdDeviation="4" in="shadowOffsetOuter1" result="shadowBlurOuter1"></feGaussianBlur>
            <feColorMatrix values="0 0 0 0 0.0823529412   0 0 0 0 0.0901960784   0 0 0 0 0.274509804  0 0 0 0.2 0" type="matrix" in="shadowBlurOuter1"></feColorMatrix>
        </filter>
    </defs>
    <g id="Home" stroke="none" stroke-width="1" fill="none" fill-rule="evenodd" transform="translate(-226.000000, -2042.000000)">
        <g id="exams" transform="translate(208.000000, 2042.000000)">
            <g id="illustration">
                <g id="illustration_exams" transform="translate(24.000000, 0.000000)">
                    <path d="M120.9053,39.1368 C120.9053,46.6608 109.0183,52.7598 94.3543,52.7598 C79.6913,52.7598 67.8043,46.6608 67.8043,39.1368 C67.8043,31.6138 79.6913,25.5138 94.3543,25.5138 C109.0183,25.5138 120.9053,31.6138 120.9053,39.1368" id="Fill-1" fill="#F4F4F7"></path>
                    <path d="M94.3555,26.0089 C79.9885,26.0089 68.3005,31.8989 68.3005,39.1369 C68.3005,46.3759 79.9885,52.2629 94.3555,52.2629 C108.7215,52.2629 120.4095,46.3759 120.4095,39.1369 C120.4095,31.8989 108.7215,26.0089 94.3555,26.0089 M94.3555,53.2559 C79.4415,53.2559 67.3085,46.9229 67.3085,39.1369 C67.3085,31.3519 79.4415,25.0169 94.3555,25.0169 C109.2685,25.0169 121.4015,31.3519 121.4015,39.1369 C121.4015,46.9229 109.2685,53.2559 94.3555,53.2559" id="Fill-3" fill="#464465"></path>
                    <g id="Fill-5">
                        <use fill="black" fill-opacity="1" filter="url(#filter-2)" xlink:href="#path-1"></use>
                        <use fill="#F4F4F7" fill-rule="evenodd" xlink:href="#path-1"></use>
                    </g>
                    <path d="M188.0615,115.1485 C187.8035,115.1485 187.5445,115.2155 187.3165,115.3475 L2.7375,222.0365 C2.2715,222.3035 1.9945,222.7865 1.9925,223.3235 C1.9925,223.8605 2.2695,224.3425 2.7355,224.6145 L128.1015,297.1065 C128.5605,297.3745 129.1305,297.3745 129.5895,297.1085 L129.5915,297.1065 L314.2645,190.3445 C314.7305,190.0775 315.0075,189.5945 315.0075,189.0575 C315.0075,188.5185 314.7305,188.0385 314.2625,187.7685 L188.8035,115.3475 C188.5755,115.2135 188.3175,115.1485 188.0615,115.1485 M128.8455,298.3005 C128.4165,298.3005 127.9875,298.1885 127.6035,297.9655 L2.2385,225.4735 C1.4625,225.0215 0.9995,224.2185 0.9995,223.3215 C1.0015,222.4255 1.4645,221.6235 2.2405,221.1755 L186.8185,114.4895 C187.5805,114.0465 188.5345,114.0445 189.2995,114.4875 L314.7595,186.9075 C315.5375,187.3575 315.9995,188.1605 315.9995,189.0555 C316.0015,189.9535 315.5395,190.7555 314.7615,191.2055 L130.0885,297.9675 C129.7075,298.1885 129.2765,298.3005 128.8455,298.3005" id="Fill-7" fill="#464465"></path>
                    <path d="M129.8408,278.6104 L314.5128,171.8474 C315.8348,171.0834 315.8348,169.1734 314.5118,168.4104 L189.0518,95.9914 C188.4378,95.6354 187.6808,95.6364 187.0668,95.9914 L2.4878,202.6774 C1.1658,203.4424 1.1658,205.3504 2.4868,206.1154 L127.8538,278.6104 C128.4688,278.9654 129.2268,278.9654 129.8408,278.6104" id="Fill-10" fill="#F4F4F7"></path>
                    <path d="M188.0596,96.2218 C187.8016,96.2218 187.5436,96.2878 187.3146,96.4218 L2.7376,203.1088 C2.2716,203.3758 1.9926,203.8588 1.9926,204.3978 C1.9926,204.9348 2.2696,205.4168 2.7356,205.6848 L128.1016,278.1808 C128.5646,278.4508 129.1326,278.4468 129.5916,278.1808 L314.2646,171.4188 C314.7306,171.1498 315.0096,170.6658 315.0076,170.1268 C315.0076,169.5908 314.7286,169.1078 314.2626,168.8398 L188.8036,96.4218 C188.5756,96.2878 188.3176,96.2218 188.0596,96.2218 M128.8456,279.3728 C128.4166,279.3728 127.9896,279.2628 127.6056,279.0408 L2.2386,206.5448 C1.4626,206.0958 0.9996,205.2928 0.9996,204.3958 C1.0016,203.4998 1.4646,202.6978 2.2406,202.2468 L186.8186,95.5608 C187.5816,95.1188 188.5366,95.1188 189.2996,95.5608 L314.7596,167.9798 C315.5376,168.4278 315.9996,169.2298 315.9996,170.1268 C316.0016,171.0258 315.5386,171.8288 314.7616,172.2798 L130.0886,279.0408 C129.7056,279.2628 129.2766,279.3728 128.8456,279.3728" id="Fill-12" fill="#464465"></path>
                    <path d="M129.8408,259.6837 L314.5128,152.9207 C315.8348,152.1567 315.8348,150.2467 314.5118,149.4837 L189.0518,77.0637 C188.4378,76.7087 187.6808,76.7087 187.0668,77.0647 L2.4878,183.7507 C1.1658,184.5157 1.1658,186.4237 2.4868,187.1887 L127.8538,259.6837 C128.4688,260.0387 129.2268,260.0387 129.8408,259.6837" id="Fill-15" fill="#FFFFFF"></path>
                    <path d="M188.0615,77.294 C187.8035,77.294 187.5445,77.361 187.3165,77.493 L2.7375,184.182 C2.2715,184.449 1.9945,184.933 1.9925,185.469 C1.9925,186.006 2.2695,186.489 2.7355,186.76 L128.1015,259.253 C128.5605,259.521 129.1305,259.521 129.5895,259.255 L129.5915,259.253 L314.2645,152.49 C314.7305,152.223 315.0075,151.74 315.0075,151.203 C315.0075,150.664 314.7305,150.184 314.2625,149.914 L188.8035,77.493 C188.5755,77.359 188.3175,77.294 188.0615,77.294 M128.8455,260.446 C128.4165,260.446 127.9875,260.334 127.6035,260.111 L2.2385,187.619 C1.4625,187.167 0.9995,186.365 0.9995,185.467 C1.0015,184.571 1.4645,183.769 2.2405,183.321 L186.8185,76.635 C187.5805,76.192 188.5345,76.19 189.2995,76.633 L314.7595,149.054 C315.5375,149.503 315.9995,150.306 315.9995,151.201 C316.0015,152.099 315.5395,152.901 314.7615,153.352 L130.0885,260.113 C129.7075,260.334 129.2765,260.446 128.8455,260.446" id="Fill-17" fill="#464465"></path>
                    <path d="M96.3154,76.504 L90.4064,77.247 L81.9564,10.062 C81.9234,9.8 81.9434,9.533 82.0134,9.279 L83.6584,3.399 C83.7764,2.976 84.3464,2.903 84.5664,3.284 L87.6154,8.574 C87.7474,8.804 87.8324,9.057 87.8654,9.318 L96.3154,76.504 Z" id="Fill-20" fill="#FFFFFF"></path>
                    <path d="M92.4688,76.9874 L90.4058,77.2474 L81.9758,10.2164 C81.9438,9.9614 81.9708,9.6994 82.0568,9.4474 L84.1128,3.3414 L84.0008,9.4034 C83.9928,9.5134 83.9958,9.6244 84.0098,9.7334 L92.4688,76.9874 Z" id="Fill-22" fill="#E6E6ED"></path>
                    <path d="M84.1348,3.5333 L82.4928,9.4133 C82.4388,9.6053 82.4228,9.8013 82.4478,9.9993 L90.8368,76.6923 L95.7608,76.0723 L87.3718,9.3803 C87.3478,9.1843 87.2828,8.9923 87.1848,8.8223 L84.1348,3.5333 Z M89.9758,77.8023 L81.4638,10.1233 C81.4228,9.7933 81.4468,9.4643 81.5368,9.1433 L83.1798,3.2643 C83.2878,2.8783 83.6148,2.5973 84.0128,2.5473 C84.4048,2.5003 84.7958,2.6903 84.9958,3.0393 L88.0448,8.3263 C88.2098,8.6143 88.3168,8.9273 88.3578,9.2563 L96.8688,76.9333 L89.9758,77.8023 Z" id="Fill-24" fill="#464465"></path>
                    <path d="M97.7979,78.7354 L91.9109,77.8344 L102.1569,10.8984 C102.1969,10.6374 102.2879,10.3864 102.4269,10.1624 L105.6159,4.9554 C105.8459,4.5804 106.4129,4.6674 106.5209,5.0934 L108.0069,11.0154 C108.0709,11.2724 108.0839,11.5384 108.0439,11.7994 L97.7979,78.7354 Z" id="Fill-26" fill="#FFFFFF"></path>
                    <path d="M93.9658,78.1485 L91.9108,77.8345 L102.1328,11.0535 C102.1718,10.7975 102.2698,10.5535 102.4208,10.3355 L106.0688,5.0245 L104.3038,10.8245 C104.2658,10.9285 104.2378,11.0365 104.2218,11.1445 L93.9658,78.1485 Z" id="Fill-28" fill="#E6E6ED"></path>
                    <path d="M92.4766,77.42 L97.3826,78.168 L107.5526,11.724 C107.5836,11.528 107.5746,11.332 107.5256,11.137 L106.0406,5.215 L102.8496,10.421 C102.7476,10.588 102.6776,10.778 102.6486,10.972 L92.4766,77.42 Z M98.2126,79.3 L91.3446,78.249 L91.4196,77.759 L101.6666,10.822 C101.7156,10.499 101.8316,10.179 102.0046,9.899 L105.1936,4.695 C105.4016,4.356 105.7966,4.179 106.1866,4.233 C106.5836,4.294 106.9036,4.582 107.0016,4.972 L108.4876,10.897 C108.5686,11.22 108.5836,11.55 108.5346,11.875 L98.2126,79.3 Z" id="Fill-30" fill="#464465"></path>
                    <path d="M96.3779,74.9132 L90.4229,74.9132 L90.4229,7.1982 C90.4229,6.9342 90.4759,6.6722 90.5769,6.4292 L92.9419,0.8002 C93.1129,0.3942 93.6879,0.3942 93.8569,0.8002 L96.2229,6.4292 C96.3249,6.6722 96.3779,6.9342 96.3779,7.1982 L96.3779,74.9132 Z" id="Fill-32" fill="#FFFFFF"></path>
                    <path d="M92.501,74.9132 L90.423,74.9132 L90.423,7.3542 C90.423,7.0972 90.482,6.8402 90.599,6.6002 L93.4,0.8002 L92.533,6.8002 C92.512,6.9082 92.501,7.0182 92.501,7.1292 L92.501,74.9132 Z" id="Fill-34" fill="#E6E6ED"></path>
                    <path d="M90.918,74.4171 L95.881,74.4171 L95.881,7.1971 C95.881,6.9981 95.842,6.8041 95.765,6.6241 L93.399,0.9921 L91.034,6.6221 C90.959,6.8041 90.918,7.0041 90.918,7.1971 L90.918,74.4171 Z M96.873,75.4091 L89.926,75.4091 L89.926,7.1971 C89.926,6.8701 89.991,6.5481 90.119,6.2401 L92.484,0.6081 C92.64,0.2381 93,0.0001 93.399,0.0001 L93.401,0.0001 C93.803,0.0021 94.161,0.2401 94.314,0.6101 L96.68,6.2381 C96.808,6.5401 96.873,6.8641 96.873,7.1971 L96.873,75.4091 Z" id="Fill-36" fill="#464465"></path>
                    <g id="Fill-38">
                        <use fill="black" fill-opacity="1" filter="url(#filter-4)" xlink:href="#path-3"></use>
                        <use fill="#FFFFFF" fill-rule="evenodd" xlink:href="#path-3"></use>
                    </g>
                    <path d="M68.3008,42.9327 L68.3008,80.0057 C68.3008,87.2447 79.9888,93.1337 94.3558,93.1337 C108.7218,93.1337 120.4088,87.2447 120.4088,80.0057 L120.4088,42.9327 C117.2268,48.8797 106.7498,53.2557 94.3558,53.2557 C81.9598,53.2557 71.4848,48.8797 68.3008,42.9327 M94.3558,94.1257 C79.4418,94.1257 67.3088,87.7907 67.3088,80.0057 L67.3088,39.1367 L68.3008,39.1367 C68.3008,46.3757 79.9888,52.2627 94.3558,52.2627 C108.7218,52.2627 120.4088,46.3757 120.4088,39.1367 L121.4018,39.1367 L121.4018,80.0057 C121.4018,87.7907 109.2688,94.1257 94.3558,94.1257" id="Fill-40" fill="#464465"></path>
                    <path d="M169.2939,104.3429 C169.0569,104.2059 168.6719,104.2049 168.4369,104.3409 L160.9289,108.6749 C160.6929,108.8119 160.6949,109.0329 160.9319,109.1699 L168.4859,113.5319 C168.7239,113.6679 169.1079,113.6689 169.3439,113.5329 L176.8509,109.1989 C177.0859,109.0629 177.0849,108.8409 176.8489,108.7039 L169.2939,104.3429 Z M167.6319,114.0259 L160.0769,109.6629 C159.3669,109.2529 159.3629,108.5869 160.0689,108.1789 L167.5769,103.8449 C168.2829,103.4379 169.4379,103.4399 170.1479,103.8489 L177.7019,108.2109 C178.4129,108.6209 178.4159,109.2869 177.7109,109.6959 L170.2029,114.0299 C169.4969,114.4369 168.3429,114.4349 167.6319,114.0259 Z" id="Fill-42" fill="#C9F0FF"></path>
                    <path d="M122.8916,131.1319 C122.6556,130.9949 122.2706,130.9949 122.0356,131.1309 L114.5276,135.4649 C114.2916,135.6009 114.2936,135.8229 114.5306,135.9599 L122.0846,140.3209 C122.3216,140.4579 122.7066,140.4589 122.9416,140.3229 L130.4496,135.9879 C130.6846,135.8529 130.6836,135.6309 130.4476,135.4939 L122.8916,131.1319 Z M121.2306,140.8149 L113.6756,136.4529 C112.9656,136.0429 112.9616,135.3759 113.6676,134.9689 L121.1756,130.6349 C121.8806,130.2269 123.0366,130.2299 123.7456,130.6389 L131.3006,135.0009 C132.0106,135.4109 132.0146,136.0769 131.3086,136.4859 L123.8016,140.8199 C123.0956,141.2269 121.9416,141.2249 121.2306,140.8149 Z" id="Fill-50" fill="#C9F0FF"></path>
                    <path d="M99.6914,144.5274 C99.4544,144.3904 99.0694,144.3894 98.8344,144.5254 L91.3274,148.8604 C91.0914,148.9964 91.0924,149.2174 91.3294,149.3544 L98.8834,153.7164 C99.1214,153.8534 99.5054,153.8534 99.7414,153.7174 L107.2494,149.3834 C107.4844,149.2484 107.4824,149.0254 107.2464,148.8884 L99.6914,144.5274 Z M98.0304,154.2104 L90.4754,149.8474 C89.7644,149.4384 89.7614,148.7714 90.4664,148.3644 L97.9744,144.0294 C98.6804,143.6224 99.8354,143.6244 100.5454,144.0344 L108.1004,148.3954 C108.8104,148.8054 108.8144,149.4724 108.1084,149.8804 L100.6004,154.2154 C99.8944,154.6224 98.7404,154.6204 98.0304,154.2104 Z" id="Fill-58" fill="#C9F0FF"></path>
                    <path d="M146.0928,117.7374 C145.8568,117.6004 145.4708,117.5994 145.2368,117.7354 L137.7288,122.0704 C137.4928,122.2064 137.4938,122.4284 137.7308,122.5644 L145.2858,126.9264 C145.5228,127.0634 145.9068,127.0644 146.1428,126.9284 L153.6508,122.5934 C153.8858,122.4584 153.8838,122.2354 153.6478,122.0984 L146.0928,117.7374 Z M144.4318,127.4204 L136.8768,123.0584 C136.1668,122.6484 136.1628,121.9814 136.8688,121.5744 L144.3758,117.2394 C145.0818,116.8324 146.2368,116.8344 146.9468,117.2444 L154.5018,121.6054 C155.2118,122.0154 155.2158,122.6824 154.5098,123.0904 L147.0018,127.4254 C146.2968,127.8324 145.1418,127.8304 144.4318,127.4204 Z" id="Fill-66" fill="#C9F0FF"></path>
                    <g id="Group-2" transform="translate(96.000000, 105.000000)" fill="#00A3E0">
                        <path d="M71.1592,5.7013 C70.3422,5.7913 69.6112,5.3893 69.7252,4.9133 L70.5492,1.5093 C70.6402,1.1263 71.2522,0.8603 71.9152,0.9183 C72.5782,0.9713 73.0402,1.3283 72.9462,1.7103 L72.3602,4.1453 L88.2522,2.4073 C88.9072,2.3373 89.5482,2.5853 89.6742,2.9653 C89.8022,3.3453 89.3732,3.7103 88.7182,3.7823 L71.1592,5.7013 Z" id="Fill-44"></path>
                        <path d="M157.5059,51.7442 L85.8229,10.3582 C85.3829,10.1032 85.4379,9.6592 85.9459,9.3662 L86.7099,8.9252 C87.2179,8.6322 87.9869,8.5992 88.4279,8.8532 L160.1109,50.2402 C160.5519,50.4942 160.4959,50.9382 159.9869,51.2322 L159.2249,51.6732 C158.7159,51.9672 157.9459,51.9992 157.5059,51.7442" id="Fill-46"></path>
                        <path d="M137.1074,45.4776 L81.0504,13.1136 C80.6104,12.8596 80.6654,12.4146 81.1734,12.1216 L81.9374,11.6806 C82.4464,11.3866 83.2144,11.3556 83.6554,11.6096 L139.7114,43.9736 C140.1524,44.2276 140.0974,44.6716 139.5884,44.9656 L138.8254,45.4066 C138.3164,45.7006 137.5474,45.7316 137.1074,45.4776" id="Fill-48"></path>
                        <path d="M24.7578,32.4913 C23.9408,32.5803 23.2098,32.1793 23.3238,31.7033 L24.1478,28.2993 C24.2388,27.9163 24.8508,27.6503 25.5128,27.7083 C26.1758,27.7613 26.6388,28.1183 26.5448,28.5003 L25.9588,30.9353 L41.8508,29.1973 C42.5058,29.1273 43.1468,29.3753 43.2728,29.7543 C43.4008,30.1343 42.9718,30.5003 42.3168,30.5723 L24.7578,32.4913 Z" id="Fill-52"></path>
                        <path d="M111.1045,78.5343 L39.4205,37.1473 C38.9815,36.8933 39.0365,36.4493 39.5445,36.1563 L40.3085,35.7153 C40.8165,35.4223 41.5855,35.3893 42.0265,35.6433 L113.7095,77.0303 C114.1505,77.2843 114.0945,77.7283 113.5855,78.0223 L112.8225,78.4633 C112.3145,78.7573 111.5445,78.7883 111.1045,78.5343" id="Fill-54"></path>
                        <path d="M90.7051,72.2677 L34.6491,39.9037 C34.2091,39.6497 34.2641,39.2047 34.7721,38.9117 L35.5361,38.4707 C36.0441,38.1767 36.8131,38.1447 37.2541,38.3997 L93.3101,70.7637 C93.7511,71.0177 93.6951,71.4617 93.1871,71.7557 L92.4241,72.1967 C91.9151,72.4907 91.1451,72.5217 90.7051,72.2677" id="Fill-56"></path>
                        <path d="M1.5566,45.8858 C0.7406,45.9758 0.0086,45.5738 0.1236,45.0978 L0.9466,41.6938 C1.0376,41.3108 1.6496,41.0448 2.3126,41.1028 C2.9756,41.1568 3.4376,41.5138 3.3446,41.8948 L2.7586,44.3308 L18.6496,42.5918 C19.3056,42.5218 19.9466,42.7708 20.0726,43.1498 C20.1996,43.5298 19.7716,43.8948 19.1156,43.9668 L1.5566,45.8858 Z" id="Fill-60"></path>
                        <path d="M87.9033,91.9288 L16.2203,50.5428 C15.7803,50.2888 15.8363,49.8448 16.3433,49.5508 L17.1073,49.1108 C17.6163,48.8168 18.3853,48.7838 18.8263,49.0388 L90.5083,90.4248 C90.9493,90.6798 90.8943,91.1228 90.3853,91.4168 L89.6223,91.8588 C89.1133,92.1518 88.3433,92.1838 87.9033,91.9288" id="Fill-62"></path>
                        <path d="M67.5049,85.6622 L11.4479,53.2982 C11.0079,53.0442 11.0639,52.5992 11.5709,52.3072 L12.3349,51.8652 C12.8439,51.5712 13.6129,51.5402 14.0539,51.7942 L70.1099,84.1582 C70.5499,84.4132 70.4949,84.8562 69.9859,85.1502 L69.2229,85.5912 C68.7149,85.8852 67.9449,85.9172 67.5049,85.6622" id="Fill-64"></path>
                        <path d="M47.958,19.0968 C47.142,19.1858 46.41,18.7838 46.525,18.3078 L47.348,14.9038 C47.439,14.5208 48.051,14.2558 48.714,14.3128 C49.377,14.3668 49.839,14.7238 49.746,15.1048 L49.16,17.5408 L65.051,15.8018 C65.707,15.7318 66.348,15.9808 66.474,16.3598 C66.601,16.7398 66.173,17.1048 65.518,17.1768 L47.958,19.0968 Z" id="Fill-68"></path>
                        <path d="M146.5088,72.1847 L62.6868,23.7897 C62.2098,23.5157 62.2708,23.0357 62.8198,22.7177 L63.4348,22.3637 C63.9848,22.0457 64.8158,22.0117 65.2908,22.2867 L149.1128,70.6807 C149.5898,70.9557 149.5298,71.4357 148.9808,71.7527 L148.3648,72.1087 C147.8158,72.4247 146.9848,72.4597 146.5088,72.1847" id="Fill-70"></path>
                        <path d="M103.4932,52.8604 L57.7732,26.4644 C57.3752,26.2344 57.4252,25.8334 57.8852,25.5674 L58.8242,25.0244 C59.2842,24.7584 59.9802,24.7304 60.3792,24.9604 L106.0972,51.3564 C106.4962,51.5864 106.4462,51.9884 105.9862,52.2544 L105.0472,52.7964 C104.5872,53.0614 103.8902,53.0894 103.4932,52.8604" id="Fill-72"></path>
                    </g>
                    <path d="M78.6641,156.6681 C78.4271,156.5311 78.0421,156.5301 77.8071,156.6661 L70.2991,161.0001 C70.0631,161.1371 70.0651,161.3581 70.3021,161.4951 L77.8561,165.8571 C78.0931,165.9931 78.4781,165.9941 78.7141,165.8581 L86.2211,161.5241 C86.4561,161.3881 86.4551,161.1661 86.2191,161.0291 L78.6641,156.6681 Z M77.0021,166.3511 L69.4471,161.9881 C68.7371,161.5781 68.7331,160.9121 69.4391,160.5041 L76.9471,156.1701 C77.6531,155.7631 78.8081,155.7651 79.5181,156.1741 L87.0721,160.5361 C87.7821,160.9461 87.7861,161.6121 87.0811,162.0211 L79.5731,166.3551 C78.8671,166.7631 77.7131,166.7601 77.0021,166.3511 Z" id="Fill-74" fill="#C9F0FF"></path>
                    <path d="M175.0791,216.1153 L91.2571,167.7203 C90.7811,167.4453 90.8411,166.9663 91.3911,166.6483 L92.0061,166.2933 C92.5551,165.9753 93.3871,165.9413 93.8621,166.2163 L177.6841,214.6113 C178.1601,214.8863 178.1001,215.3653 177.5511,215.6823 L176.9351,216.0383 C176.3871,216.3553 175.5561,216.3893 175.0791,216.1153" id="Fill-76" fill="#C9F0FF"></path>
                    <path d="M132.0635,196.7911 L86.3445,170.3951 C85.9465,170.1651 85.9965,169.7631 86.4565,169.4971 L87.3955,168.9551 C87.8555,168.6891 88.5505,168.6601 88.9495,168.8911 L134.6685,195.2861 C135.0675,195.5171 135.0165,195.9181 134.5565,196.1841 L133.6175,196.7271 C133.1575,196.9911 132.4615,197.0201 132.0635,196.7911" id="Fill-78" fill="#C9F0FF"></path>
                </g>
            </g>
        </g>
    </g>
</svg>