<?xml version="1.0" encoding="UTF-8"?>
<svg width="155px" height="50px" viewBox="0 0 155 50" version="1.1" xmlns="http://www.w3.org/2000/svg" xmlns:xlink="http://www.w3.org/1999/xlink">
    <title>logo</title>
    <defs>
        <polygon id="path-1" points="0.169625 0 9.500875 0 9.500875 9.659875 0.169625 9.659875"></polygon>
        <polygon id="path-3" points="0 0 25.16925 0 25.16925 49.99975 0 49.99975"></polygon>
        <polygon id="path-5" points="0.170625 0.00025 25.339995 0.00025 25.339995 50 0.170625 50"></polygon>
        <polygon id="path-7" points="0 50 154.7125 50 154.7125 0 0 0"></polygon>
    </defs>
    <g id="Home" stroke="none" stroke-width="1" fill="none" fill-rule="evenodd" transform="translate(-208.000000, -18.000000)">
        <g id="navigation">
            <g id="logo" transform="translate(208.000000, 18.000000)">
                <path d="M42.722625,46.45625 C43.381375,45.53 43.892625,44.035 44.238875,39.75125 C44.451375,37.12375 44.561375,33.77125 44.551375,30.3075 C44.541375,26.85 44.411375,23.575 44.183875,21.08375 C43.811375,16.97375 43.277625,15.35625 41.991375,14.425 C41.228875,13.875 39.313875,12.49 27.895125,12.25875 L27.861375,12.20125 C27.436375,11.455 26.715125,10.8125 25.821375,10.3825 L26.578875,9.565 C26.396375,9.59625 26.211375,9.6175 26.033875,9.66 L25.170125,8.7525 L24.305125,9.66 C24.127625,9.6175 23.943875,9.59625 23.761375,9.565 L24.518875,10.3825 C23.623875,10.8125 22.903875,11.455 22.477625,12.20125 L22.443875,12.25875 C11.025125,12.49 9.110125,13.875 8.348875,14.425 C7.061375,15.35625 6.527625,16.97375 6.155125,21.08375 C5.927625,23.575 5.797625,26.85 5.787625,30.3075 C5.776375,33.77125 5.887625,37.12375 6.100125,39.75125 C6.446375,44.035 6.957625,45.53 7.616375,46.45625 C8.717625,48.00375 10.957625,48.89625 15.103875,49.4375 C17.302625,49.725 21.471375,49.90625 25.170125,49.9725 C28.868875,49.90625 33.035125,49.725 35.235125,49.4375 C39.381375,48.89625 41.621375,48.00375 42.722625,46.45625" id="Fill-1" fill="#10069F"></path>
                <g id="Group-5" transform="translate(25.000000, 0.000000)">
                    <mask id="mask-2" fill="white">
                        <use xlink:href="#path-1"></use>
                    </mask>
                    <g id="Clip-4"></g>
                    <path d="M0.169625,8.752375 L1.034625,9.659875 C1.210875,9.617375 1.397125,9.596125 1.578375,9.564875 L7.427125,3.258625 C7.559625,3.292375 7.692125,3.307375 7.824625,3.307375 C8.748375,3.307375 9.500875,2.566125 9.500875,1.653625 C9.500875,0.742375 8.748375,-0.000125 7.824625,-0.000125 C6.899625,-0.000125 6.147125,0.742375 6.147125,1.653625 C6.147125,1.887375 6.195875,2.112375 6.294625,2.326125" id="Fill-3" fill="#FF671F" mask="url(#mask-2)"></path>
                </g>
                <g id="Group-8">
                    <mask id="mask-4" fill="white">
                        <use xlink:href="#path-3"></use>
                    </mask>
                    <g id="Clip-7"></g>
                    <path d="M15.10425,49.43725 C10.958,48.896 8.718,48.00475 7.61675,46.456 C6.95675,45.52975 6.44675,44.03475 6.1005,39.751 C5.888,37.1235 5.778,33.771 5.78675,30.30725 C5.798,26.851 5.928,23.576 6.1555,21.0835 C6.528,16.9735 7.06175,15.356 8.34925,14.42475 C9.1105,13.87475 11.02425,12.48975 22.44425,12.2585 L22.47675,12.201 C22.903,11.45475 23.62425,10.8135 24.518,10.38225 L23.7605,9.566 C23.293,9.4885 22.81675,9.43475 22.328,9.42975 L22.22425,9.42975 C21.5455,9.43725 20.8805,9.51225 20.248,9.65975 L13.258,2.32725 C13.35675,2.1135 13.4055,1.88725 13.4055,1.6535 C13.4055,0.74225 12.653,-0.00025 11.728,-0.00025 C10.80425,-0.00025 10.05175,0.74225 10.05175,1.6535 C10.05175,2.566 10.80425,3.30725 11.728,3.30725 C11.8605,3.30725 11.99425,3.29225 12.1255,3.25975 L18.73175,10.38225 C17.838,10.8135 17.11675,11.45475 16.6905,12.201 L16.658,12.2585 C5.238,12.48975 3.323,13.87475 2.56175,14.42475 C1.2755,15.356 0.74175,16.9735 0.368,21.0835 C0.14175,23.576 0.01175,26.851 0.0005,30.30725 C-0.0095,33.771 0.10175,37.1235 0.31425,39.751 C0.6605,44.03475 1.1705,45.52975 1.82925,46.456 C2.93175,48.00475 5.17175,48.896 9.318,49.43725 C12.10925,49.80225 18.07675,49.996 22.22425,49.99975 L22.27675,49.99975 L22.328,49.99975 C23.208,49.9985 24.173,49.9885 25.16925,49.97225 C21.4705,49.906 17.303,49.72475 15.10425,49.43725" id="Fill-6" fill="#FF671F" mask="url(#mask-4)"></path>
                </g>
                <path d="M19.045375,2.326625 C19.144125,2.112875 19.192875,1.886625 19.192875,1.654125 C19.192875,0.741625 18.440375,0.000375 17.515375,0.000375 C16.591625,0.000375 15.839125,0.741625 15.839125,1.654125 C15.839125,2.565375 16.591625,3.306625 17.515375,3.306625 C17.647875,3.306625 17.781625,3.291625 17.912875,3.259125 L23.760375,9.565375 C23.942875,9.595375 24.129125,9.617875 24.305375,9.659125 L25.170375,8.752875" id="Fill-9" fill="#00A9E6"></path>
                <g id="Group-13" transform="translate(25.000000, 0.000000)">
                    <mask id="mask-6" fill="white">
                        <use xlink:href="#path-5"></use>
                    </mask>
                    <g id="Clip-12"></g>
                    <path d="M24.971875,21.084 C24.598125,16.974 24.064375,15.3565 22.778125,14.42525 C22.016875,13.874 20.101875,12.49025 8.681875,12.25775 L8.649375,12.2015 C8.223125,11.45525 7.501875,10.81275 6.609375,10.3815 L13.214375,3.259 C13.346875,3.29275 13.480625,3.3065 13.611875,3.3065 C14.535625,3.3065 15.288125,2.5665 15.288125,1.654 C15.288125,0.74275 14.535625,0.00025 13.611875,0.00025 C12.686875,0.00025 11.934375,0.74275 11.934375,1.654 C11.934375,1.88775 11.983125,2.11275 12.081875,2.3265 L5.093125,9.659 C4.459375,9.5115 3.794375,9.43775 3.115625,9.43025 L3.011875,9.43025 C2.523125,9.43525 2.046875,9.489 1.579375,9.56525 L0.821875,10.3815 C1.715625,10.81275 2.436875,11.45525 2.863125,12.2015 L2.895625,12.25775 C14.315625,12.49025 16.230625,13.874 16.991875,14.42525 C18.279375,15.3565 18.811875,16.974 19.185625,21.084 C19.411875,23.57525 19.541875,26.85025 19.553125,30.30775 C19.563125,33.77025 19.451875,37.124 19.239375,39.7515 C18.893125,44.034 18.383125,45.53025 17.723125,46.4565 C16.621875,48.004 14.381875,48.8965 10.235625,49.43775 C8.036875,49.72525 3.869375,49.9065 0.170625,49.9715 C1.166875,49.989 2.131875,49.999 3.011875,50.00025 L3.064375,50.00025 L3.115625,50.00025 C7.263125,49.9965 13.230625,49.80275 16.021875,49.43775 C20.168125,48.8965 22.408125,48.004 23.510625,46.4565 C24.169375,45.53025 24.680625,44.034 25.025625,39.7515 C25.238125,37.124 25.349375,33.77025 25.339375,30.30775 C25.328125,26.85025 25.199375,23.57525 24.971875,21.084" id="Fill-11" fill="#00A9E6" mask="url(#mask-6)"></path>
                </g>
                <mask id="mask-8" fill="white">
                    <use xlink:href="#path-7"></use>
                </mask>
                <g id="Clip-15"></g>
                <polygon id="Fill-14" fill="#FFFFFF" mask="url(#mask-8)" points="12.4525 41.9775 20.36 41.9775 20.36 20.21875 12.4525 20.21875"></polygon>
                <polygon id="Fill-16" fill="#FFFFFF" mask="url(#mask-8)" points="22.5225 20.2185 39.145 20.2185 39.145 27.2885 34.7875 27.08725 34.7875 41.97725 26.88 41.97725 26.88 27.08725 22.5225 27.2885"></polygon>
                <polygon id="Fill-17" fill="#10069F" mask="url(#mask-8)" points="61.19125 39.0975 65.01 39.0975 65.01 24.4075 61.19125 24.4075"></polygon>
                <polygon id="Fill-18" fill="#10069F" mask="url(#mask-8)" points="75.9545 39.097875 72.13575 39.097875 72.13575 27.642875 68.9795 27.642875 68.9795 24.407875 79.1095 24.407875 79.1095 27.642875 75.9545 27.642875"></polygon>
                <path d="M87.17275,31.148625 L87.81525,31.148625 C89.199,31.148625 90.56275,31.148625 90.56275,29.356125 C90.56275,27.506125 89.2965,27.486125 87.81525,27.486125 L87.17275,27.486125 L87.17275,31.148625 Z M83.354,24.407375 L89.199,24.407375 C92.35525,24.407375 94.5365,25.868625 94.5365,29.241125 C94.5365,32.708625 92.6665,34.227375 89.334,34.227375 L87.17275,34.227375 L87.17275,39.097375 L83.354,39.097375 L83.354,24.407375 Z" id="Fill-19" fill="#10069F" mask="url(#mask-8)"></path>
                <path d="M102.91125,30.993625 L103.28125,30.993625 C104.52875,30.993625 105.93125,30.759875 105.93125,29.162375 C105.93125,27.564875 104.52875,27.329875 103.28125,27.329875 L102.91125,27.329875 L102.91125,30.993625 Z M111.3075,39.097375 L106.555,39.097375 L102.95,33.448625 L102.91125,33.448625 L102.91125,39.097375 L99.0925,39.097375 L99.0925,24.407375 L104.80125,24.407375 C107.70375,24.407375 109.905,25.792375 109.905,28.928625 C109.905,30.954875 108.775,32.708625 106.69125,33.078625 L111.3075,39.097375 Z" id="Fill-20" fill="#10069F" mask="url(#mask-8)"></path>
                <path d="M117.788,31.50025 C117.788,34.03275 119.65925,35.884 121.938,35.884 C124.218,35.884 126.088,34.03275 126.088,31.50025 C126.088,29.474 124.218,27.62275 121.938,27.62275 C119.65925,27.62275 117.788,29.474 117.788,31.50025 M130.06175,31.48025 C130.06175,36.234 126.653,39.58525 121.938,39.58525 C117.223,39.58525 113.81425,36.234 113.81425,31.48025 C113.81425,27.039 117.7105,23.92275 121.938,23.92275 C126.1655,23.92275 130.06175,27.039 130.06175,31.48025" id="Fill-21" fill="#10069F" mask="url(#mask-8)"></path>
                <path d="M132.637875,38.068875 C132.637875,38.637625 132.176625,39.097625 131.609125,39.097625 C131.041625,39.097625 130.580375,38.637625 130.580375,38.068875 C130.580375,37.501375 131.041625,37.041375 131.609125,37.041375 C132.176625,37.041375 132.637875,37.501375 132.637875,38.068875" id="Fill-22" fill="#10069F" mask="url(#mask-8)"></path>
                <polygon id="Fill-23" fill="#10069F" mask="url(#mask-8)" points="150.81775 24.408 148.12025 33.33175 145.44025 24.408 143.234 24.408 141.5465 24.408 133.10275 24.408 133.10275 27.643 136.259 27.643 136.259 39.098 140.07775 39.098 140.07775 27.643 142.679 27.643 146.694 39.098 149.474 39.098 154.7115 24.408"></polygon>
            </g>
        </g>
    </g>
</svg>
