<?xml version="1.0" encoding="UTF-8"?>
<svg width="369px" height="280px" viewBox="0 0 369 280" version="1.1" xmlns="http://www.w3.org/2000/svg" xmlns:xlink="http://www.w3.org/1999/xlink">
    <title>illustration_labs</title>
    <desc>illustration_labs</desc>
    <defs>
        <path d="M337.296,184.6581 C337.293,185.3981 336.925,186.1371 336.192,186.5601 L249.076,236.8521 C248.394,237.2471 247.553,237.2471 246.87,236.8521 L159.759,186.5601 C158.961,186.1001 158.597,185.2661 158.663,184.4631 L158.649982,184.4631 L158.65,214.8881 C158.647,215.6351 159.014,216.3821 159.752,216.8071 L246.863,267.0991 C247.546,267.4941 248.387,267.4941 249.069,267.0991 L336.187,216.8071 C336.968,216.3561 337.334,215.5461 337.285,214.7571 L337.285,184.6471" id="path-1"></path>
        <filter x="-7.8%" y="-12.1%" width="115.7%" height="133.8%" filterUnits="objectBoundingBox" id="filter-2">
            <feOffset dx="0" dy="4" in="SourceAlpha" result="shadowOffsetOuter1"></feOffset>
            <feGaussianBlur stdDeviation="4" in="shadowOffsetOuter1" result="shadowBlurOuter1"></feGaussianBlur>
            <feColorMatrix values="0 0 0 0 0.0823529412   0 0 0 0 0.0901960784   0 0 0 0 0.274509804  0 0 0 0.2 0" type="matrix" in="shadowBlurOuter1"></feColorMatrix>
        </filter>
        <path d="M179.1212,93.4549 C179.1182,94.1949 178.7512,94.9339 178.0182,95.3559 L90.9012,145.6489 C90.2192,146.0429 89.3782,146.0429 88.6952,145.6489 L1.5842,95.3569 C0.7872,94.8969 0.4222,94.0619 0.4882,93.2599 L0.475181806,93.2599 L0.4752,123.6849 C0.4722,124.4309 0.8402,125.1789 1.5782,125.6039 L88.6882,175.8959 C89.3712,176.2899 90.2132,176.2899 90.8952,175.8959 L178.0122,125.6029 C178.7932,125.1519 179.1592,124.3419 179.1102,123.5539 L179.1102,93.4439" id="path-3"></path>
        <filter x="-7.8%" y="-12.1%" width="115.7%" height="133.8%" filterUnits="objectBoundingBox" id="filter-4">
            <feOffset dx="0" dy="4" in="SourceAlpha" result="shadowOffsetOuter1"></feOffset>
            <feGaussianBlur stdDeviation="4" in="shadowOffsetOuter1" result="shadowBlurOuter1"></feGaussianBlur>
            <feColorMatrix values="0 0 0 0 0.0823529412   0 0 0 0 0.0901960784   0 0 0 0 0.274509804  0 0 0 0.2 0" type="matrix" in="shadowBlurOuter1"></feColorMatrix>
        </filter>
        <path d="M269.9981,54.2245 C269.9951,54.9645 269.6281,55.7035 268.8951,56.1255 L181.7781,106.4185 C181.0961,106.8125 180.2551,106.8125 179.5721,106.4185 L92.4611,56.1265 C91.6641,55.6665 91.2991,54.8315 91.3651,54.0295 L91.3520818,54.0295 L91.3521,84.4535 C91.3491,85.2005 91.7171,85.9475 92.4551,86.3735 L179.5651,136.6655 C180.2481,137.0595 181.0901,137.0595 181.7721,136.6655 L268.8891,86.3725 C269.6701,85.9215 270.0361,85.1115 269.9871,84.3235 L269.9871,54.2125" id="path-5"></path>
        <filter x="-7.8%" y="-12.1%" width="115.7%" height="133.8%" filterUnits="objectBoundingBox" id="filter-6">
            <feOffset dx="0" dy="4" in="SourceAlpha" result="shadowOffsetOuter1"></feOffset>
            <feGaussianBlur stdDeviation="4" in="shadowOffsetOuter1" result="shadowBlurOuter1"></feGaussianBlur>
            <feColorMatrix values="0 0 0 0 0.0823529412   0 0 0 0 0.0901960784   0 0 0 0 0.274509804  0 0 0 0.2 0" type="matrix" in="shadowBlurOuter1"></feColorMatrix>
        </filter>
    </defs>
    <g id="Home" stroke="none" stroke-width="1" fill="none" fill-rule="evenodd" transform="translate(-887.000000, -1649.000000)">
        <g id="labs" transform="translate(208.000000, 1637.000000)">
            <g id="illustration" transform="translate(687.000000, 0.000000)">
                <g id="illustration_labs" transform="translate(0.000000, 13.000000)">
                    <path d="M138.9083,269.4481 C137.0063,270.5451 133.9073,270.5401 131.9973,269.4351 C131.1563,268.9501 130.6933,268.3341 130.6933,267.7031 C130.6933,267.0771 131.1483,266.4701 131.9743,265.9951 C132.9203,265.4491 134.1613,265.1771 135.4073,265.1771 C136.6643,265.1771 137.9253,265.4531 138.8853,266.0081 C139.7253,266.4921 140.1873,267.1071 140.1873,267.7401 C140.1893,268.3641 139.7343,268.9701 138.9083,269.4481 M130.6993,176.1691 C130.6993,175.5441 131.1543,174.9361 131.9803,174.4591 C132.9253,173.9131 134.1673,173.6401 135.4133,173.6401 C136.6703,173.6401 137.9303,173.9191 138.8893,174.4741 C139.7303,174.9591 140.1933,175.5731 140.1933,176.2041 C140.1933,176.8301 139.7383,177.4371 138.9123,177.9121 C137.0123,179.0131 133.9133,179.0041 132.0023,177.8991 C131.1613,177.4151 130.6993,176.8011 130.6993,176.1691 M139.3593,265.1831 C139.6163,265.3321 139.8383,265.4971 140.0423,265.6671 L237.5923,209.3421 L237.1163,208.5171 L139.1503,265.0841 C137.0093,263.9581 133.8553,263.9511 131.7213,265.0661 L57.8283,222.3651 C57.6133,222.2421 57.5913,222.0361 57.5913,221.9551 C57.5913,221.8711 57.6133,221.6671 57.8283,221.5431 L131.7833,178.8451 C132.8523,179.3961 134.1603,179.6851 135.4773,179.6851 C136.8873,179.6851 138.2923,179.3681 139.3873,178.7361 C140.5193,178.0831 141.1433,177.1821 141.1433,176.2041 C141.1433,175.2191 140.5123,174.3121 139.3653,173.6501 C137.1543,172.3731 133.7013,172.3651 131.5053,173.6351 C131.5853,173.5891 131.6783,173.5561 131.7603,173.5131 L102.0153,156.3351 L101.5403,157.1591 L130.8613,174.0931 C130.1463,174.6841 129.7493,175.4001 129.7493,176.1691 C129.7493,177.1551 130.3823,178.0601 131.5273,178.7231 C131.2853,178.5831 131.0783,178.4271 130.8843,178.2661 L57.3523,220.7191 C56.9053,220.9761 56.6393,221.4381 56.6393,221.9551 C56.6393,222.4701 56.9073,222.9311 57.3523,223.1891 L130.8273,265.6471 C130.1293,266.2331 129.7433,266.9411 129.7433,267.7011 C129.7433,268.6861 130.3743,269.5961 131.5213,270.2601 C132.6323,270.8991 134.0543,271.2191 135.4723,271.2191 C136.8813,271.2191 138.2883,270.9031 139.3843,270.2721 C140.5163,269.6171 141.1393,268.7191 141.1373,267.7401 C141.1373,266.7541 140.5073,265.8461 139.3593,265.1831" id="Fill-1" stroke="#00A3E0"></path>
                    <g id="Fill-4">
                        <use fill="black" fill-opacity="1" filter="url(#filter-2)" xlink:href="#path-1"></use>
                        <use fill="#F4F4F7" fill-rule="evenodd" xlink:href="#path-1"></use>
                    </g>
                    <path d="M159.7589,186.5604 L246.8699,236.8524 C247.5529,237.2474 248.3939,237.2474 249.0759,236.8524 L336.1929,186.5604 C337.6629,185.7104 337.6639,183.5874 336.1929,182.7394 L249.0829,132.4414 C248.4009,132.0474 247.5599,132.0474 246.8769,132.4414 L159.7589,182.7394 C158.2879,183.5884 158.2879,185.7114 159.7589,186.5604" id="Fill-6" fill="#FFFFFF"></path>
                    <path d="M335.9483,216.3944 L248.8323,266.6874 C248.3003,266.9944 247.6363,266.9984 247.1003,266.6874 L159.9903,216.3964 C159.4463,216.0824 159.1213,215.5204 159.1253,214.8884 L159.125264,186.6704 C159.2513,186.7774 159.3733,186.8884 159.5203,186.9734 L246.6333,237.2644 C247.0473,237.5014 247.5103,237.6214 247.9723,237.6214 C248.4363,237.6214 248.9013,237.5014 249.3133,237.2644 L336.4303,186.9714 C336.5713,186.8894 336.6883,186.7844 336.8093,186.6824 L336.8113,214.7874 C336.8513,215.4484 336.5213,216.0644 335.9483,216.3944 M159.9963,183.1514 L247.1153,132.8524 C247.6493,132.5444 248.3103,132.5424 248.8453,132.8544 L335.9553,183.1514 C336.4973,183.4624 336.8193,184.0224 336.8203,184.6474 L336.8093,184.6474 L336.8093,184.7354 C336.7803,185.3254 336.4713,185.8504 335.9553,186.1474 L248.8383,236.4404 C248.3023,236.7484 247.6423,236.7484 247.1073,236.4404 L159.9963,186.1494 C159.4543,185.8354 159.1313,185.2774 159.1313,184.6494 C159.1313,184.0234 159.4543,183.4624 159.9963,183.1514 M337.7703,184.6494 C337.7703,183.6804 337.2693,182.8114 336.4303,182.3274 L249.3203,132.0304 C248.4943,131.5514 247.4663,131.5514 246.6393,132.0304 L159.5203,182.3274 C158.7363,182.7814 158.2653,183.5724 158.2043,184.4634 L158.1753,184.4634 L158.1753,214.8864 C158.1693,215.8604 158.6703,216.7324 159.5143,217.2204 L246.6253,267.5114 C247.0393,267.7484 247.5033,267.8684 247.9663,267.8684 C248.4293,267.8684 248.8933,267.7484 249.3073,267.5114 L336.4233,217.2184 C337.3123,216.7054 337.8253,215.7494 337.7603,214.7564 L337.7603,184.7354 C337.7603,184.7064 337.7703,184.6784 337.7703,184.6494" id="Fill-8" fill="#464465"></path>
                    <path d="M173.2715,210.4725 C174.4755,214.6925 172.6535,215.7415 169.5775,212.6125 C168.8255,211.8475 168.2265,210.8195 167.9325,209.7905 C166.7285,205.5715 168.5495,204.5225 171.6265,207.6515 C172.3775,208.4145 172.9775,209.4445 173.2715,210.4725" id="Fill-10" fill="#464465"></path>
                    <path d="M213.8956,236.2225 L176.6586,214.7245 C176.3876,214.5685 176.1696,213.9515 176.1696,213.3455 C176.1696,212.7405 176.3876,212.3755 176.6586,212.5315 L213.8956,234.0305 C214.1656,234.1865 214.3836,234.8025 214.3836,235.4095 C214.3836,236.0145 214.1656,236.3785 213.8956,236.2225" id="Fill-12" fill="#464465"></path>
                    <path d="M238.5215,246.4696 L227.9025,240.3386 C227.8265,240.2936 227.7635,240.0136 227.7635,239.7096 C227.7635,239.4076 227.8265,239.1986 227.9025,239.2416 L238.5215,245.3726 C238.5975,245.4166 238.6605,245.6986 238.6605,246.0016 C238.6605,246.3046 238.5975,246.5136 238.5215,246.4696" id="Fill-14" fill="#464465"></path>
                    <path d="M238.5215,249.8924 L227.9025,243.7624 C227.8265,243.7174 227.7635,243.4364 227.7635,243.1334 C227.7635,242.8304 227.8265,242.6214 227.9025,242.6654 L238.5215,248.7964 C238.5975,248.8404 238.6605,249.1214 238.6605,249.4244 C238.6605,249.7284 238.5975,249.9374 238.5215,249.8924" id="Fill-16" fill="#464465"></path>
                    <path d="M238.5215,253.3163 L227.9025,247.1853 C227.8265,247.1413 227.7635,246.8603 227.7635,246.5573 C227.7635,246.2543 227.8265,246.0453 227.9025,246.0893 L238.5215,252.2193 C238.5975,252.2643 238.6605,252.5453 238.6605,252.8483 C238.6605,253.1513 238.5975,253.3613 238.5215,253.3163" id="Fill-18" fill="#464465"></path>
                    <path d="M221.1797,241.2508 L218.7227,239.8318 C218.4777,239.6908 218.2797,239.3118 218.2797,238.9848 L218.2797,236.3298 C218.2797,236.0038 218.4777,235.8548 218.7227,235.9948 L221.1797,237.4138 C221.4247,237.5558 221.6227,237.9348 221.6227,238.2608 L221.6227,240.9158 C221.6227,241.2418 221.4247,241.3928 221.1797,241.2508" id="Fill-20" fill="#464465"></path>
                    <g id="Fill-22">
                        <use fill="black" fill-opacity="1" filter="url(#filter-4)" xlink:href="#path-3"></use>
                        <use fill="#F4F4F7" fill-rule="evenodd" xlink:href="#path-3"></use>
                    </g>
                    <path d="M1.584,95.3573 L88.695,145.6493 C89.378,146.0433 90.219,146.0433 90.901,145.6493 L178.019,95.3563 C179.489,94.5073 179.489,92.3843 178.019,91.5353 L90.909,41.2383 C90.227,40.8443 89.385,40.8443 88.702,41.2383 L1.584,91.5363 C0.113,92.3853 0.113,94.5083 1.584,95.3573" id="Fill-24" fill="#FFFFFF"></path>
                    <path d="M177.7755,125.1913 L90.6575,175.4843 C90.1235,175.7923 89.4585,175.7923 88.9275,175.4843 L1.8155,125.1933 C1.2715,124.8793 0.9475,124.3163 0.9505,123.6853 L0.950479347,95.4663 C1.0765,95.5743 1.1995,95.6843 1.3455,95.7703 L88.4585,146.0613 C88.8725,146.2983 89.3365,146.4183 89.7975,146.4183 C90.2615,146.4183 90.7265,146.2983 91.1385,146.0613 L178.2555,95.7683 C178.3965,95.6863 178.5135,95.5803 178.6345,95.4783 L178.6365,123.5833 C178.6775,124.2443 178.3465,124.8603 177.7755,125.1913 M1.8215,91.9483 L88.9405,41.6493 C89.4745,41.3403 90.1355,41.3383 90.6715,41.6513 L177.7805,91.9483 C178.3225,92.2583 178.6445,92.8193 178.6455,93.4443 L178.6345,93.4443 L178.6345,93.5323 C178.6055,94.1223 178.2965,94.6473 177.7805,94.9443 L90.6635,145.2373 C90.1295,145.5453 89.4675,145.5453 88.9325,145.2373 L1.8215,94.9463 C1.2795,94.6313 0.9565,94.0733 0.9565,93.4463 C0.9565,92.8203 1.2795,92.2593 1.8215,91.9483 M179.5965,93.4463 C179.5965,92.4763 179.0945,91.6083 178.2555,91.1243 L91.1475,40.8293 C90.3195,40.3453 89.2895,40.3473 88.4645,40.8273 L1.3455,91.1243 C0.5625,91.5783 0.0905,92.3693 0.0295,93.2603 L0.0005,93.2603 L0.0005,123.6833 C-0.0055,124.6563 0.4965,125.5293 1.3405,126.0173 L88.4525,176.3083 C88.8645,176.5453 89.3285,176.6653 89.7935,176.6653 C90.2545,176.6653 90.7185,176.5453 91.1325,176.3083 L178.2505,126.0153 C179.1375,125.5013 179.6485,124.5463 179.5855,123.5533 L179.5855,93.5323 C179.5865,93.5033 179.5965,93.4753 179.5965,93.4463" id="Fill-26" fill="#464465"></path>
                    <path d="M15.0967,119.2684 C16.3007,123.4894 14.4797,124.5384 11.4027,121.4084 C10.6517,120.6444 10.0517,119.6164 9.7577,118.5874 C8.5537,114.3674 10.3757,113.3184 13.4517,116.4484 C14.2037,117.2114 14.8027,118.2404 15.0967,119.2684" id="Fill-28" fill="#464465"></path>
                    <path d="M55.7208,145.0194 L18.4838,123.5204 C18.2138,123.3654 17.9948,122.7484 17.9948,122.1424 C17.9948,121.5374 18.2138,121.1724 18.4838,121.3284 L55.7208,142.8274 C55.9908,142.9834 56.2088,143.5994 56.2088,144.2054 C56.2088,144.8114 55.9908,145.1754 55.7208,145.0194" id="Fill-30" fill="#464465"></path>
                    <path d="M80.3467,155.2655 L69.7287,149.1355 C69.6517,149.0905 69.5887,148.8095 69.5887,148.5065 C69.5887,148.2035 69.6517,147.9945 69.7287,148.0385 L80.3467,154.1695 C80.4237,154.2135 80.4857,154.4945 80.4857,154.7975 C80.4857,155.1015 80.4237,155.3105 80.3467,155.2655" id="Fill-32" fill="#464465"></path>
                    <path d="M80.3467,158.6893 L69.7287,152.5583 C69.6517,152.5143 69.5887,152.2333 69.5887,151.9303 C69.5887,151.6273 69.6517,151.4183 69.7287,151.4623 L80.3467,157.5923 C80.4237,157.6373 80.4857,157.9183 80.4857,158.2213 C80.4857,158.5243 80.4237,158.7343 80.3467,158.6893" id="Fill-34" fill="#464465"></path>
                    <path d="M80.3467,162.1131 L69.7287,155.9821 C69.6517,155.9381 69.5887,155.6571 69.5887,155.3531 C69.5887,155.0511 69.6517,154.8421 69.7287,154.8861 L80.3467,161.0161 C80.4237,161.0611 80.4857,161.3421 80.4857,161.6451 C80.4857,161.9481 80.4237,162.1571 80.3467,162.1131" id="Fill-36" fill="#464465"></path>
                    <path d="M63.0049,150.0477 L60.5479,148.6287 C60.3029,148.4867 60.1049,148.1087 60.1049,147.7817 L60.1049,145.1267 C60.1049,144.8007 60.3029,144.6507 60.5479,144.7917 L63.0049,146.2107 C63.2499,146.3527 63.4479,146.7317 63.4479,147.0577 L63.4479,149.7127 C63.4479,150.0387 63.2499,150.1897 63.0049,150.0477" id="Fill-38" fill="#464465"></path>
                    <g id="Fill-40">
                        <use fill="black" fill-opacity="1" filter="url(#filter-6)" xlink:href="#path-5"></use>
                        <use fill="#F4F4F7" fill-rule="evenodd" xlink:href="#path-5"></use>
                    </g>
                    <path d="M92.461,56.1268 L179.572,106.4188 C180.255,106.8128 181.096,106.8128 181.778,106.4188 L268.896,56.1258 C270.366,55.2768 270.366,53.1538 268.896,52.3048 L181.786,2.0078 C181.104,1.6128 180.262,1.6128 179.579,2.0078 L92.461,52.3058 C90.99,53.1548 90.99,55.2778 92.461,56.1268" id="Fill-42" fill="#FFFFFF"></path>
                    <path d="M268.6514,85.9608 L181.5344,136.2538 C181.0004,136.5618 180.3354,136.5618 179.8034,136.2538 L92.6924,85.9628 C92.1484,85.6488 91.8234,85.0858 91.8274,84.4548 L91.8273635,56.2358 C91.9534,56.3438 92.0754,56.4538 92.2224,56.5398 L179.3344,106.8308 C179.7484,107.0678 180.2134,107.1878 180.6744,107.1878 C181.1384,107.1878 181.6024,107.0678 182.0154,106.8308 L269.1324,56.5378 C269.2744,56.4558 269.3914,56.3488 269.5124,56.2468 L269.5124,84.3538 C269.5554,85.0248 269.2324,85.6268 268.6514,85.9608 M92.6984,52.7178 L179.8174,2.4208 C180.3514,2.1078 181.0124,2.1078 181.5474,2.4208 L268.6574,52.7178 C269.1994,53.0288 269.5214,53.5888 269.5224,54.2138 L269.5124,54.2138 L269.5124,54.2868 C269.4884,54.8828 269.1774,55.4138 268.6574,55.7138 L181.5404,106.0068 C181.0054,106.3148 180.3444,106.3148 179.8094,106.0068 L92.6984,55.7158 C92.1564,55.4008 91.8334,54.8428 91.8334,54.2158 C91.8334,53.5898 92.1564,53.0288 92.6984,52.7178 M270.4724,54.2158 C270.4724,53.2458 269.9714,52.3778 269.1324,51.8938 L182.0244,1.5988 C181.1984,1.1148 180.1724,1.1168 179.3414,1.5968 L92.2224,51.8938 C91.4394,52.3468 90.9684,53.1378 90.9064,54.0278 L90.8774,54.0278 L90.8774,84.4528 C90.8714,85.4258 91.3724,86.2988 92.2164,86.7868 L179.3294,137.0778 C179.7414,137.3148 180.2054,137.4348 180.6694,137.4348 C181.1314,137.4348 181.5954,137.3148 182.0094,137.0778 L269.1274,86.7848 C270.0144,86.2728 270.5244,85.3178 270.4634,84.3228 L270.4634,54.2868 C270.4634,54.2628 270.4724,54.2398 270.4724,54.2158" id="Fill-44" fill="#464465"></path>
                    <path d="M105.9737,80.0379 C107.1777,84.2589 105.3567,85.3069 102.2797,82.1779 C101.5287,81.4139 100.9287,80.3849 100.6347,79.3559 C99.4307,75.1369 101.2527,74.0879 104.3287,77.2179 C105.0807,77.9809 105.6797,79.0099 105.9737,80.0379" id="Fill-46" fill="#464465"></path>
                    <path d="M146.5977,105.7889 L109.3607,84.2899 C109.0907,84.1349 108.8717,83.5179 108.8717,82.9119 C108.8717,82.3059 109.0907,81.9409 109.3607,82.0979 L146.5977,103.5969 C146.8677,103.7529 147.0857,104.3689 147.0857,104.9749 C147.0857,105.5809 146.8677,105.9449 146.5977,105.7889" id="Fill-48" fill="#464465"></path>
                    <path d="M171.2237,116.035 L160.6057,109.904 C160.5287,109.86 160.4657,109.579 160.4657,109.276 C160.4657,108.973 160.5287,108.764 160.6057,108.808 L171.2237,114.939 C171.3007,114.983 171.3627,115.264 171.3627,115.567 C171.3627,115.87 171.3007,116.08 171.2237,116.035" id="Fill-50" fill="#464465"></path>
                    <path d="M171.2237,119.4588 L160.6057,113.3278 C160.5287,113.2838 160.4657,113.0028 160.4657,112.6998 C160.4657,112.3968 160.5287,112.1878 160.6057,112.2318 L171.2237,118.3618 C171.3007,118.4068 171.3627,118.6878 171.3627,118.9908 C171.3627,119.2938 171.3007,119.5028 171.2237,119.4588" id="Fill-52" fill="#464465"></path>
                    <path d="M171.2237,122.8827 L160.6057,116.7517 C160.5287,116.7067 160.4657,116.4267 160.4657,116.1227 C160.4657,115.8207 160.5287,115.6117 160.6057,115.6547 L171.2237,121.7857 C171.3007,121.8307 171.3627,122.1117 171.3627,122.4147 C171.3627,122.7177 171.3007,122.9267 171.2237,122.8827" id="Fill-54" fill="#464465"></path>
                    <path d="M153.8819,110.8172 L151.4249,109.3982 C151.1799,109.2562 150.9819,108.8782 150.9819,108.5512 L150.9819,105.8962 C150.9819,105.5702 151.1799,105.4202 151.4249,105.5612 L153.8819,106.9802 C154.1269,107.1212 154.3249,107.5012 154.3249,107.8272 L154.3249,110.4822 C154.3249,110.8082 154.1269,110.9582 153.8819,110.8172" id="Fill-56" fill="#464465"></path>
                    <path d="M252.9649,150.4891 C252.9649,151.1141 252.5119,151.7211 251.6859,152.1971 C249.7839,153.2921 246.6869,153.2901 244.7749,152.1831 C243.9339,151.6991 243.4709,151.0831 243.4709,150.4521 C243.4709,149.8261 243.9259,149.2181 244.7519,148.7441 C245.6959,148.1981 246.9409,147.9251 248.1869,147.9251 C249.4439,147.9251 250.7019,148.2021 251.6609,148.7571 C252.5029,149.2411 252.9649,149.8571 252.9649,150.4891 M160.9939,34.5221 C159.0959,35.6191 155.9949,35.6121 154.0849,34.5081 C153.2439,34.0231 152.7809,33.4081 152.7809,32.7751 C152.7809,32.1511 153.2359,31.5451 154.0629,31.0691 C155.0079,30.5231 156.2499,30.2511 157.4949,30.2511 C158.7519,30.2511 160.0129,30.5271 160.9729,31.0821 C161.8139,31.5671 162.2759,32.1811 162.2759,32.8121 C162.2759,33.4381 161.8199,34.0451 160.9939,34.5221 M358.8119,83.0511 L215.5129,0.3171 C214.7809,-0.1059 213.8679,-0.1059 213.1369,0.3171 L161.3469,30.2101 C161.3789,30.2271 161.4159,30.2391 161.4469,30.2581 C159.2359,28.9821 155.7829,28.9771 153.5869,30.2451 C152.4549,30.8981 151.8309,31.7971 151.8309,32.7751 C151.8309,33.7611 152.4619,34.6691 153.6099,35.3321 C154.7199,35.9721 156.1419,36.2931 157.5629,36.2931 C158.9689,36.2931 160.3749,35.9771 161.4699,35.3461 C162.6029,34.6911 163.2259,33.7911 163.2259,32.8121 C163.2259,32.0761 162.8729,31.3851 162.2169,30.8061 L213.6119,1.1411 C214.0499,0.8851 214.5999,0.8851 215.0369,1.1411 L358.3369,83.8761 C358.7819,84.1321 359.0499,84.5941 359.0499,85.1101 C359.0499,85.6251 358.7819,86.0871 358.3369,86.3431 L251.8759,147.8091 C249.6599,146.6711 246.3939,146.6981 244.2769,147.9201 C243.1449,148.5731 242.5209,149.4711 242.5209,150.4501 C242.5209,151.4351 243.1519,152.3451 244.2989,153.0081 C245.4069,153.6461 246.8289,153.9681 248.2489,153.9681 C249.6579,153.9681 251.0659,153.6521 252.1609,153.0211 C253.2929,152.3671 253.9149,151.4681 253.9149,150.4891 C253.9149,149.5031 253.2839,148.5951 252.1369,147.9321 C252.3779,148.0721 252.5829,148.2271 252.7779,148.3861 L358.8119,87.1671 C359.5549,86.7361 359.9999,85.9681 359.9999,85.1101 C359.9999,84.2511 359.5549,83.4821 358.8119,83.0511" id="Fill-58" stroke="#00A3E0"></path>
                </g>
            </g>
        </g>
    </g>
</svg>
