<svg xmlns="http://www.w3.org/2000/svg" width="539" height="175" viewBox="0 0 539 175">
  <g fill="none" fill-rule="evenodd">
    <path fill="#292D75" d="M149.066,162.266 C151.36,159.039 153.136,153.838 154.341,138.936 C155.079,129.797 155.465,118.13 155.431,106.084 C155.393,94.057 154.94,82.659 154.15,73.991 C152.852,59.695 150.997,54.067 146.52,50.825 C143.871,48.91 137.21,44.095 97.479,43.289 L97.366,43.09 C95.883,40.495 93.375,38.261 90.265,36.76 L92.902,33.921 C92.269,34.025 91.623,34.104 91.006,34.248 L87.999,31.092 L84.991,34.248 C84.375,34.104 83.731,34.025 83.099,33.921 L85.732,36.76 C82.623,38.261 80.113,40.495 78.631,43.09 L78.518,43.289 C38.787,44.095 32.126,48.91 29.478,50.825 C25,54.067 23.145,59.695 21.847,73.991 C21.056,82.659 20.605,94.057 20.566,106.084 C20.532,118.13 20.917,129.797 21.657,138.936 C22.861,153.838 24.637,159.039 26.931,162.266 C30.764,167.65 38.557,170.753 52.981,172.637 C60.63,173.637 75.131,174.266 87.999,174.494 C100.866,174.266 115.366,173.637 123.015,172.637 C137.441,170.753 145.233,167.65 149.066,162.266"/>
    <path fill="#E15F2E" d="M87.999 31.092L91.006 34.248C91.623 34.104 92.27 34.025 92.902 33.921L113.248 11.979C113.706 12.093 114.17 12.147 114.629 12.147 117.846 12.147 120.462 9.568 120.462 6.396 120.462 3.223 117.846.642 114.629.642 111.412.642 108.795 3.223 108.795 6.396 108.795 7.208 108.966 7.992 109.307 8.734M52.982 172.637C38.557 170.753 30.765 167.65 26.931 162.266 24.637 159.039 22.861 153.838 21.657 138.936 20.918 129.797 20.532 118.13 20.566 106.084 20.605 94.057 21.057 82.659 21.847 73.991 23.145 59.695 25 54.067 29.478 50.825 32.126 48.91 38.787 44.095 78.518 43.289L78.631 43.09C80.114 40.495 82.623 38.261 85.732 36.76L83.099 33.921C81.471 33.651 79.813 33.465 78.114 33.447L77.751 33.447C75.392 33.473 73.077 33.731 70.875 34.248L46.558 8.734C46.899 7.992 47.07 7.208 47.07 6.396 47.07 3.223 44.454.642 41.237.642 38.02.642 35.404 3.223 35.404 6.396 35.404 9.568 38.02 12.147 41.237 12.147 41.695 12.147 42.16 12.093 42.618 11.979L65.601 36.76C62.491 38.261 59.982 40.495 58.5 43.09L58.386 43.289C18.655 44.095 11.994 48.91 9.346 50.825 4.869 54.067 3.014 59.695 1.715 73.991.925 82.659.473 94.057.435 106.084.4 118.13.786 129.797 1.525 138.936 2.729 153.838 4.505 159.039 6.799 162.266 10.632 167.65 18.425 170.753 32.85 172.637 42.56 173.906 63.322 174.581 77.751 174.592L77.751 174.593C77.81 174.593 77.874 174.592 77.933 174.592 77.992 174.592 78.056 174.593 78.114 174.593L78.114 174.592C81.177 174.59 84.531 174.556 87.998 174.494 75.131 174.266 60.63 173.637 52.982 172.637"/>
    <path fill="#2C9DCC" d="M66.693 8.734C67.034 7.992 67.205 7.208 67.205 6.396 67.205 3.223 64.588.642 61.372.642 58.154.642 55.538 3.223 55.538 6.396 55.538 9.568 58.154 12.147 61.372 12.147 61.83 12.147 62.294 12.093 62.752 11.979L83.099 33.921C83.731 34.025 84.377 34.104 84.994 34.248L88.001 31.092M174.285 73.991C172.986 59.695 171.132 54.067 166.654 50.825 164.006 48.91 157.345 44.095 117.614 43.289L117.5 43.09C116.018 40.495 113.509 38.261 110.4 36.76L133.382 11.979C133.84 12.093 134.305 12.147 134.763 12.147 137.98 12.147 140.597 9.568 140.597 6.396 140.597 3.223 137.98.642 134.763.642 131.546.642 128.93 3.223 128.93 6.396 128.93 7.208 129.101 7.992 129.442 8.734L105.125 34.248C102.923 33.731 100.608 33.473 98.249 33.447L97.886 33.447C96.187 33.465 94.529 33.651 92.902 33.921L90.268 36.76C93.377 38.261 95.886 40.495 97.369 43.09L97.482 43.289C137.213 44.095 143.874 48.91 146.522 50.825 151 54.067 152.854 59.695 154.153 73.991 154.943 82.659 155.395 94.057 155.434 106.084 155.468 118.13 155.082 129.797 154.344 138.936 153.139 153.838 151.363 159.039 149.069 162.266 145.236 167.65 137.444 170.753 123.018 172.637 115.37 173.637 100.869 174.266 88.002 174.494 91.469 174.556 94.824 174.59 97.886 174.592L97.886 174.593C97.945 174.593 98.008 174.592 98.067 174.592 98.126 174.592 98.19 174.593 98.249 174.593L98.249 174.592C112.678 174.581 133.44 173.906 143.15 172.637 157.575 170.753 165.368 167.65 169.201 162.266 171.495 159.039 173.27 153.838 174.475 138.936 175.214 129.797 175.6 118.13 175.565 106.084 175.527 94.057 175.075 82.659 174.285 73.991"/>
    <polygon fill="#FFFFFE" points="43.757 146.682 71.267 146.682 71.267 70.983 43.757 70.983"/>
    <polyline fill="#FFFFFE" points="78.79 70.983 136.62 70.983 136.62 95.581 121.459 94.878 121.459 146.682 93.95 146.682 93.95 94.878 78.79 95.581 78.79 70.983"/>
    <polygon fill="#292D75" points="213.319 136.665 226.603 136.665 226.603 85.559 213.319 85.559"/>
    <polyline fill="#292D75" points="264.681 136.665 251.395 136.665 251.395 96.811 240.416 96.811 240.416 85.559 275.659 85.559 275.659 96.811 264.681 96.811 264.681 136.665"/>
    <path fill="#292D75" d="M303.708 109.01L305.945 109.01C310.759 109.01 315.503 109.01 315.503 102.776 315.503 96.337 311.097 96.27 305.945 96.27L303.708 96.27 303.708 109.01zM290.425 85.559L310.759 85.559C321.737 85.559 329.328 90.643 329.328 102.369 329.328 114.435 322.821 119.721 311.231 119.721L303.708 119.721 303.708 136.665 290.425 136.665 290.425 85.559zM358.464 108.469L359.753 108.469C364.091 108.469 368.97 107.655 368.97 102.099 368.97 96.54 364.091 95.726 359.753 95.726L358.464 95.726 358.464 108.469zM387.676 136.665L371.139 136.665 358.6 117.008 358.464 117.008 358.464 136.665 345.18 136.665 345.18 85.559 365.038 85.559C375.138 85.559 382.797 90.372 382.797 101.285 382.797 108.333 378.866 114.435 371.613 115.722L387.676 136.665zM410.221 110.23C410.221 119.043 416.728 125.481 424.657 125.481 432.588 125.481 439.095 119.043 439.095 110.23 439.095 103.183 432.588 96.742 424.657 96.742 416.728 96.742 410.221 103.183 410.221 110.23zM452.922 110.163C452.922 126.702 441.061 138.358 424.657 138.358 408.255 138.358 396.394 126.702 396.394 110.163 396.394 94.71 409.95 83.865 424.657 83.865 439.365 83.865 452.922 94.71 452.922 110.163zM461.882 133.086C461.882 135.062 460.28 136.663 458.306 136.663 456.33 136.663 454.729 135.062 454.729 133.086 454.729 131.11 456.33 129.509 458.306 129.509 460.28 129.509 461.882 131.11 461.882 133.086"/>
    <polyline fill="#292D75" points="525.132 85.559 515.748 116.604 506.425 85.559 463.501 85.559 463.501 96.811 474.479 96.811 474.479 136.665 487.766 136.665 487.766 96.811 496.819 96.811 510.784 136.665 520.454 136.665 538.681 85.559 525.132 85.559"/>
  </g>
</svg>
