<?xml version="1.0" encoding="UTF-8"?>
<svg width="70px" height="70px" viewBox="0 0 70 70" version="1.1" xmlns="http://www.w3.org/2000/svg" xmlns:xlink="http://www.w3.org/1999/xlink">
    <!-- Generator: Sketch 48.2 (47327) - http://www.bohemiancoding.com/sketch -->
    <title>logo_white</title>
    <desc>Created with Sketch.</desc>
    <defs></defs>
    <g id="Home" stroke="none" stroke-width="1" fill="none" fill-rule="evenodd" transform="translate(-213.000000, -4580.000000)">
        <g id="footer" transform="translate(0.000000, 4514.000000)" fill="#FEFEFE">
            <g id="logo" transform="translate(208.000000, 60.000000)">
                <g id="logo_white" transform="translate(5.600000, 6.400000)">
                    <path d="M69.21272,41.6712 C69.19752,36.9176 69.01912,32.4136 68.70712,28.988 C68.19352,23.3384 67.46072,21.1136 65.69112,19.8328 C64.64472,19.076 62.01192,17.1728 46.31032,16.8544 L46.26552,16.7752 C45.67992,15.7504 44.68792,14.8672 43.45912,14.2736 L52.54152,4.4808 C52.72312,4.5256 52.90632,4.5464 53.08792,4.5464 C54.35912,4.5464 55.39352,3.528 55.39352,2.2736 C55.39352,1.02 54.35912,0 53.08792,0 C51.81592,0 50.78232,1.02 50.78232,2.2736 C50.78232,2.5952 50.84952,2.9048 50.98472,3.1984 L41.37512,13.2808 C40.50472,13.0768 39.58952,12.9744 38.65752,12.9648 L38.51352,12.9648 C37.84232,12.972 37.18712,13.0456 36.54392,13.152 L36.53352,13.1632 L36.53352,13.1536 C36.53672,13.1528 36.54072,13.152 36.54392,13.152 L44.58472,4.4808 C44.76552,4.5256 44.94952,4.5464 45.13032,4.5464 C46.40152,4.5464 47.43592,3.528 47.43592,2.2736 C47.43592,1.02 46.40152,0 45.13032,0 C43.85912,0 42.82472,1.02 42.82472,2.2736 C42.82472,2.5952 42.89272,2.9048 43.02712,3.1984 L34.60712,12.0336 L26.18632,3.1984 C26.32072,2.9048 26.38872,2.5952 26.38872,2.2736 C26.38872,1.02 25.35432,0 24.08312,0 C22.81112,0 21.77752,1.02 21.77752,2.2736 C21.77752,3.528 22.81112,4.5464 24.08312,4.5464 C24.26392,4.5464 24.44792,4.5256 24.62872,4.4808 L32.66952,13.152 C32.68952,13.1552 32.66952,13.152 32.66952,13.152 C32.02632,13.0456 31.37112,12.972 30.69992,12.9648 L30.55592,12.9648 C29.62392,12.9744 28.70872,13.0768 27.83832,13.2808 L18.22872,3.1984 C18.36312,2.9048 18.43112,2.5952 18.43112,2.2736 C18.43112,1.02 17.39752,0 16.12552,0 C14.85432,0 13.82072,1.02 13.82072,2.2736 C13.82072,3.528 14.85432,4.5464 16.12552,4.5464 C16.30712,4.5464 16.49032,4.5256 16.67192,4.4808 L25.75432,14.2736 C24.52552,14.8672 23.53352,15.7504 22.94792,16.7752 L22.90312,16.8544 C7.20152,17.1728 4.56872,19.076 3.52232,19.8328 C1.75272,21.1136 1.01992,23.3384 0.50632,28.988 C0.19432,32.4136 0.01592,36.9176 0.00072,41.6712 C-0.01288,46.4312 0.13912,51.0424 0.43192,54.6544 C0.90712,60.5432 1.60952,62.5992 2.51592,63.8744 C4.03112,66.0024 7.11032,67.2288 12.81112,67.9728 C16.64872,68.4744 24.85352,68.7408 30.55592,68.7456 L30.62792,68.7456 L30.69992,68.7456 C31.91032,68.7448 33.23592,68.7312 34.60632,68.7064 C29.52072,68.6168 23.79032,68.368 20.76712,67.9728 C15.06632,67.2288 11.98712,66.0024 10.47192,63.8744 C9.56552,62.5992 8.86312,60.5432 8.38792,54.6544 C8.09512,51.0424 7.94312,46.4312 7.95672,41.6712 C7.97192,36.9176 8.15032,32.4136 8.46312,28.988 C8.97592,23.3384 9.70872,21.1136 11.47832,19.8328 C12.52552,19.076 15.15752,17.1728 30.85912,16.8544 C30.85912,16.8544 33.66792,16.7976 34.44232,16.7976 C35.21592,16.7976 38.35432,16.8544 38.35432,16.8544 C54.05592,17.1728 56.68872,19.076 57.73512,19.8328 C59.50472,21.1136 60.23752,23.3384 60.75112,28.988 C61.06312,32.4136 61.24152,36.9176 61.25672,41.6712 C61.27032,46.4312 61.11752,51.0424 60.82552,54.6544 C60.34952,60.5432 59.64792,62.5992 58.74152,63.8744 C57.22632,66.0024 54.14712,67.2288 48.44632,67.9728 C45.42312,68.368 39.69272,68.6168 34.60712,68.7064 C35.97752,68.7312 37.30392,68.7448 38.51352,68.7456 L38.58552,68.7456 L38.65752,68.7456 C44.35992,68.7408 52.56472,68.4744 56.40232,67.9728 C62.10312,67.2288 65.18312,66.0024 66.69752,63.8744 C67.60392,62.5992 68.30632,60.5432 68.78232,54.6544 C69.07432,51.0424 69.22632,46.4312 69.21272,41.6712" id="Fill-1"></path>
                    <polygon id="Fill-4" points="17.1216 57.7152 27.9936 57.7152 27.9936 27.7992 17.1216 27.7992"></polygon>
                    <polygon id="Fill-6" points="47.82992 57.71536 47.82992 37.24256 53.82192 37.52016 53.82192 27.79936 30.96672 27.79936 30.96672 37.52016 36.95792 37.24256 36.95792 57.71536"></polygon>
                </g>
            </g>
        </g>
    </g>
</svg>