<?xml version="1.0" encoding="UTF-8"?>
<svg width="2620px" height="992px" viewBox="0 0 2620 992" version="1.1" xmlns="http://www.w3.org/2000/svg" xmlns:xlink="http://www.w3.org/1999/xlink">
    <!-- Generator: Sketch 49.1 (51147) - http://www.bohemiancoding.com/sketch -->
    <title>pattern_lightgray</title>
    <desc>Created with Sketch.</desc>
    <defs></defs>
    <g id="Page-1" stroke="none" stroke-width="1" fill="none" fill-rule="evenodd">
        <g id="patterns" transform="translate(-412.000000, -122.000000)" fill="#F0EFEF">
            <g id="pattern_lightgray" transform="translate(411.000000, 122.000000)">
                <path d="M660.578785,351.131452 C657.043862,353.17346 651.276169,353.159304 647.716477,351.10314 C646.152477,350.200694 645.292631,349.057594 645.292631,347.879105 C645.292631,346.718311 646.138323,345.589367 647.674015,344.704616 C649.432631,343.685382 651.743246,343.179304 654.064477,343.179304 C656.4034,343.179304 658.745862,343.69246 660.536323,344.72585 C662.100323,345.628296 662.960169,346.774935 662.960169,347.949885 C662.963708,349.114218 662.118015,350.243162 660.578785,351.131452 M306.2974,384.383963 C306.2974,385.551835 305.451708,386.680779 303.916015,387.56553 C300.388169,389.607538 294.616938,389.596921 291.053708,387.540757 C289.489708,386.638311 288.629862,385.491672 288.629862,384.313183 C288.629862,383.152389 289.475554,382.023445 291.011246,381.138694 C292.769862,380.11946 295.084015,379.613382 297.405246,379.613382 C299.740631,379.613382 302.086631,380.126538 303.873554,381.159928 C305.437554,382.062374 306.2974,383.209013 306.2974,384.383963 M661.420938,343.19346 C657.298631,340.815247 650.872785,340.808169 646.7894,343.168687 C644.680477,344.386105 643.5234,346.056516 643.5234,347.879105 C643.5234,349.330098 644.280631,350.67846 645.6394,351.793247 L528.367708,419.508609 L383.793246,336.02697 C382.430938,335.241311 380.736015,335.241311 379.370169,336.02697 L304.2734,379.393963 C300.151092,377.277637 294.0614,377.327183 290.126631,379.602765 C288.021246,380.820183 286.860631,382.490594 286.860631,384.313183 C286.857092,386.149928 288.0354,387.838034 290.169092,389.076687 C292.235554,390.269332 294.882323,390.863885 297.522015,390.863885 C300.147554,390.863885 302.762477,390.27641 304.800631,389.10146 C306.909554,387.884041 308.066631,386.206552 308.066631,384.383963 C308.066631,382.936509 307.312938,381.588148 305.950631,380.47336 L380.254785,337.562899 C381.075708,337.085133 382.091246,337.085133 382.908631,337.562899 L527.9254,421.299346 C528.059862,421.380743 528.215554,421.416133 528.367708,421.416133 C528.519862,421.416133 528.672015,421.380743 528.810015,421.299346 L647.316631,352.869105 C649.308785,353.891878 651.739708,354.429807 654.188323,354.429807 C656.810323,354.429807 659.425246,353.842332 661.4634,352.667382 C663.572323,351.446424 664.732938,349.772474 664.7294,347.949885 C664.7294,346.11314 663.554631,344.425034 661.420938,343.19346" id="Fill-1"></path>
                <path d="M2616.46163,897.500001 C2612.93025,899.542008 2607.15902,899.527852 2603.59932,897.471689 C2602.03532,896.569242 2601.17548,895.426143 2601.17548,894.247653 C2601.17548,893.086859 2602.02117,891.957916 2603.5604,891.073164 C2605.31902,890.05393 2607.62963,889.547852 2609.94732,889.547852 C2612.28625,889.547852 2614.62871,890.061008 2616.41917,891.094398 C2617.98317,891.996845 2618.84655,893.143483 2618.84655,894.318433 C2618.84655,895.482767 2618.00086,896.61171 2616.46163,897.500001 M2262.18378,930.752511 C2262.18378,931.920384 2261.33809,933.049327 2259.79886,933.934079 C2256.27102,935.976086 2250.49978,935.965469 2246.93655,933.909306 C2245.37255,933.006859 2244.51271,931.860221 2244.51271,930.681731 C2244.51271,929.520937 2245.3584,928.391994 2246.89763,927.507242 C2248.65625,926.488008 2250.96686,925.98193 2253.28809,925.98193 C2255.62348,925.98193 2257.96948,926.495086 2259.7564,927.528476 C2261.32394,928.430923 2262.18378,929.577561 2262.18378,930.752511 M2617.30378,889.562008 C2613.18148,887.183795 2606.75917,887.176717 2602.67578,889.537235 C2600.56686,890.754653 2599.40625,892.425065 2599.40625,894.247653 C2599.40625,895.695107 2600.16702,897.043469 2601.52225,898.161795 L2484.25055,965.877157 L2339.67609,882.395518 C2338.31378,881.609859 2336.61886,881.609859 2335.25302,882.395518 L2260.15625,925.762511 C2256.03394,923.642646 2249.94778,923.695731 2246.01302,925.971313 C2243.90409,927.188731 2242.74348,928.859143 2242.74348,930.681731 C2242.74348,932.518476 2243.91825,934.206582 2246.05194,935.445235 C2248.1184,936.63788 2250.76517,937.232433 2253.40486,937.232433 C2256.0304,937.232433 2258.64886,936.644958 2260.68348,935.470008 C2262.7924,934.252589 2263.95302,932.5751 2263.95302,930.752511 C2263.95302,929.301518 2263.19225,927.953157 2261.83348,926.841909 L2336.13763,883.931448 C2336.95855,883.453682 2337.97409,883.453682 2338.79148,883.931448 L2483.80825,967.667894 C2483.94625,967.749291 2484.0984,967.784682 2484.25055,967.784682 C2484.40271,967.784682 2484.5584,967.749291 2484.69286,967.667894 L2603.20302,899.237653 C2605.18809,900.260426 2607.62609,900.798355 2610.07117,900.798355 C2612.69671,900.798355 2615.31163,900.21088 2617.34625,899.03593 C2619.45517,897.814972 2620.61578,896.141022 2620.61578,894.318433 C2620.61578,892.481689 2619.43748,890.793582 2617.30378,889.562008" id="Fill-3"></path>
                <path d="M1228.11652,120.791637 C1224.5816,122.833644 1218.81391,122.819488 1215.25422,120.763325 C1213.69022,119.860878 1212.83037,118.717779 1212.83037,117.539289 C1212.83037,116.378495 1213.67606,115.249552 1215.21175,114.3648 C1216.97037,113.345566 1219.28098,112.839488 1221.60222,112.839488 C1223.94114,112.839488 1226.2836,113.352644 1228.07406,114.386034 C1229.63806,115.288481 1230.49791,116.435119 1230.49791,117.61007 C1230.50145,118.774403 1229.65575,119.903346 1228.11652,120.791637 M873.835138,154.044148 C873.835138,155.21202 872.989446,156.340963 871.453754,157.225715 C867.925908,159.267722 862.154677,159.257105 858.591446,157.200942 C857.027446,156.298495 856.1676,155.151857 856.1676,153.973367 C856.1676,152.812573 857.013292,151.68363 858.548985,150.798878 C860.3076,149.779644 862.621754,149.273566 864.942985,149.273566 C867.278369,149.273566 869.624369,149.786722 871.411292,150.820112 C872.975292,151.722559 873.835138,152.869197 873.835138,154.044148 M1228.95868,112.853644 C1224.83637,110.475431 1218.41052,110.468353 1214.32714,112.828871 C1212.21822,114.046289 1211.06114,115.716701 1211.06114,117.539289 C1211.06114,118.986743 1211.81837,120.335105 1213.17714,121.453431 L1095.90545,189.168793 L951.330985,105.687155 C949.968677,104.901495 948.273754,104.901495 946.907908,105.687155 L871.811138,149.054148 C867.688831,146.934282 861.599138,146.987367 857.664369,149.262949 C855.558985,150.480367 854.398369,152.150779 854.398369,153.973367 C854.394831,155.810112 855.573138,157.498218 857.706831,158.736871 C859.773292,159.929516 862.420062,160.52407 865.059754,160.52407 C867.685292,160.52407 870.300215,159.936594 872.338369,158.761644 C874.447292,157.544226 875.604369,155.866736 875.604369,154.044148 C875.604369,152.593155 874.847138,151.244793 873.488369,150.133545 L947.792523,107.223084 C948.613446,106.745318 949.628985,106.745318 950.446369,107.223084 L1095.46314,190.95953 C1095.5976,191.040928 1095.75329,191.076318 1095.90545,191.076318 C1096.0576,191.076318 1096.20975,191.040928 1096.34775,190.95953 L1214.85437,122.529289 C1216.84298,123.552062 1219.27745,124.089991 1221.72606,124.089991 C1224.34806,124.089991 1226.96298,123.502516 1229.00114,122.327566 C1231.11006,121.106609 1232.27068,119.432658 1232.26714,117.61007 C1232.26714,115.773325 1231.09237,114.085218 1228.95868,112.853644" id="Fill-5"></path>
                <path d="M354.977077,878.561004 C358.512,876.518997 364.279692,876.533153 367.839385,878.589316 C369.403385,879.491763 370.263231,880.634862 370.263231,881.813352 C370.263231,882.974146 369.417538,884.103089 367.881846,884.987841 C366.123231,886.007075 363.812615,886.513153 361.491385,886.513153 C359.152462,886.513153 356.81,885.999997 355.019538,884.966607 C353.455538,884.06416 352.595692,882.917522 352.595692,881.742572 C352.592154,880.578238 353.437846,879.449295 354.977077,878.561004 M709.258462,845.308494 C709.258462,844.140621 710.104154,843.011678 711.639846,842.126926 C715.167692,840.084919 720.938923,840.095536 724.502154,842.151699 C726.066154,843.054146 726.926,844.200784 726.926,845.379274 C726.926,846.540068 726.080308,847.669011 724.544615,848.553763 C722.786,849.572997 720.471846,850.079075 718.150615,850.079075 C715.815231,850.079075 713.469231,849.565919 711.682308,848.532529 C710.118308,847.630082 709.258462,846.483444 709.258462,845.308494 M354.134923,886.498997 C358.257231,888.87721 364.683077,888.884288 368.766462,886.52377 C370.875385,885.306352 372.032462,883.63594 372.032462,881.813352 C372.032462,880.365898 371.275231,879.017536 369.916462,877.89921 L487.188154,810.183848 L631.762615,893.665487 C633.124923,894.451146 634.819846,894.451146 636.185692,893.665487 L711.282462,850.298494 C715.404769,852.418359 721.494462,852.365274 725.429231,850.089692 C727.534615,848.872274 728.695231,847.201862 728.695231,845.379274 C728.698769,843.542529 727.520462,841.854423 725.386769,840.61577 C723.320308,839.423125 720.673538,838.828572 718.033846,838.828572 C715.408308,838.828572 712.793385,839.416047 710.755231,840.590997 C708.646308,841.808416 707.489231,843.485905 707.489231,845.308494 C707.489231,846.759487 708.246462,848.107848 709.605231,849.222635 L635.301077,892.129557 C634.480154,892.607323 633.464615,892.607323 632.647231,892.129557 L487.630462,808.393111 C487.496,808.311713 487.340308,808.276323 487.188154,808.276323 C487.036,808.276323 486.883846,808.311713 486.745846,808.393111 L368.239231,876.826891 C366.250615,875.800579 363.816154,875.26265 361.367538,875.26265 C358.745538,875.26265 356.130615,875.850125 354.092462,877.025075 C351.983538,878.246033 350.822923,879.919983 350.826462,881.742572 C350.826462,883.579316 352.001231,885.267423 354.134923,886.498997" id="Fill-7"></path>
                <path d="M1321.37268,951.113835 C1324.9076,949.071828 1330.67529,949.085984 1334.23498,951.142147 C1335.80252,952.044594 1336.66237,953.187693 1336.66237,954.366182 C1336.66237,955.526977 1335.81668,956.65592 1334.27745,957.540672 C1332.51883,958.559906 1330.20822,959.065984 1327.88698,959.065984 C1325.54806,959.065984 1323.2056,958.552828 1321.41514,957.519438 C1319.85114,956.616991 1318.99129,955.470352 1318.99129,954.295402 C1318.98775,953.131069 1319.83345,952.002126 1321.37268,951.113835 M1675.65406,917.861324 C1675.65406,916.693452 1676.49975,915.564509 1678.03545,914.679757 C1681.56329,912.63775 1687.33452,912.648367 1690.89775,914.70453 C1692.46529,915.606977 1693.32514,916.753615 1693.32514,917.932104 C1693.32514,919.092899 1692.47591,920.221842 1690.94022,921.106594 C1689.1816,922.125828 1686.86745,922.631906 1684.54622,922.631906 C1682.21083,922.631906 1679.86483,922.11875 1678.07791,921.08536 C1676.51391,920.182913 1675.65406,919.036274 1675.65406,917.861324 M1320.53052,959.051828 C1324.65283,961.43004 1331.07868,961.437118 1335.16206,959.076601 C1337.27098,957.859182 1338.4316,956.188771 1338.4316,954.366182 C1338.4316,952.915189 1337.67083,951.566828 1336.31206,950.45204 L1453.58729,882.736679 L1598.15822,966.218317 C1599.52406,967.003977 1601.21545,967.003977 1602.58129,966.218317 L1677.6816,922.851324 C1681.80037,924.96765 1687.89006,924.918104 1691.82483,922.642523 C1693.93375,921.425104 1695.09437,919.754693 1695.09437,917.932104 C1695.09437,916.09536 1693.9196,914.407253 1691.78237,913.168601 C1689.71591,911.975955 1687.06914,911.381402 1684.42945,911.381402 C1681.80745,911.381402 1679.18898,911.968877 1677.15083,913.143828 C1675.04545,914.361246 1673.88483,916.038735 1673.88483,917.861324 C1673.88483,919.308778 1674.63852,920.65714 1676.00083,921.771927 L1601.69668,964.682388 C1600.87929,965.160154 1599.86375,965.160154 1599.04283,964.682388 L1454.0296,880.945941 C1453.8916,880.864544 1453.73945,880.829154 1453.58729,880.829154 C1453.43514,880.829154 1453.27945,880.864544 1453.14498,880.945941 L1334.63483,949.376182 C1332.64268,948.353409 1330.21175,947.81548 1327.76314,947.81548 C1325.14114,947.81548 1322.52622,948.402955 1320.48806,949.577906 C1318.37914,950.798863 1317.21852,952.472813 1317.22206,954.295402 C1317.22206,956.132147 1318.39683,957.820253 1320.53052,959.051828" id="Fill-9"></path>
                <path d="M2036.43029,491.119001 C2039.96522,489.076994 2045.73291,489.09115 2049.2926,491.147313 C2050.8566,492.04976 2051.71645,493.19286 2051.71645,494.371349 C2051.71645,495.532143 2050.87075,496.661087 2049.33506,497.545838 C2047.57645,498.565072 2045.26583,499.07115 2042.94814,499.07115 C2040.60922,499.07115 2038.26322,498.557994 2036.47629,497.524604 C2034.90875,496.622157 2034.04891,495.475519 2034.04891,494.300569 C2034.04537,493.136235 2034.89106,492.007292 2036.43029,491.119001 M2390.71168,457.866491 C2390.71168,456.698618 2391.55737,455.569675 2393.09306,454.684923 C2396.62445,452.642916 2402.39568,452.653533 2405.95537,454.709696 C2407.51937,455.612143 2408.37922,456.758782 2408.37922,457.937271 C2408.37922,459.098065 2407.53352,460.227009 2405.99783,461.11176 C2404.23922,462.130994 2401.92506,462.637072 2399.60737,462.637072 C2397.26845,462.637072 2394.92245,462.123916 2393.13906,461.090526 C2391.57152,460.188079 2390.71168,459.041441 2390.71168,457.866491 M2035.59168,499.056994 C2039.71045,501.435207 2046.13629,501.442285 2050.21968,499.081767 C2052.3286,497.864349 2053.48568,496.193938 2053.48568,494.371349 C2053.48568,492.920356 2052.72845,491.571994 2051.36968,490.457207 L2168.64137,422.741845 L2313.21583,506.223484 C2314.57814,507.009143 2316.27306,507.009143 2317.63891,506.223484 L2392.73568,462.856491 C2396.85798,464.972817 2402.94768,464.923271 2406.88245,462.647689 C2408.98783,461.430271 2410.14845,459.75986 2410.14845,457.937271 C2410.15198,456.100526 2408.97368,454.41242 2406.83998,453.173767 C2404.77706,451.981122 2402.13029,451.386569 2399.48706,451.386569 C2396.86152,451.386569 2394.2466,451.974044 2392.20845,453.148994 C2390.09952,454.366413 2388.94245,456.043902 2388.94245,457.866491 C2388.94245,459.313945 2389.69968,460.662306 2391.06198,461.777094 L2316.75429,504.687555 C2315.93337,505.165321 2314.91783,505.165321 2314.10045,504.687555 L2169.08368,420.951108 C2168.94922,420.869711 2168.79352,420.834321 2168.64137,420.834321 C2168.48922,420.834321 2168.33706,420.869711 2168.19906,420.951108 L2049.69245,489.381349 C2047.70383,488.358576 2045.26937,487.820647 2042.82075,487.820647 C2040.19875,487.820647 2037.58383,488.408122 2035.54568,489.583072 C2033.43675,490.80403 2032.27614,492.47798 2032.27968,494.300569 C2032.27968,496.137313 2033.45445,497.82542 2035.59168,499.056994" id="Fill-11"></path>
                <path d="M1250.12823,569.454216 C1246.59331,571.496223 1240.82562,571.482067 1237.26592,569.425904 C1235.70192,568.523457 1234.84208,567.380357 1234.84208,566.201868 C1234.84208,565.041074 1235.68777,563.91213 1237.22346,563.027379 C1238.98208,562.008145 1241.29269,561.502067 1243.61392,561.502067 C1245.95285,561.502067 1248.29531,562.015223 1250.08577,563.048613 C1251.64977,563.95106 1252.50962,565.097698 1252.50962,566.272648 C1252.51315,567.436982 1251.66746,568.565925 1250.12823,569.454216 M895.846846,602.706726 C895.846846,603.874599 895.001154,605.003542 893.465462,605.888294 C889.937615,607.930301 884.166385,607.919684 880.603154,605.863521 C879.039154,604.961074 878.179308,603.814435 878.179308,602.635946 C878.179308,601.475152 879.025,600.346209 880.560692,599.461457 C882.319308,598.442223 884.633462,597.936145 886.954692,597.936145 C889.290077,597.936145 891.636077,598.449301 893.423,599.482691 C894.987,600.385138 895.846846,601.531776 895.846846,602.706726 M1250.97038,561.516223 C1246.84808,559.13801 1240.42223,559.130932 1236.33885,561.49145 C1234.22992,562.708868 1233.07285,564.379279 1233.07285,566.201868 C1233.07285,567.652861 1233.83008,569.001223 1235.18885,570.11601 L1117.91715,637.831372 L973.342692,554.349733 C971.980385,553.564074 970.285462,553.564074 968.919615,554.349733 L893.822846,597.716726 C889.700538,595.6004 883.610846,595.649946 879.676077,597.925528 C877.570692,599.142946 876.410077,600.813357 876.410077,602.635946 C876.406538,604.472691 877.584846,606.160797 879.718538,607.39945 C881.785,608.592095 884.431769,609.186648 887.071462,609.186648 C889.697,609.186648 892.311923,608.599173 894.350077,607.424223 C896.459,606.206804 897.616077,604.529315 897.616077,602.706726 C897.616077,601.259272 896.862385,599.910911 895.500077,598.796123 L969.804231,555.885662 C970.625154,555.407896 971.640692,555.407896 972.458077,555.885662 L1117.47485,639.622109 C1117.60931,639.703506 1117.765,639.738896 1117.91715,639.738896 C1118.06931,639.738896 1118.22146,639.703506 1118.35946,639.622109 L1236.86608,571.191868 C1238.85823,572.214641 1241.28915,572.75257 1243.73777,572.75257 C1246.35977,572.75257 1248.97469,572.165095 1251.01285,570.990145 C1253.12177,569.769187 1254.28238,568.095237 1254.27885,566.272648 C1254.27885,564.435904 1253.10408,562.747797 1250.97038,561.516223" id="Fill-13"></path>
                <path d="M1901.48858,337.922109 C1897.9572,339.964116 1892.18597,339.94996 1888.62628,337.893796 C1887.06228,336.99135 1886.20243,335.84825 1886.20243,334.669761 C1886.20243,333.508967 1887.04812,332.380023 1888.58735,331.495272 C1890.34597,330.476038 1892.65658,329.96996 1894.97428,329.96996 C1897.3132,329.96996 1899.65566,330.483116 1901.44612,331.516506 C1903.01012,332.418952 1903.87351,333.565591 1903.87351,334.740541 C1903.87351,335.904874 1903.02782,337.033818 1901.48858,337.922109 M1547.21074,371.174619 C1547.21074,372.342491 1546.36505,373.471435 1544.82582,374.356187 C1541.29797,376.398194 1535.52674,376.387577 1531.96351,374.331413 C1530.39951,373.428967 1529.53966,372.282328 1529.53966,371.103839 C1529.53966,369.943045 1530.38535,368.814101 1531.92458,367.92935 C1533.6832,366.910116 1535.99382,366.404038 1538.31505,366.404038 C1540.65043,366.404038 1542.99643,366.917194 1544.78335,367.950584 C1546.35089,368.85303 1547.21074,369.999669 1547.21074,371.174619 M1902.33074,329.984116 C1898.20843,327.605903 1891.78612,327.598825 1887.70274,329.959343 C1885.59382,331.176761 1884.4332,332.847172 1884.4332,334.669761 C1884.4332,336.117215 1885.19043,337.465577 1886.5492,338.583903 L1769.27751,406.299265 L1624.70305,322.817626 C1623.34074,322.031967 1621.64582,322.031967 1620.27997,322.817626 L1545.1832,366.184619 C1541.06089,364.064754 1534.9712,364.117839 1531.03997,366.393421 C1528.93105,367.610839 1527.77043,369.28125 1527.77043,371.103839 C1527.77043,372.940584 1528.9452,374.62869 1531.07889,375.867343 C1533.14535,377.059988 1535.79212,377.654541 1538.43182,377.654541 C1541.05735,377.654541 1543.67582,377.067066 1545.71043,375.892116 C1547.81935,374.674697 1548.97997,372.997208 1548.97997,371.174619 C1548.97997,369.723626 1548.2192,368.375265 1546.86043,367.260477 L1621.16458,324.353555 C1621.98551,323.875789 1623.00105,323.875789 1623.81843,324.353555 L1768.8352,408.090002 C1768.9732,408.171399 1769.12535,408.206789 1769.27751,408.206789 C1769.42966,408.206789 1769.58535,408.171399 1769.71982,408.090002 L1888.22997,339.656222 C1890.21505,340.682534 1892.64951,341.220463 1895.09812,341.220463 C1897.72366,341.220463 1900.33858,340.632988 1902.3732,339.458038 C1904.48212,338.23708 1905.64274,336.56313 1905.64274,334.740541 C1905.64274,332.903796 1904.46443,331.21569 1902.33074,329.984116" id="Fill-15"></path>
                <path d="M557.667938,509.000543 C554.136554,511.039011 548.365323,511.035472 544.805631,508.97577 C543.241631,508.073323 542.381785,506.926684 542.381785,505.748195 C542.381785,504.587401 543.227477,503.458457 544.763169,502.573706 C546.525323,501.554472 548.835938,501.048394 551.157169,501.048394 C553.496092,501.048394 555.838554,501.56155 557.625477,502.59494 C559.193015,503.497387 560.052862,504.644025 560.052862,505.822514 C560.052862,506.986848 559.207169,508.115791 557.667938,509.000543 M561.822092,505.822514 C561.822092,503.98577 560.647323,502.294124 558.510092,501.06255 C554.394862,498.684337 547.965477,498.677259 543.878554,501.037777 C541.773169,502.255195 540.612554,503.925606 540.612554,505.748195 C540.609015,507.58494 541.787323,509.273046 543.921015,510.511699 C545.987477,511.704344 548.634246,512.298897 551.273938,512.298897 C553.899477,512.298897 556.5144,511.711422 558.552554,510.536472 C560.661477,509.319053 561.822092,507.641564 561.822092,505.822514" id="Fill-17"></path>
                <path d="M669.595846,581.342802 C668.031846,580.440355 667.168462,579.297256 667.168462,578.118767 C667.168462,576.957972 668.017692,575.82549 669.553385,574.940738 C671.312,573.925043 673.622615,573.418965 675.940308,573.418965 C678.282769,573.418965 680.625231,573.932121 682.415692,574.965511 C683.976154,575.867958 684.839538,577.011057 684.839538,578.186008 C684.843077,579.35388 683.993846,580.482823 682.458154,581.371114 C678.923231,583.409582 673.152,583.402504 669.595846,581.342802 M683.342769,582.903504 C685.448154,581.686086 686.612308,580.012135 686.608769,578.186008 C686.608769,576.352802 685.434,574.664696 683.300308,573.433121 C679.178,571.054909 672.752154,571.04783 668.668769,573.408348 C666.559846,574.625767 665.399231,576.296178 665.399231,578.118767 C665.399231,579.951972 666.574,581.643618 668.711231,582.878731 C670.774154,584.071377 673.424462,584.66593 676.067692,584.66593 C678.689692,584.66593 681.304615,584.078455 683.342769,582.903504" id="Fill-19"></path>
                <path d="M787.600708,691.15253 C784.065785,693.194537 778.294554,693.18392 774.7384,691.127757 C773.1744,690.22531 772.314554,689.078672 772.314554,687.903721 C772.314554,686.739388 773.160246,685.610445 774.699477,684.725693 C776.458092,683.706459 778.772246,683.200381 781.089938,683.200381 C783.428862,683.200381 785.771323,683.713537 787.558246,684.746927 C789.125785,685.649374 789.985631,686.796012 789.985631,687.974501 C789.985631,689.138835 789.139938,690.267778 787.600708,691.15253 M788.442862,683.214537 C784.327631,680.839863 777.908862,680.829246 773.814862,683.189764 C771.705938,684.407182 770.545323,686.077594 770.545323,687.900182 C770.545323,689.460884 771.440554,690.904799 773.011631,692.065594 L676.004708,747.652778 L529.717631,663.647367 L669.203785,583.113721 C669.044554,583.028785 668.864092,582.968622 668.711938,582.876608 C668.262554,582.61826 667.883938,582.331601 667.523015,582.034324 L527.502554,662.882941 C527.230092,663.042196 527.060246,663.335934 527.060246,663.650906 C527.060246,663.965877 527.230092,664.256076 527.506092,664.415331 L675.5624,749.439977 C675.7004,749.517835 675.852554,749.556764 676.004708,749.556764 C676.156862,749.556764 676.309015,749.517835 676.443477,749.439977 L774.770246,693.098984 C774.4624,692.953884 774.1404,692.830019 773.853785,692.663686 C775.920246,693.856331 778.563477,694.450884 781.206708,694.450884 C783.832246,694.450884 786.447169,693.863409 788.485323,692.688459 C790.594246,691.47104 791.754862,689.793551 791.754862,687.974501 C791.754862,686.137757 790.580092,684.446111 788.442862,683.214537" id="Fill-21"></path>
                <path d="M559.499446,509.864768 C559.198677,510.091265 558.908523,510.328378 558.551138,510.53364 C558.306985,510.675201 558.027446,510.78491 557.7656,510.908775 L667.4756,574.253463 C667.836523,573.956187 668.218677,573.665988 668.668062,573.40764 C668.820215,573.322704 668.9936,573.259002 669.149292,573.181144 L559.499446,509.864768 Z" id="Fill-23"></path>
                <path d="M2076.80131,319.432212 C2080.33269,317.393744 2086.10392,317.397283 2089.66362,319.456985 C2091.22762,320.359432 2092.08746,321.50607 2092.08746,322.68456 C2092.08746,323.845354 2091.24177,324.974297 2089.70608,325.859049 C2087.94392,326.878283 2085.63331,327.384361 2083.31562,327.384361 C2080.97669,327.384361 2078.63069,326.871205 2076.84377,325.837815 C2075.27623,324.935368 2074.41638,323.78873 2074.41638,322.61024 C2074.41638,321.445907 2075.26208,320.316964 2076.80131,319.432212 M2072.64715,322.61024 C2072.64715,324.446985 2073.82192,326.13863 2075.95915,327.370205 C2080.07792,329.748418 2086.50377,329.755496 2090.59069,327.394978 C2092.69608,326.17756 2093.85669,324.507148 2093.85669,322.68456 C2093.86023,320.847815 2092.68192,319.159709 2090.54823,317.921056 C2088.48531,316.728411 2085.83854,316.133857 2083.19531,316.133857 C2080.56977,316.133857 2077.95485,316.721333 2075.91669,317.896283 C2073.80777,319.113701 2072.64715,320.791191 2072.64715,322.61024" id="Fill-25"></path>
                <path d="M1964.8734,247.089952 C1966.4374,247.992399 1967.30078,249.135499 1967.30078,250.313988 C1967.30078,251.474782 1966.45155,252.607265 1964.9194,253.492016 C1963.16078,254.507711 1960.84663,255.013789 1958.52894,255.013789 C1956.19002,255.013789 1953.84402,254.500633 1952.05709,253.467243 C1950.49309,252.564796 1949.62971,251.421697 1949.62971,250.246747 C1949.62617,249.078874 1950.4754,247.949931 1952.01109,247.06164 C1955.54602,245.023172 1961.31725,245.03025 1964.8734,247.089952 M1951.12648,245.52925 C1949.02109,246.746669 1947.85694,248.420619 1947.86048,250.246747 C1947.86048,252.079952 1949.03525,253.768059 1951.17248,254.999633 C1955.29125,257.377846 1961.71709,257.384924 1965.80402,255.024406 C1967.9094,253.806988 1969.07002,252.136577 1969.07002,250.313988 C1969.07002,248.480782 1967.89525,246.789137 1965.75802,245.554023 C1963.69509,244.361378 1961.04478,243.766825 1958.40155,243.766825 C1955.78309,243.766825 1953.16463,244.3543 1951.12648,245.52925" id="Fill-27"></path>
                <path d="M1846.87066,137.280579 C1850.40558,135.238572 1856.17682,135.249189 1859.73297,137.305352 C1861.29697,138.207799 1862.15682,139.354437 1862.15682,140.529387 C1862.15682,141.693721 1861.31112,142.822664 1859.77189,143.707416 C1858.01328,144.72665 1855.69912,145.232728 1853.38143,145.232728 C1851.04251,145.232728 1848.70005,144.719572 1846.91312,143.686182 C1845.34558,142.783735 1844.48574,141.637096 1844.48574,140.458607 C1844.48574,139.294274 1845.33143,138.16533 1846.87066,137.280579 M1846.02851,145.218572 C1850.14374,147.593245 1856.56251,147.603862 1860.65651,145.243345 C1862.76543,144.025926 1863.92605,142.355515 1863.92605,140.532926 C1863.92605,138.972224 1863.02728,137.528309 1861.45974,136.367515 L1958.46666,80.7803305 L2104.75374,164.785742 L1965.26758,245.319387 C1965.43035,245.404323 1965.60728,245.464487 1965.75943,245.556501 C1966.20882,245.814848 1966.58389,246.101508 1966.94835,246.395245 L2106.96882,165.550167 C2107.24128,165.390912 2107.41112,165.097174 2107.41112,164.782203 C2107.41112,164.467231 2107.24128,164.177033 2106.96528,164.017777 L1958.90543,78.9931319 C1958.77097,78.9152738 1958.61882,78.8763447 1958.46666,78.8763447 C1958.31451,78.8763447 1958.16235,78.9152738 1958.02435,78.9931319 L1859.70112,135.334125 C1860.00897,135.479224 1860.33097,135.603089 1860.61758,135.769423 C1858.55112,134.576777 1855.90789,133.982224 1853.26466,133.982224 C1850.63912,133.982224 1848.0242,134.569699 1845.98605,135.74465 C1843.87712,136.962068 1842.71651,138.639557 1842.71651,140.458607 C1842.71651,142.295352 1843.89128,143.986997 1846.02851,145.218572" id="Fill-29"></path>
                <path d="M2074.9698,318.56834 C2075.27411,318.341844 2075.56072,318.101191 2075.91811,317.899468 C2076.1658,317.757908 2076.4418,317.648199 2076.70365,317.524333 L1966.99365,254.179645 C1966.63626,254.476922 1966.25057,254.767121 1965.80118,255.025468 C1965.64903,255.110404 1965.47918,255.174106 1965.31995,255.251965 L2074.9698,318.56834 Z" id="Fill-31"></path>
                <path d="M1377.92755,545.938929 C1374.39617,547.977397 1368.62494,547.973858 1365.06525,545.914156 C1363.50125,545.011709 1362.6414,543.865071 1362.6414,542.686582 C1362.6414,541.525787 1363.48709,540.396844 1365.02632,539.512092 C1366.78494,538.492858 1369.09555,537.98678 1371.41678,537.98678 C1373.75217,537.98678 1376.09817,538.499936 1377.88509,539.533326 C1379.45263,540.435773 1380.31248,541.582411 1380.31248,542.760901 C1380.31248,543.925234 1379.46678,545.054177 1377.92755,545.938929 M1382.08171,542.760901 C1382.08171,540.924156 1380.90694,539.232511 1378.76971,538.000936 C1374.65094,535.622723 1368.22509,535.615645 1364.14171,537.976163 C1362.03278,539.193582 1360.87217,540.863993 1360.87217,542.686582 C1360.87217,544.523326 1362.04694,546.211433 1364.18063,547.450085 C1366.24709,548.64273 1368.89386,549.237284 1371.53355,549.237284 C1374.15909,549.237284 1376.77402,548.649809 1378.81217,547.474858 C1380.92109,546.25744 1382.08171,544.57995 1382.08171,542.760901" id="Fill-33"></path>
                <path d="M1489.85546,618.281189 C1488.29146,617.378742 1487.42808,616.235643 1487.42808,615.057153 C1487.42808,613.896359 1488.27731,612.763877 1489.80946,611.879125 C1491.57162,610.86343 1493.88223,610.357352 1496.20346,610.357352 C1498.53885,610.357352 1500.88485,610.870508 1502.67177,611.903898 C1504.23577,612.806345 1505.09915,613.949444 1505.09915,615.124394 C1505.10269,616.292267 1504.25346,617.42121 1502.71777,618.309501 C1499.18285,620.347969 1493.41162,620.340891 1489.85546,618.281189 M1503.60238,619.841891 C1505.70777,618.624472 1506.87192,616.950522 1506.86838,615.124394 C1506.86838,613.291189 1505.69362,611.603082 1503.55638,610.371508 C1499.43762,607.993295 1493.01177,607.986217 1488.92485,610.346735 C1486.81946,611.564153 1485.65885,613.234565 1485.65885,615.057153 C1485.65885,616.890359 1486.83362,618.582004 1488.97085,619.817118 C1491.03377,621.009763 1493.68408,621.604316 1496.32731,621.604316 C1498.94577,621.604316 1501.56777,621.016841 1503.60238,619.841891" id="Fill-35"></path>
                <path d="M1607.85855,728.090916 C1604.32717,730.132923 1598.55594,730.122306 1594.99625,728.066143 C1593.43578,727.163696 1592.5724,726.017058 1592.5724,724.842108 C1592.5724,723.677774 1593.42163,722.548831 1594.95732,721.664079 C1596.71948,720.644845 1599.03363,720.138767 1601.34778,720.138767 C1603.69025,720.138767 1606.03271,720.651923 1607.81609,721.685313 C1609.38717,722.58776 1610.24348,723.734399 1610.24348,724.912888 C1610.24348,726.077221 1609.40132,727.206165 1607.85855,728.090916 M1608.70071,720.152923 C1604.58902,717.77825 1598.17025,717.767633 1594.07271,720.12815 C1591.96378,721.345569 1590.80317,723.01598 1590.80317,724.838569 C1590.80317,726.399271 1591.70194,727.843186 1593.27302,729.00398 L1496.26609,784.591165 L1349.97902,700.585753 L1489.46163,620.052108 C1489.3024,619.967172 1489.12548,619.907009 1488.96978,619.814994 C1488.52394,619.556647 1488.14532,619.269987 1487.7844,618.972711 L1347.7604,699.821328 C1347.48794,699.980583 1347.31809,700.274321 1347.31809,700.589292 C1347.31809,700.904264 1347.49148,701.194462 1347.76394,701.353718 L1495.82378,786.378363 C1495.96178,786.456221 1496.11394,786.49515 1496.26609,786.49515 C1496.41825,786.49515 1496.5704,786.456221 1496.70486,786.378363 L1595.02809,730.03737 C1594.72025,729.892271 1594.39825,729.768406 1594.11163,729.602072 C1596.17809,730.794718 1598.82486,731.389271 1601.46455,731.389271 C1604.09363,731.389271 1606.70502,730.801796 1608.74317,729.626845 C1610.85209,728.409427 1612.01271,726.731938 1612.01271,724.912888 C1612.01271,723.076143 1610.83794,721.384498 1608.70071,720.152923" id="Fill-37"></path>
                <path d="M1379.75906,546.803155 C1379.45829,547.029651 1379.16814,547.266765 1378.81075,547.472027 C1378.5666,547.613587 1378.28706,547.723296 1378.02522,547.847162 L1487.73522,611.19185 C1488.09614,610.894573 1488.47829,610.604374 1488.92768,610.346027 C1489.07983,610.261091 1489.25322,610.197389 1489.40891,610.11953 L1379.75906,546.803155 Z" id="Fill-39"></path>
                <path d="M771.304323,481.238094 C771.304323,482.416583 770.444477,483.559682 768.876938,484.462129 C767.093554,485.495519 764.747554,486.012214 762.408631,486.012214 C760.090938,486.012214 757.776785,485.502597 756.014631,484.486902 C754.478938,483.60215 753.633246,482.473207 753.633246,481.312413 C753.633246,480.133923 754.493092,478.983746 756.057092,478.081299 C759.616785,476.021597 765.388015,476.018058 768.9194,478.060065 C770.458631,478.944817 771.304323,480.07376 771.304323,481.238094 M769.804015,476.524136 C767.765862,475.349186 765.150938,474.761711 762.528938,474.761711 C759.885708,474.761711 757.238938,475.356264 755.172477,476.548909 C753.038785,477.784023 751.860477,479.475668 751.864015,481.312413 C751.864015,483.131462 753.024631,484.805413 755.130015,486.022831 C759.216938,488.383349 765.646323,488.376271 769.761554,485.998058 C771.898785,484.762945 773.073554,483.074838 773.073554,481.238094 C773.073554,479.415505 771.912938,477.741555 769.804015,476.524136" id="Fill-41"></path>
                <path d="M893.709615,405.688786 C895.248846,406.577077 896.094538,407.70602 896.091,408.870353 C896.091,410.045304 895.231154,411.191942 893.667154,412.094389 C891.876692,413.127779 889.534231,413.640935 887.195308,413.640935 C884.874077,413.640935 882.563462,413.134857 880.804846,412.115623 C879.269154,411.230871 878.423462,410.101928 878.423462,408.941133 C878.423462,407.762644 879.283308,406.619545 880.847308,405.717098 C884.403462,403.657396 890.174692,403.650318 893.709615,405.688786 M887.319154,402.390431 C884.675923,402.390431 882.029154,402.988523 879.962692,404.181169 C877.829,405.416282 876.654231,407.104389 876.654231,408.941133 C876.654231,410.763722 877.811308,412.434133 879.920231,413.651552 C884.003615,416.01207 890.429462,416.004991 894.551769,413.626779 C896.685462,412.395204 897.860231,410.707098 897.860231,408.870353 C897.863769,407.047765 896.703154,405.373814 894.594231,404.152857 C892.556077,402.977906 889.941154,402.390431 887.319154,402.390431" id="Fill-43"></path>
                <path d="M1001.23709,299.08646 C1001.23709,300.26495 1000.37725,301.408049 998.809708,302.310496 C997.026323,303.343886 994.680323,303.860581 992.3414,303.860581 C990.023708,303.860581 987.709554,303.350964 985.950938,302.335269 C984.411708,301.450517 983.566015,300.321574 983.566015,299.15724 C983.566015,297.98229 984.425862,296.832113 985.989862,295.929666 C989.546015,293.873503 995.317246,293.862886 998.852169,295.908432 C1000.3914,296.793184 1001.23709,297.922127 1001.23709,299.08646 M1003.00632,299.08646 C1003.00632,297.263872 1001.84571,295.589921 999.736785,294.372503 C997.698631,293.197552 995.083708,292.610077 992.461708,292.610077 C989.814938,292.610077 987.171708,293.20463 985.105246,294.397276 C985.391862,294.234482 985.713862,294.107077 986.021708,293.965517 L887.698477,237.620985 C887.560477,237.539588 887.408323,237.504198 887.256169,237.504198 C887.104015,237.504198 886.951862,237.539588 886.8174,237.620985 L738.757554,322.642091 C738.481554,322.801347 738.311708,323.091545 738.311708,323.410056 C738.311708,323.725028 738.481554,324.018765 738.754015,324.178021 L878.778015,405.026638 C879.138938,404.7329 879.517554,404.442701 879.9634,404.180815 C880.119092,404.095879 880.296015,404.032177 880.455246,403.950779 L740.969092,323.413595 L887.256169,239.408184 L984.266631,294.995368 C982.692015,296.156162 981.796785,297.596538 981.796785,299.160779 C981.796785,300.979829 982.9574,302.653779 985.066323,303.871198 C989.160323,306.231716 995.579092,306.221099 999.694323,303.846425 C1001.83155,302.611311 1003.00632,300.923205 1003.00632,299.08646" id="Fill-45"></path>
                <path d="M770.751615,477.197963 C770.450846,476.967928 770.160692,476.730814 769.803308,476.525552 C769.559154,476.383991 769.279615,476.277821 769.017769,476.150417 L878.727769,412.805729 C879.088692,413.103006 879.470846,413.393204 879.920231,413.651552 C880.072385,413.740027 880.245769,413.80019 880.401462,413.881587 L770.751615,477.197963 Z" id="Fill-47"></path>
                <path d="M388.023831,533.286625 C384.488908,535.325093 378.724754,535.321554 375.161523,533.261852 C373.597523,532.359405 372.737677,531.216306 372.734138,530.037816 C372.734138,528.877022 373.579831,527.748079 375.119062,526.859788 C376.877677,525.840554 379.191831,525.334476 381.513062,525.334476 C383.848446,525.334476 386.194446,525.847632 387.981369,526.881022 C389.545369,527.783469 390.405215,528.933646 390.405215,530.112135 C390.405215,531.27293 389.559523,532.401873 388.023831,533.286625 M201.256754,638.933065 C201.256754,640.093859 200.411062,641.222802 198.871831,642.107554 C195.340446,644.149561 189.572754,644.138944 186.013062,642.082781 C184.449062,641.180334 183.585677,640.037235 183.585677,638.862284 C183.585677,637.697951 184.431369,636.569008 185.967062,635.680717 C187.729215,634.661483 190.039831,634.155405 192.357523,634.155405 C194.699985,634.155405 197.045985,634.6721 198.832908,635.70549 C200.396908,636.607937 201.256754,637.754575 201.256754,638.933065 M388.865985,525.348632 C384.750754,522.96688 378.321369,522.963341 374.234446,525.323859 C372.125523,526.544816 370.964908,528.215228 370.964908,530.037816 C370.968446,531.48527 371.725677,532.833632 373.084446,533.948419 L199.650292,634.141249 C199.671523,634.151866 199.696292,634.158944 199.717523,634.1731 C195.605831,631.798426 189.176446,631.78427 185.082446,634.144788 C182.977062,635.365745 181.816446,637.036157 181.816446,638.862284 C181.816446,640.699029 182.994754,642.383596 185.128446,643.61871 C187.194908,644.811355 189.841677,645.405909 192.481369,645.405909 C195.103369,645.405909 197.721831,644.818433 199.756446,643.643483 C201.865369,642.426065 203.025985,640.752114 203.025985,638.933065 C203.025985,637.59532 202.389062,636.338972 201.224908,635.27727 L374.761677,535.024277 C376.753831,536.050589 379.184754,536.584979 381.633369,536.584979 C384.255369,536.584979 386.873831,535.997504 388.908446,534.822554 C391.013831,533.605135 392.174446,531.931185 392.174446,530.112135 C392.177985,528.275391 390.999677,526.583745 388.865985,525.348632" id="Fill-49"></path>
                <path d="M51.5522308,557.081493 C48.0208462,559.119961 42.2531538,559.116422 38.6899231,557.05672 C37.1259231,556.154273 36.2660769,555.007635 36.2660769,553.832684 C36.2660769,552.668351 37.1117692,551.539408 38.6474615,550.654656 C40.4060769,549.635422 42.7202308,549.129344 45.0414615,549.129344 C47.3768462,549.129344 49.7228462,549.6425 51.5097692,550.67589 C53.0737692,551.578337 53.9371538,552.728514 53.9336154,553.907004 C53.9336154,555.067798 53.0879231,556.196741 51.5522308,557.081493 Z M135.665,436.128848 C132.130077,438.167316 126.362385,438.163777 122.802692,436.104074 C121.238692,435.205167 120.375308,434.058528 120.375308,432.883578 C120.375308,431.719245 121.221,430.590301 122.760231,429.702011 C124.518846,428.686316 126.829462,428.176699 129.147154,428.176699 C131.486077,428.176699 133.832077,428.696933 135.619,429.730323 C137.186538,430.63277 138.046385,431.775869 138.046385,432.954358 C138.046385,434.115152 137.200692,435.244096 135.665,436.128848 Z M53.6328462,557.764521 C53.2719231,558.061798 52.8862308,558.355535 52.4368462,558.617422 C54.5422308,557.400004 55.7028462,555.726053 55.7028462,553.907004 C55.7063846,552.463089 54.9562308,551.118266 53.6116154,550.007018 L190.482846,470.970372 C191.310846,470.489067 191.806231,469.632628 191.806231,468.677096 C191.809769,467.714486 191.314385,466.854507 190.472231,466.366124 L137.752692,436.811876 C139.079615,435.711245 139.815615,434.384117 139.815615,432.954358 C139.815615,431.117613 138.640846,429.429507 136.503615,428.194394 C132.391923,425.81972 125.966077,425.805564 121.875615,428.166082 C119.766692,429.387039 118.606077,431.060989 118.606077,432.883578 C118.606077,434.720323 119.784385,436.40489 121.918077,437.640004 C123.984538,438.832649 126.631308,439.427202 129.271,439.427202 C131.701923,439.427202 134.108077,438.896351 136.071923,437.887734 L189.594692,467.902053 C189.994538,468.135628 190.040538,468.521379 190.037,468.673557 C190.037,468.825734 189.994538,469.207947 189.598231,469.434443 L51.9379231,548.924082 C52.0865385,549.00194 52.2493077,549.058564 52.3943846,549.1435 C48.2791538,546.765287 41.8497692,546.758209 37.7628462,549.118727 C35.6539231,550.336145 34.4968462,552.010096 34.4968462,553.832684 C34.4968462,555.669429 35.6716154,557.357535 37.8053077,558.592649 C39.8717692,559.785294 42.5185385,560.379848 45.1582308,560.379848 C47.5891538,560.379848 49.9988462,559.848996 51.9626923,558.840379 L183.812846,635.045819 C184.191462,634.72377 184.605462,634.422954 185.083154,634.143372 C185.203462,634.076131 185.348538,634.026585 185.472385,633.962883 L53.6328462,557.764521 Z" id="Fill-51"></path>
                <path d="M2048.99466,618.986513 C2045.46328,621.024981 2039.69558,621.021442 2036.13235,618.96174 C2034.56835,618.059293 2033.70851,616.916194 2033.70851,615.737704 C2033.70851,614.57691 2034.5542,613.447967 2036.09343,612.559676 C2037.85205,611.540442 2040.16266,611.034364 2042.48389,611.034364 C2044.81928,611.034364 2047.16528,611.54752 2048.9522,612.58091 C2050.51974,613.483357 2051.37958,614.633534 2051.37958,615.812023 C2051.37958,616.972818 2050.53389,618.101761 2048.99466,618.986513 M1862.23112,724.632952 C1862.23112,725.793747 1861.38189,726.92269 1859.8462,727.807442 C1856.31128,729.849449 1850.54358,729.838832 1846.98389,727.782669 C1845.41989,726.880222 1844.56005,725.737123 1844.56005,724.562172 C1844.55651,723.397839 1845.4022,722.268896 1846.93789,721.380605 C1848.70005,720.36491 1851.0142,719.855293 1853.32835,719.855293 C1855.67082,719.855293 1858.01682,720.371988 1859.80374,721.405378 C1861.36774,722.307825 1862.23112,723.454463 1862.23112,724.632952 M2049.83682,611.04852 C2045.72158,608.666768 2039.29574,608.663229 2035.20882,611.023747 C2033.09989,612.244704 2031.93928,613.915116 2031.93928,615.737704 C2031.93928,617.188697 2032.69651,618.537059 2034.05528,619.651846 L1860.62466,719.841137 C1860.64589,719.855293 1860.66712,719.862371 1860.68835,719.872988 C1856.57666,717.498314 1850.14728,717.484158 1846.05328,719.844676 C1843.94789,721.065633 1842.78728,722.736045 1842.79082,724.562172 C1842.79082,726.398917 1843.96558,728.083484 1846.09928,729.318598 C1848.16574,730.511243 1850.81251,731.105796 1853.4522,731.105796 C1856.0742,731.105796 1858.69266,730.518321 1860.73082,729.343371 C1862.83974,728.125952 1864.00035,726.452002 1864.00035,724.632952 C1864.00035,723.298747 1863.35989,722.042399 1862.19574,720.977158 L2035.73605,620.727704 C2037.72466,621.750477 2040.15558,622.284867 2042.6042,622.284867 C2045.22974,622.284867 2047.84466,621.697392 2049.87928,620.522442 C2051.9882,619.305023 2053.14882,617.631073 2053.14882,615.812023 C2053.14882,613.975279 2051.97405,612.283633 2049.83682,611.04852" id="Fill-53"></path>
                <path d="M1712.52306,642.781381 C1708.99522,644.819849 1703.22398,644.81631 1699.66075,642.756608 C1698.09675,641.854161 1697.23691,640.707523 1697.23691,639.532572 C1697.23691,638.368239 1698.0826,637.239296 1699.62183,636.354544 C1701.38045,635.33531 1703.69106,634.829232 1706.01229,634.829232 C1708.34768,634.829232 1710.69368,635.342388 1712.4806,636.375778 C1714.04814,637.278225 1714.90798,638.428402 1714.90798,639.606891 C1714.90798,640.767686 1714.06229,641.896629 1712.52306,642.781381 Z M1796.63583,521.828735 C1793.10091,523.867204 1787.33675,523.863665 1783.77352,521.803962 C1782.20952,520.905055 1781.34614,519.758416 1781.34614,518.583466 C1781.34614,517.419133 1782.19183,516.290189 1783.73106,515.401899 C1785.48968,514.386204 1787.80029,513.876587 1790.12152,513.876587 C1792.46045,513.876587 1794.80645,514.396821 1796.59337,515.430211 C1798.15737,516.332657 1799.01722,517.475757 1799.01722,518.654246 C1799.01722,519.81504 1798.17152,520.943984 1796.63583,521.828735 Z M1714.60722,643.464409 C1714.24275,643.765225 1713.8606,644.055423 1713.40768,644.31731 C1715.5166,643.099891 1716.67722,641.425941 1716.67722,639.606891 C1716.67722,638.162977 1715.92706,636.821693 1714.57891,635.706906 L1851.45368,556.67026 C1852.28168,556.188955 1852.7806,555.332516 1852.7806,554.376984 C1852.7806,553.414374 1852.28522,552.554395 1851.44306,552.066012 L1798.72352,522.511764 C1800.05045,521.411133 1800.78645,520.084005 1800.78645,518.654246 C1800.78645,516.817501 1799.61168,515.129395 1797.47798,513.894282 C1793.36629,511.519608 1786.93691,511.505452 1782.84645,513.86597 C1780.73752,515.086927 1779.57691,516.760877 1779.57691,518.583466 C1779.57691,520.420211 1780.75522,522.104778 1782.88891,523.339891 C1784.95537,524.532537 1787.60214,525.12709 1790.24537,525.12709 C1792.67275,525.12709 1795.07891,524.599778 1797.04275,523.591161 L1850.56906,553.601941 C1850.96891,553.835516 1851.01137,554.221267 1851.01137,554.373445 C1851.01137,554.525622 1850.96537,554.907835 1850.56906,555.134331 L1712.90875,634.627509 C1713.05737,634.705367 1713.22014,634.758452 1713.36522,634.843388 C1709.24998,632.465175 1702.82414,632.458097 1698.73722,634.818615 C1696.62829,636.036033 1695.46768,637.709984 1695.46768,639.532572 C1695.46768,641.369317 1696.64245,643.057423 1698.77614,644.292537 C1700.8426,645.485182 1703.48937,646.079735 1706.12906,646.079735 C1708.56352,646.079735 1710.96968,645.552423 1712.92998,644.543806 L1844.78722,720.745707 C1845.16229,720.427196 1845.57983,720.122842 1846.05398,719.84326 C1846.17429,719.776019 1846.31937,719.726473 1846.44675,719.662771 L1714.60722,643.464409 Z" id="Fill-55"></path>
                <path d="M514.491277,259.362521 C516.030508,260.250812 516.8762,261.379755 516.872662,262.544089 C516.872662,263.719039 516.012815,264.865677 514.448815,265.768124 C510.885585,267.824287 505.121431,267.834904 501.586508,265.789358 C500.047277,264.904606 499.201585,263.775663 499.201585,262.614869 C499.201585,261.436379 500.064969,260.29328 501.628969,259.390833 C503.415892,258.357443 505.761892,257.837209 508.100815,257.837209 C510.418508,257.837209 512.732662,258.346826 514.491277,259.362521 M325.296815,156.947195 C321.737123,159.006897 315.969431,159.010436 312.434508,156.968429 C310.898815,156.083677 310.053123,154.954734 310.053123,153.79394 C310.053123,152.61545 310.912969,151.468812 312.480508,150.566365 C314.267431,149.532975 316.609892,149.01628 318.948815,149.01628 C321.270046,149.01628 323.580662,149.525897 325.339277,150.541592 C326.878508,151.429883 327.7242,152.558826 327.7242,153.719621 C327.7242,154.89811 326.864354,156.044748 325.296815,156.947195 M500.744354,257.854904 C500.765585,257.844287 500.786815,257.837209 500.808046,257.823053 L327.373892,157.633762 C328.7362,156.518975 329.493431,155.174152 329.493431,153.719621 C329.493431,151.900571 328.332815,150.226621 326.223892,149.005663 C322.136969,146.645145 315.711123,146.648684 311.595892,149.030436 C309.458662,150.269089 308.283892,151.957195 308.283892,153.79394 C308.283892,155.616528 309.444508,157.28694 311.549892,158.504358 C313.588046,159.679309 316.202969,160.266784 318.828508,160.266784 C321.277123,160.266784 323.708046,159.735933 325.696662,158.71316 L499.233431,258.962613 C498.069277,260.024316 497.432354,261.277124 497.432354,262.614869 C497.432354,264.437457 498.592969,266.107869 500.701892,267.325287 C502.740046,268.500238 505.354969,269.087713 507.976969,269.087713 C510.6202,269.087713 513.266969,268.49316 515.333431,267.300514 C517.467123,266.06894 518.641892,264.380833 518.641892,262.544089 C518.645431,260.7215 517.484815,259.04755 515.375892,257.826592 C511.285431,255.466074 504.856046,255.48023 500.744354,257.854904" id="Fill-57"></path>
                <path d="M661.769123,180.740648 C658.209431,182.80035 652.4382,182.803889 648.906815,180.765421 C647.371123,179.880669 646.525431,178.751726 646.525431,177.587392 C646.521892,176.408903 647.385277,175.262265 648.949277,174.359818 C650.7362,173.326428 653.0822,172.813272 655.421123,172.813272 C657.738815,172.813272 660.052969,173.31935 661.811585,174.335045 C663.347277,175.219796 664.196508,176.352279 664.196508,177.516612 C664.196508,178.691562 663.333123,179.838201 661.769123,180.740648 M562.412662,56.6382858 C562.412662,55.4597965 563.276046,54.3131582 564.840046,53.4107113 C566.626969,52.3773213 568.972969,51.8606262 571.311892,51.8606262 C573.629585,51.8606262 575.943738,52.3702433 577.702354,53.3859383 C579.238046,54.2742291 580.087277,55.4031723 580.083738,56.5675057 C580.083738,57.742456 579.220354,58.8855553 577.656354,59.7880021 C574.096662,61.8477043 568.328969,61.8512433 564.797585,59.8127752 C563.261892,58.9280234 562.412662,57.7990801 562.412662,56.6382858 M662.6962,172.802655 C658.609277,170.442137 652.183431,170.449215 648.064662,172.827428 C648.209738,172.742491 648.372508,172.689406 648.521123,172.608009 L510.864354,93.1183709 C510.464508,92.8918745 510.422046,92.5061227 510.422046,92.3539454 C510.422046,92.2017681 510.464508,91.8195553 510.864354,91.5859809 L564.387123,61.5752007 C566.350969,62.5838177 568.757123,63.1111298 571.188046,63.1111298 C573.827738,63.1111298 576.478046,62.5165766 578.540969,61.3239312 C580.6782,60.0888177 581.852969,58.4042504 581.852969,56.5675057 C581.856508,54.741378 580.692354,53.0709667 578.586969,51.8500092 C574.492969,49.4894915 568.067123,49.5036475 563.955431,51.8783213 C561.8182,53.1134348 560.643431,54.8015411 560.643431,56.6382858 C560.643431,58.0680447 561.379431,59.3951723 562.706354,60.4922645 L509.986815,90.0500518 C509.144662,90.5384348 508.652815,91.3984135 508.652815,92.3574844 C508.652815,93.3165553 509.1482,94.172995 509.979738,94.6543 L646.850969,173.690945 C645.502815,174.802194 644.752662,176.147016 644.7562,177.587392 C644.7562,179.409981 645.916815,181.083931 648.0222,182.297811 C647.572815,182.039463 647.187123,181.749265 646.8262,181.448449 L514.986662,257.643272 C515.114046,257.710513 515.255585,257.760059 515.375892,257.8273 C515.853585,258.103343 516.267585,258.411236 516.6462,258.729747 L648.499892,182.524307 C650.463738,183.532924 652.869892,184.060236 655.300815,184.060236 C657.940508,184.060236 660.590815,183.469222 662.653738,182.276577 C664.790969,181.041463 665.965738,179.349818 665.965738,177.516612 C665.965738,175.694023 664.805123,174.020073 662.6962,172.802655" id="Fill-59"></path>
                <path d="M1082.6164,716.367955 C1080.85778,717.38365 1078.54363,717.893267 1076.22594,717.893267 C1073.88702,717.893267 1071.54102,717.373033 1069.75409,716.339643 C1068.19009,715.437196 1067.32671,714.294097 1067.32671,713.115608 C1067.32671,711.954813 1068.1724,710.82587 1069.71163,709.941118 C1073.24655,707.895572 1079.01071,707.906189 1082.57394,709.962352 C1084.13794,710.864799 1084.99778,712.011438 1084.99778,713.186388 C1085.00132,714.350721 1084.15563,715.479665 1082.6164,716.367955 M895.849323,822.010856 C895.849323,823.17165 895.003631,824.300594 893.4644,825.188884 C891.705785,826.204579 889.395169,826.714196 887.073938,826.714196 C884.735015,826.714196 882.392554,826.197501 880.605631,825.164111 C879.038092,824.261665 878.178246,823.115026 878.178246,821.936537 C878.178246,820.775743 879.023938,819.646799 880.559631,818.762048 C884.094554,816.72004 889.862246,816.723579 893.421938,818.783282 C894.989477,819.685728 895.849323,820.832367 895.849323,822.010856 M1086.76702,713.186388 C1086.76702,711.349643 1085.59225,709.661537 1083.45855,708.429962 C1081.39209,707.237317 1078.74532,706.642764 1076.10209,706.642764 C1073.48009,706.642764 1070.86517,707.230239 1068.82702,708.405189 C1066.71809,709.622608 1065.55748,711.293019 1065.55748,713.115608 C1065.55748,714.449813 1066.19794,715.706161 1067.35855,716.767863 L893.821785,817.017317 C891.833169,815.994544 889.398708,815.463693 886.953631,815.463693 C884.328092,815.463693 881.713169,816.051168 879.675015,817.226118 C877.569631,818.443537 876.409015,820.113948 876.409015,821.936537 C876.409015,823.773282 877.583785,825.461388 879.721015,826.70004 C883.836246,829.081792 890.262092,829.085331 894.349015,826.724813 C896.457938,825.503856 897.618554,823.829906 897.618554,822.010856 C897.618554,820.556324 896.857785,819.211501 895.499015,818.096714 L1068.93317,717.907423 C1068.91194,717.893267 1068.89071,717.886189 1068.86948,717.875572 C1072.98117,720.250246 1079.41055,720.264402 1083.50102,717.903884 C1085.60994,716.682927 1086.77055,715.008977 1086.76702,713.186388" id="Fill-61"></path>
                <path d="M1229.93777,801.394016 C1228.17915,802.409711 1225.865,802.919328 1223.54377,802.919328 C1221.20838,802.919328 1218.86238,802.402633 1217.07546,801.369243 C1215.51146,800.466796 1214.64808,799.320158 1214.65162,798.141669 C1214.65162,796.980874 1215.49731,795.851931 1217.033,794.967179 C1220.56438,792.925172 1226.33208,792.928711 1229.89531,794.988413 C1231.45931,795.89086 1232.31915,797.041038 1232.31915,798.215988 C1232.31915,799.380321 1231.47346,800.509265 1229.93777,801.394016 M1132.92377,915.916286 C1136.45515,913.877818 1142.22285,913.881357 1145.78254,915.941059 C1147.34654,916.843506 1148.20992,917.986605 1148.20992,919.161555 C1148.20992,920.325889 1147.36423,921.458371 1145.825,922.346662 C1144.06638,923.362357 1141.75577,923.868435 1139.43808,923.868435 C1137.09915,923.868435 1134.75315,923.35174 1132.96623,922.31835 C1131.39869,921.415903 1130.53885,920.272804 1130.53885,919.094314 C1130.53885,917.93352 1131.38454,916.801038 1132.92377,915.916286 M1230.77992,793.456023 C1228.71346,792.263378 1226.06669,791.668825 1223.427,791.668825 C1220.99608,791.668825 1218.58638,792.196137 1216.62608,793.208293 L1084.77238,716.999314 C1084.39377,717.317825 1083.97977,717.625718 1083.50208,717.901761 C1083.38177,717.972541 1083.24023,718.018548 1083.11285,718.085789 L1214.95238,794.280612 C1215.31331,793.979796 1215.699,793.689598 1216.14838,793.43125 C1214.043,794.648669 1212.88238,796.31908 1212.88238,798.141669 C1212.87885,799.582045 1213.629,800.926867 1214.97715,802.041655 L1078.10238,881.0783 C1077.27438,881.556066 1076.779,882.416045 1076.779,883.371577 C1076.77546,884.334187 1077.27085,885.194165 1078.113,885.679009 L1130.83254,915.236796 C1129.50562,916.337428 1128.76962,917.664555 1128.76962,919.094314 C1128.76962,920.92752 1129.94438,922.619165 1132.08162,923.854279 C1136.19331,926.225413 1142.61915,926.23957 1146.70962,923.879052 C1148.81854,922.661633 1149.97915,920.987683 1149.97915,919.161555 C1149.97915,917.32835 1148.80085,915.640243 1146.66715,914.408669 C1144.60069,913.216023 1141.95392,912.62147 1139.31423,912.62147 C1136.88331,912.62147 1134.47715,913.145243 1132.51331,914.15386 L1078.99054,884.146619 C1078.59069,883.909506 1078.54469,883.527293 1078.54823,883.375116 C1078.54823,883.222938 1078.59069,882.840726 1078.987,882.61069 L1216.64731,803.117513 C1216.49869,803.043194 1216.33592,802.98657 1216.19085,802.905172 C1220.30608,805.283385 1226.73546,805.290463 1230.82238,802.929945 C1232.93131,801.712527 1234.08838,800.035038 1234.08838,798.215988 C1234.08838,796.379243 1232.91362,794.687598 1230.77992,793.456023" id="Fill-63"></path>
                <path d="M1066.33063,372.935629 C1066.33063,371.75714 1067.19048,370.610501 1068.75802,369.708055 C1070.5414,368.674665 1072.8874,368.15797 1075.22632,368.15797 C1077.54402,368.15797 1079.85817,368.667587 1081.61678,369.683282 C1083.15602,370.571572 1084.00171,371.700516 1084.00171,372.86131 C1084.00171,374.039799 1083.13832,375.186438 1081.57432,376.088884 C1078.01463,378.148587 1072.24694,378.152126 1068.71202,376.110118 C1067.17632,375.225367 1066.33063,374.096423 1066.33063,372.935629 M1255.47909,481.756558 C1255.47909,480.578069 1256.34248,479.43497 1257.90648,478.532523 C1259.6934,477.499133 1262.0394,476.978899 1264.37832,476.978899 C1266.69602,476.978899 1269.01017,477.488516 1270.76878,478.504211 C1272.30448,479.392501 1273.15371,480.521445 1273.15017,481.685778 C1273.15017,482.864267 1272.29032,484.007367 1270.72632,484.909813 C1267.16309,486.965977 1261.3954,486.976594 1257.86402,484.931048 C1256.32478,484.046296 1255.47909,482.917352 1255.47909,481.756558 M1064.5614,372.935629 C1064.5614,374.758218 1065.72202,376.428629 1067.8274,377.646048 C1069.86555,378.820998 1072.48048,379.408473 1075.10248,379.408473 C1077.55109,379.408473 1079.98202,378.877622 1081.97417,377.85131 L1255.51094,478.104303 C1254.35032,479.166005 1253.70986,480.418813 1253.70986,481.756558 C1253.70986,483.579147 1254.87048,485.249558 1256.9794,486.466977 C1259.01755,487.641927 1261.63248,488.229402 1264.25448,488.229402 C1266.89771,488.229402 1269.54448,487.634849 1271.61094,486.442204 C1273.74463,485.210629 1274.9194,483.522523 1274.9194,481.685778 C1274.92294,479.863189 1273.76232,478.189239 1271.6534,476.968282 C1267.56294,474.607764 1261.13355,474.62192 1257.02186,476.996594 C1257.03955,476.982438 1257.06432,476.97536 1257.08555,476.968282 L1083.6514,376.775452 C1085.01371,375.660665 1085.77094,374.312303 1085.77094,372.86131 C1085.77094,371.04226 1084.61032,369.36831 1082.5014,368.147352 C1078.41448,365.786835 1071.98863,365.790374 1067.8734,368.172126 C1065.73617,369.410778 1064.5614,371.098884 1064.5614,372.935629" id="Fill-65"></path>
                <path d="M1402.804,396.730497 C1402.80046,395.552008 1403.66385,394.40537 1405.23138,393.502923 C1407.01477,392.469533 1409.36077,391.952838 1411.69969,391.952838 C1414.01738,391.952838 1416.33154,392.462455 1418.09015,393.47815 C1419.62585,394.362901 1420.47154,395.491845 1420.47154,396.656178 C1420.47154,397.834667 1419.61169,398.981306 1418.04769,399.883752 C1414.488,401.943455 1408.71677,401.946994 1405.18538,399.904987 C1403.64969,399.020235 1402.804,397.891291 1402.804,396.730497 Z M1318.69123,275.777852 C1318.69123,274.599362 1319.55108,273.456263 1321.11862,272.553816 C1322.902,271.520426 1325.25154,271.003731 1327.59046,271.003731 C1329.90815,271.003731 1332.22231,271.509809 1333.98092,272.525504 C1335.51662,273.413795 1336.36585,274.546277 1336.36231,275.710611 C1336.36231,276.885561 1335.49892,278.02866 1333.93492,278.931107 C1330.37523,280.990809 1324.60754,280.994348 1321.07262,278.95588 C1319.53692,278.071128 1318.69123,276.938646 1318.69123,275.777852 Z M1271.26523,476.786377 C1271.38908,476.853618 1271.53062,476.899625 1271.65446,476.970405 C1272.13215,477.246448 1272.54262,477.550802 1272.92123,477.872852 L1404.77846,401.667412 C1406.73877,402.676029 1409.14846,403.203341 1411.57585,403.203341 C1414.22262,403.203341 1416.86938,402.608788 1418.93231,401.416143 C1421.066,400.184568 1422.24077,398.492923 1422.24077,396.656178 C1422.24077,394.837128 1421.08369,393.159639 1418.97477,391.942221 C1414.88785,389.581703 1408.462,389.588781 1404.34677,391.966994 C1404.48831,391.885596 1404.65108,391.825433 1404.79969,391.751114 L1267.13938,312.261476 C1266.74308,312.03144 1266.70062,311.649228 1266.70062,311.49705 C1266.69708,311.344873 1266.73954,310.96266 1267.14292,310.725547 L1320.66569,280.714767 C1322.62954,281.723384 1325.03215,282.250696 1327.46308,282.250696 C1330.10631,282.250696 1332.75308,281.656143 1334.81954,280.463497 C1336.95677,279.231923 1338.13154,277.543816 1338.13154,275.710611 C1338.13508,273.884483 1336.97446,272.210533 1334.86554,270.993114 C1330.77154,268.632596 1324.34569,268.646752 1320.234,271.021426 C1318.09677,272.253001 1316.922,273.944646 1316.922,275.777852 C1316.922,277.207611 1317.658,278.538277 1318.98492,279.63183 L1266.26538,309.193157 C1265.42323,309.678001 1264.92785,310.541518 1264.93138,311.500589 C1264.93138,312.45966 1265.42677,313.3161 1266.25477,313.793866 L1403.12954,392.830511 C1401.78138,393.945299 1401.03123,395.290121 1401.03477,396.730497 C1401.03477,398.553086 1402.19538,400.223497 1404.30077,401.440916 C1403.85138,401.182568 1403.46569,400.88883 1403.10123,400.591554 L1271.26523,476.786377 Z" id="Fill-67"></path>
                <path d="M2265.04463,652.98363 C2265.04463,651.805141 2265.90448,650.658503 2267.47202,649.756056 C2269.2554,648.722666 2271.6014,648.205971 2273.94032,648.205971 C2276.25802,648.205971 2278.57217,648.715588 2280.33078,649.731283 C2281.87002,650.619574 2282.71571,651.748517 2282.71571,652.909311 C2282.71217,654.087801 2281.85232,655.234439 2280.28832,656.136886 C2276.72863,658.196588 2270.96094,658.200127 2267.42602,656.15812 C2265.89032,655.273368 2265.04463,654.144425 2265.04463,652.98363 M2454.19309,761.80456 C2454.19309,760.62607 2455.05294,759.482971 2456.62048,758.580524 C2458.4074,757.547134 2460.7534,757.0269 2463.09232,757.0269 C2465.41002,757.0269 2467.72063,757.536517 2469.47925,758.552212 C2471.01848,759.440503 2471.86417,760.569446 2471.86417,761.733779 C2471.86417,762.912269 2471.00078,764.055368 2469.44032,764.957815 C2465.87709,767.013978 2460.1094,767.024595 2456.57802,764.979049 C2455.03878,764.094297 2454.19309,762.965354 2454.19309,761.80456 M2263.2754,652.98363 C2263.2754,654.806219 2264.43602,656.47663 2266.5414,657.694049 C2268.57602,658.868999 2271.19448,659.456474 2273.81648,659.456474 C2276.26509,659.456474 2278.69602,658.925623 2280.68817,657.899311 L2454.22494,758.152304 C2453.06432,759.214006 2452.42386,760.466815 2452.42386,761.80456 C2452.42386,763.627148 2453.58448,765.29756 2455.6934,766.514978 C2457.72802,767.689928 2460.34294,768.277404 2462.96848,768.277404 C2465.61171,768.277404 2468.25848,767.68285 2470.32494,766.490205 C2472.45509,765.25863 2473.6334,763.570524 2473.6334,761.733779 C2473.6334,759.911191 2472.47278,758.23724 2470.36386,757.016283 C2466.2734,754.655765 2459.84755,754.669921 2455.73586,757.044595 C2455.75355,757.030439 2455.77832,757.023361 2455.79955,757.016283 L2282.3654,656.823453 C2283.72417,655.708666 2284.48494,654.360304 2284.48494,652.909311 C2284.48494,651.090262 2283.32432,649.416311 2281.2154,648.195354 C2277.12848,645.834836 2270.70263,645.838375 2266.5874,648.220127 C2264.45017,649.458779 2263.27186,651.146886 2263.2754,652.98363" id="Fill-69"></path>
                <path d="M2601.51658,676.778499 C2601.51305,675.600009 2602.37643,674.453371 2603.94397,673.550924 C2605.72735,672.517534 2608.07335,672.000839 2610.41228,672.000839 C2612.72997,672.000839 2615.04412,672.510456 2616.80274,673.526151 C2618.33843,674.410903 2619.18412,675.539846 2619.18412,676.704179 C2619.18412,677.882669 2618.32428,679.029307 2616.76028,679.931754 C2613.20058,681.991456 2607.42935,681.994995 2603.89797,679.952988 C2602.36228,679.068236 2601.51658,677.939293 2601.51658,676.778499 Z M2517.40382,555.825853 C2517.40382,554.647364 2518.2672,553.504265 2519.8312,552.601818 C2521.61812,551.568428 2523.96412,551.051733 2526.30305,551.051733 C2528.62074,551.051733 2530.93489,551.557811 2532.69351,552.573506 C2534.2292,553.461796 2535.07843,554.594279 2535.07489,555.758612 C2535.07489,556.933562 2534.21151,558.076662 2532.64751,558.979109 C2529.08782,561.038811 2523.32012,561.04235 2519.7852,559.003882 C2518.25305,558.11913 2517.40382,556.986648 2517.40382,555.825853 Z M2469.97782,756.834378 C2470.10166,756.901619 2470.2432,756.947626 2470.36705,757.018406 C2470.84474,757.294449 2471.2552,757.598804 2471.63735,757.920853 L2603.49105,681.715413 C2605.45135,682.72403 2607.86105,683.251343 2610.28843,683.251343 C2612.9352,683.251343 2615.58197,682.656789 2617.64489,681.464144 C2619.77858,680.23257 2620.95335,678.540924 2620.95335,676.704179 C2620.95335,674.88513 2619.79628,673.20764 2617.68735,671.990222 C2613.60043,669.629704 2607.17458,669.636782 2603.05935,672.014995 C2603.20089,671.933598 2603.36366,671.873435 2603.51228,671.799116 L2465.85197,592.309477 C2465.45566,592.079442 2465.4132,591.697229 2465.4132,591.545052 C2465.40966,591.392874 2465.45566,591.010662 2465.85551,590.773548 L2519.37828,560.762768 C2521.34212,561.771385 2523.74828,562.298697 2526.1792,562.298697 C2528.81889,562.298697 2531.46566,561.704144 2533.53212,560.511499 C2535.66935,559.279924 2536.84412,557.591818 2536.84412,555.758612 C2536.84766,553.932484 2535.68705,552.258534 2533.57812,551.041116 C2529.48766,548.680598 2523.05828,548.694754 2518.94658,551.069428 C2516.81289,552.301002 2515.63458,553.992648 2515.63458,555.825853 C2515.63458,557.255612 2516.37412,558.586279 2517.69751,559.679832 L2464.97797,589.241158 C2464.13582,589.726002 2463.64043,590.58952 2463.64397,591.548591 C2463.64397,592.507662 2464.13935,593.364101 2464.96735,593.841867 L2601.84212,672.878513 C2600.49397,673.9933 2599.74735,675.338123 2599.74735,676.778499 C2599.74735,678.601087 2600.90797,680.271499 2603.01335,681.488917 C2602.56397,681.23057 2602.17828,680.936832 2601.81735,680.639555 L2469.97782,756.834378 Z" id="Fill-71"></path>
                <path d="M2222.984,213.528133 C2222.984,212.349643 2223.84385,211.203005 2225.41138,210.300558 C2227.19477,209.267168 2229.54077,208.750473 2231.87969,208.750473 C2234.19738,208.750473 2236.51154,209.26009 2238.27015,210.275785 C2239.80938,211.164076 2240.65508,212.293019 2240.65508,213.453813 C2240.65154,214.632303 2239.79169,215.778941 2238.22769,216.681388 C2234.668,218.74109 2228.90031,218.744629 2225.36538,216.702622 C2223.82969,215.81787 2222.984,214.688927 2222.984,213.528133 M2412.13246,322.349062 C2412.13246,321.170572 2412.99231,320.027473 2414.55985,319.125026 C2416.34677,318.091636 2418.69277,317.571402 2421.03169,317.571402 C2423.34938,317.571402 2425.66,318.081019 2427.41862,319.096714 C2428.95785,319.985005 2429.80354,321.113948 2429.80354,322.278282 C2429.80354,323.456771 2428.94015,324.59987 2427.37969,325.502317 C2423.81646,327.55848 2418.04877,327.569097 2414.51738,325.523551 C2412.97815,324.638799 2412.13246,323.509856 2412.13246,322.349062 M2221.21477,213.528133 C2221.21477,215.350721 2222.37538,217.021133 2224.48077,218.238551 C2226.51538,219.413501 2229.13385,220.000977 2231.75585,220.000977 C2234.20446,220.000977 2236.63538,219.466587 2238.62754,218.443813 L2412.16785,318.693267 C2411.00369,319.758509 2410.36323,321.011317 2410.36323,322.349062 C2410.36323,324.17165 2411.52385,325.842062 2413.63277,327.05948 C2415.66738,328.23443 2418.28231,328.821906 2420.90785,328.821906 C2423.55108,328.821906 2426.19785,328.227352 2428.26431,327.034707 C2430.39446,325.803133 2431.57277,324.115026 2431.57277,322.278282 C2431.57277,320.455693 2430.41215,318.781743 2428.30323,317.560785 C2424.21277,315.200267 2417.78692,315.214423 2413.67523,317.589097 C2413.69292,317.574941 2413.71769,317.567863 2413.73892,317.560785 L2240.30477,217.367955 C2241.66354,216.253168 2242.42431,214.904806 2242.42431,213.453813 C2242.42431,211.634764 2241.26369,209.960813 2239.15477,208.739856 C2235.06785,206.379338 2228.642,206.382877 2224.52677,208.764629 C2222.38954,210.003282 2221.21123,211.691388 2221.21477,213.528133" id="Fill-73"></path>
                <path d="M2559.45595,237.323001 C2559.45242,236.144511 2560.3158,234.997873 2561.88334,234.095426 C2563.66672,233.062036 2566.01272,232.545341 2568.35165,232.545341 C2570.66934,232.545341 2572.98349,233.054958 2574.74211,234.070653 C2576.2778,234.955405 2577.12349,236.084348 2577.12349,237.248682 C2577.12349,238.427171 2576.26365,239.573809 2574.69965,240.476256 C2571.13995,242.535958 2565.36872,242.539497 2561.83734,240.49749 C2560.30165,239.612738 2559.45595,238.483795 2559.45595,237.323001 Z M2475.34318,116.370355 C2475.34318,115.191866 2476.20657,114.048767 2477.77057,113.14632 C2479.55749,112.11293 2481.90349,111.596235 2484.24242,111.596235 C2486.56011,111.596235 2488.87426,112.102313 2490.63288,113.118008 C2492.16857,114.006299 2493.0178,115.138781 2493.01426,116.303114 C2493.01426,117.478065 2492.15088,118.621164 2490.58688,119.523611 C2487.02718,121.583313 2481.25949,121.586852 2477.72457,119.548384 C2476.19242,118.663632 2475.34318,117.53115 2475.34318,116.370355 Z M2427.91718,317.375341 C2428.04103,317.442582 2428.18257,317.488589 2428.30642,317.562909 C2428.78411,317.838951 2429.19457,318.143306 2429.57672,318.465355 L2561.43042,242.259916 C2563.39426,243.268533 2565.80042,243.795845 2568.2278,243.795845 C2570.87457,243.795845 2573.52134,243.201291 2575.58426,242.008646 C2577.71795,240.777072 2578.89272,239.085426 2578.89272,237.248682 C2578.89272,235.429632 2577.73565,233.752143 2575.62672,232.534724 C2571.5398,230.174206 2565.11395,230.181284 2560.99872,232.559497 C2561.14026,232.4781 2561.30303,232.417937 2561.45165,232.343618 L2423.79134,152.853979 C2423.39503,152.623944 2423.35257,152.241731 2423.35257,152.089554 C2423.34903,151.937377 2423.39503,151.555164 2423.79488,151.31805 L2477.32118,121.30727 C2479.28149,122.315887 2481.68765,122.843199 2484.11857,122.843199 C2486.75826,122.843199 2489.40503,122.248646 2491.47149,121.056001 C2493.60872,119.824426 2494.78349,118.13632 2494.78349,116.303114 C2494.78703,114.476987 2493.62642,112.803036 2491.51749,111.585618 C2487.42703,109.2251 2480.99765,109.239256 2476.88595,111.61393 C2474.75226,112.845504 2473.57395,114.53715 2473.57395,116.370355 C2473.57395,117.800114 2474.31349,119.127242 2475.63688,120.224334 L2422.91734,149.78566 C2422.07518,150.270504 2421.5798,151.134022 2421.58334,152.093093 C2421.58334,153.052164 2422.07872,153.908604 2422.90672,154.38637 L2559.78149,233.423015 C2558.43334,234.537802 2557.68672,235.879086 2557.68672,237.323001 C2557.68672,239.145589 2558.84734,240.816001 2560.95272,242.033419 C2560.50334,241.771533 2560.11765,241.481334 2559.75672,241.184057 L2427.91718,317.375341 Z" id="Fill-75"></path>
                <path d="M31.6069846,107.496295 C28.0756,109.534763 22.3043692,109.531224 18.7446769,107.471522 C17.1806769,106.569075 16.3208308,105.422437 16.3208308,104.243948 C16.3208308,103.083153 17.1665231,101.95421 18.7022154,101.069458 C20.4643692,100.050224 22.7749846,99.5441461 25.0962154,99.5441461 C27.4351385,99.5441461 29.7776,100.057302 31.5645231,101.090692 C33.1320615,101.993139 33.9919077,103.139777 33.9919077,104.318267 C33.9919077,105.4826 33.1462154,106.611543 31.6069846,107.496295 M35.7611385,104.318267 C35.7611385,102.481522 34.5863692,100.789877 32.4491385,99.5583021 C28.3339077,97.1800894 21.9045231,97.1730113 17.8176,99.5335291 C15.7122154,100.750948 14.5516,102.421359 14.5516,104.243948 C14.5480615,106.080692 15.7263692,107.768799 17.8600615,109.007451 C19.9265231,110.200096 22.5732923,110.79465 25.2129846,110.79465 C27.8385231,110.79465 30.4534462,110.207174 32.4916,109.032224 C34.6005231,107.814806 35.7611385,106.137316 35.7611385,104.318267" id="Fill-77"></path>
                <path d="M143.534892,179.838555 C141.970892,178.936108 141.107508,177.793009 141.107508,176.614519 C141.107508,175.453725 141.956738,174.321243 143.492431,173.436491 C145.251046,172.420796 147.561662,171.914718 149.879354,171.914718 C152.221815,171.914718 154.564277,172.427874 156.354738,173.461264 C157.9152,174.363711 158.778585,175.50681 158.778585,176.68176 C158.782123,177.849633 157.932892,178.978576 156.3972,179.866867 C152.862277,181.905335 147.091046,181.898257 143.534892,179.838555 M157.281815,181.399257 C159.3872,180.181838 160.551354,178.507888 160.547815,176.68176 C160.547815,174.848555 159.373046,173.160448 157.239354,171.928874 C153.117046,169.550661 146.6912,169.543583 142.607815,171.904101 C140.498892,173.121519 139.338277,174.79193 139.338277,176.614519 C139.338277,178.447725 140.513046,180.13937 142.650277,181.374484 C144.7132,182.567129 147.363508,183.161682 150.006738,183.161682 C152.628738,183.161682 155.243662,182.574207 157.281815,181.399257" id="Fill-79"></path>
                <path d="M261.5394,289.647928 C258.004477,291.689935 252.233246,291.679318 248.677092,289.623155 C247.113092,288.720709 246.253246,287.57407 246.253246,286.39912 C246.253246,285.234787 247.098938,284.105843 248.638169,283.221091 C250.396785,282.201857 252.710938,281.695779 255.028631,281.695779 C257.367554,281.695779 259.710015,282.208935 261.496938,283.242326 C263.064477,284.144772 263.924323,285.291411 263.924323,286.4699 C263.924323,287.634233 263.078631,288.763177 261.5394,289.647928 M262.381554,281.709935 C258.266323,279.335262 251.847554,279.324645 247.753554,281.685162 C245.644631,282.902581 244.484015,284.572992 244.484015,286.395581 C244.484015,287.956283 245.379246,289.400198 246.950323,290.560992 L149.9434,346.148177 L3.65632308,262.142765 L143.142477,181.605581 C142.983246,181.524184 142.802785,181.464021 142.650631,181.372006 C142.204785,181.113659 141.822631,180.826999 141.461708,180.529723 L1.44124615,261.37834 C1.16878462,261.537595 0.998938462,261.831333 0.998938462,262.146304 C0.998938462,262.461276 1.16878462,262.751474 1.44478462,262.91073 L149.501092,347.935375 C149.639092,348.013233 149.791246,348.052162 149.9434,348.052162 C150.095554,348.052162 150.247708,348.013233 150.382169,347.935375 L248.708938,291.590843 C248.401092,291.449283 248.079092,291.325418 247.792477,291.159084 C249.858938,292.35173 252.502169,292.946283 255.1454,292.946283 C257.770938,292.946283 260.385862,292.358808 262.424015,291.183857 C264.532938,289.966439 265.693554,288.28895 265.693554,286.4699 C265.693554,284.633155 264.518785,282.94151 262.381554,281.709935" id="Fill-81"></path>
                <path d="M33.4384923,108.360167 C33.1377231,108.586663 32.8475692,108.823777 32.4901846,109.029039 C32.2460308,109.170599 31.9664923,109.280309 31.7046462,109.404174 L141.414646,172.748862 C141.775569,172.451585 142.157723,172.161387 142.607108,171.903039 C142.759262,171.814564 142.932646,171.754401 143.091877,171.676543 L33.4384923,108.360167 Z" id="Fill-84"></path>
                <path d="M247.048692,724.382391 C247.048692,723.203901 247.908538,722.060802 249.476077,721.158355 C251.259462,720.124965 253.605462,719.60827 255.944385,719.60827 C258.262077,719.60827 260.576231,720.117887 262.338385,721.133582 C263.874077,722.018334 264.719769,723.147277 264.719769,724.308072 C264.719769,725.486561 263.859923,726.636738 262.295923,727.539185 C258.736231,729.598887 252.965,729.602426 249.433615,727.560419 C247.894385,726.675667 247.048692,725.546724 247.048692,724.382391 M248.549,729.096348 C250.587154,730.271299 253.202077,730.858774 255.824077,730.858774 C258.467308,730.858774 261.114077,730.264221 263.180538,729.071575 C265.314231,727.836462 266.492538,726.144816 266.489,724.308072 C266.489,722.489022 265.328385,720.815072 263.223,719.597653 C259.136077,717.237135 252.706692,717.244213 248.591462,719.622426 C246.454231,720.85754 245.279462,722.545646 245.279462,724.382391 C245.279462,726.204979 246.440077,727.87893 248.549,729.096348" id="Fill-86"></path>
                <path d="M124.6434,799.932052 C123.104169,799.043762 122.258477,797.914818 122.262015,796.750485 C122.262015,795.575535 123.121862,794.428896 124.685862,793.52645 C126.476323,792.49306 128.818785,791.979904 131.157708,791.979904 C133.478938,791.979904 135.789554,792.485982 137.548169,793.505216 C139.083862,794.389967 139.929554,795.518911 139.929554,796.679705 C139.929554,797.858194 139.069708,799.001294 137.505708,799.90374 C133.949554,801.963443 128.178323,801.970521 124.6434,799.932052 M131.033862,803.230407 C133.677092,803.230407 136.323862,802.632315 138.390323,801.43967 C140.524015,800.204556 141.698785,798.51645 141.698785,796.679705 C141.698785,794.857116 140.541708,793.186705 138.432785,791.969287 C134.3494,789.608769 127.923554,789.615847 123.801246,791.99406 C121.667554,793.225634 120.492785,794.91374 120.492785,796.750485 C120.489246,798.573074 121.649862,800.247024 123.758785,801.467982 C125.796938,802.642932 128.411862,803.230407 131.033862,803.230407" id="Fill-88"></path>
                <path d="M17.1162769,906.534378 C17.1162769,905.355889 17.9761231,904.212789 19.5436615,903.310343 C21.3270462,902.276952 23.6730462,901.760257 26.0119692,901.760257 C28.3296615,901.760257 30.6438154,902.269874 32.4024308,903.28557 C33.9416615,904.170321 34.7873538,905.299265 34.7873538,906.463598 C34.7873538,907.638548 33.9275077,908.788726 32.3635077,909.691172 C28.8073538,911.747335 23.0361231,911.757952 19.5012,909.712406 C17.9619692,908.827655 17.1162769,907.698711 17.1162769,906.534378 M15.3470462,906.534378 C15.3470462,908.356967 16.5076615,910.030917 18.6165846,911.248335 C20.6547385,912.423286 23.2696615,913.010761 25.8916615,913.010761 C28.5384308,913.010761 31.1816615,912.416208 33.2481231,911.223562 C32.9615077,911.386357 32.6395077,911.513761 32.3316615,911.655321 L130.654892,967.999853 C130.792892,968.08125 130.945046,968.11664 131.0972,968.11664 C131.249354,968.11664 131.401508,968.08125 131.535969,967.999853 L279.595815,882.978747 C279.871815,882.819491 280.041662,882.529293 280.041662,882.210782 C280.041662,881.895811 279.871815,881.602073 279.599354,881.442818 L139.575354,800.594201 C139.214431,800.887938 138.835815,801.178137 138.389969,801.440023 C138.234277,801.52496 138.057354,801.588662 137.898123,801.670059 L277.384277,882.207243 L131.0972,966.212655 L34.0867385,910.62547 C35.6613538,909.464676 36.5565846,908.0243 36.5565846,906.460059 C36.5565846,904.641009 35.3959692,902.967059 33.2870462,901.74964 C29.1930462,899.389123 22.7742769,899.39974 18.6590462,901.774413 C16.5218154,903.009527 15.3470462,904.697633 15.3470462,906.534378" id="Fill-90"></path>
                <path d="M247.601754,728.422521 C247.902523,728.652557 248.192677,728.88967 248.550062,729.094933 C248.794215,729.236493 249.073754,729.342663 249.3356,729.470067 L139.6256,792.814755 C139.264677,792.517479 138.882523,792.22728 138.433138,791.968933 C138.280985,791.880457 138.1076,791.820294 137.948369,791.738897 L247.601754,728.422521 Z" id="Fill-92"></path>
                <path d="M2095.56506,747.849193 C2095.56506,746.670704 2096.42491,745.527604 2097.99245,744.625157 C2099.77583,743.591767 2102.12183,743.075072 2104.46075,743.075072 C2106.77845,743.075072 2109.0926,743.584689 2110.85122,744.600384 C2112.39045,745.485136 2113.23614,746.614079 2113.23614,747.774874 C2113.23614,748.953363 2112.37629,750.10354 2110.81229,751.005987 C2107.2526,753.065689 2101.48137,753.069228 2097.94998,751.027221 C2096.41075,750.14247 2095.56506,749.013526 2095.56506,747.849193 M2097.06537,752.56315 C2099.09998,753.738101 2101.71845,754.325576 2104.34045,754.325576 C2106.98368,754.325576 2109.63045,753.731023 2111.69691,752.538377 C2113.8306,751.303264 2115.00537,749.611618 2115.00537,747.774874 C2115.00537,745.955824 2113.84475,744.281874 2111.73583,743.064455 C2107.65245,740.703938 2101.22306,740.711016 2097.10783,743.089228 C2094.9706,744.324342 2093.79583,746.012448 2093.79583,747.849193 C2093.79583,749.671782 2094.95645,751.345732 2097.06537,752.56315" id="Fill-94"></path>
                <path d="M1973.15977,823.398501 C1971.62054,822.51021 1970.77485,821.381267 1970.77485,820.216933 C1970.77485,819.041983 1971.63823,817.895345 1973.20223,816.992898 C1974.99269,815.959508 1977.33515,815.446352 1979.67408,815.446352 C1981.99177,815.446352 1984.30238,815.95243 1986.061,816.971664 C1987.60023,817.856416 1988.44592,818.985359 1988.44592,820.146153 C1988.44592,821.324643 1987.58608,822.467742 1986.02208,823.370189 C1982.46592,825.429891 1976.69469,825.436969 1973.15977,823.398501 M1979.55023,826.696855 C1982.19346,826.696855 1984.84023,826.098763 1986.90669,824.906118 C1989.04038,823.671004 1990.21515,821.982898 1990.21515,820.146153 C1990.21515,818.323565 1989.05454,816.653153 1986.94562,815.435735 C1982.86577,813.075217 1976.43992,813.082295 1972.31762,815.460508 C1970.18392,816.692082 1969.00562,818.380189 1969.00562,820.216933 C1969.00562,822.039522 1970.16623,823.713472 1972.27515,824.93443 C1974.30977,826.10938 1976.92469,826.696855 1979.55023,826.696855" id="Fill-96"></path>
                <path d="M1865.63052,930.000826 C1865.63052,928.822337 1866.49037,927.679238 1868.05791,926.776791 C1869.84129,925.743401 1872.18729,925.226706 1874.52622,925.226706 C1876.84391,925.226706 1879.15806,925.736323 1880.91668,926.752018 C1882.45591,927.63677 1883.3016,928.765713 1883.3016,929.930046 C1883.3016,931.104996 1882.44175,932.255174 1880.87775,933.157621 C1877.3216,935.213784 1871.55037,935.224401 1868.01545,933.178855 C1866.47622,932.294103 1865.63052,931.16516 1865.63052,930.000826 M1863.86129,930.000826 C1863.86129,931.823415 1865.02191,933.497365 1867.13083,934.714784 C1869.16898,935.889734 1871.78391,936.477209 1874.40591,936.477209 C1877.05268,936.477209 1879.69591,935.882656 1881.76237,934.690011 C1881.47575,934.856344 1881.15729,934.980209 1880.84945,935.125309 L1979.17268,991.466301 C1979.30714,991.547699 1979.45929,991.583089 1979.61145,991.583089 C1979.7636,991.583089 1979.91575,991.547699 1980.05375,991.466301 L2128.1136,906.445195 C2128.38606,906.28594 2128.55591,905.995741 2128.55591,905.67723 C2128.55591,905.362259 2128.3896,905.068521 2128.1136,904.909266 L1988.0896,824.064188 C1987.73222,824.357926 1987.35006,824.644585 1986.90422,824.906472 C1986.74852,824.994947 1986.57514,825.058649 1986.41591,825.140046 L2125.89852,905.673691 L1979.61145,989.679103 L1882.60452,934.091918 C1884.1756,932.931124 1885.07083,931.490748 1885.07083,929.926507 C1885.07083,928.107457 1883.91022,926.433507 1881.80129,925.216089 C1877.70729,922.855571 1871.28852,922.866188 1867.17329,925.240862 C1865.03606,926.475975 1863.86129,928.164082 1863.86129,930.000826" id="Fill-98"></path>
                <path d="M2096.11777,751.892509 C2096.41854,752.119005 2096.70869,752.359657 2097.06608,752.561381 C2097.31023,752.702941 2097.58977,752.81265 2097.84808,752.936516 L1988.14162,816.281204 C1987.78069,815.983927 1987.395,815.693728 1986.94562,815.435381 C1986.797,815.350445 1986.62362,815.286743 1986.46792,815.208884 L2096.11777,751.892509 Z" id="Fill-100"></path>
                <path d="M1612.60292,7.08723191 C1612.60292,5.90874255 1613.46277,4.76564326 1615.03031,3.86319645 C1616.81369,2.82980638 1619.16323,2.31311135 1621.50215,2.31311135 C1623.81985,2.31311135 1626.13046,2.82272837 1627.89262,3.8384234 C1629.42831,4.72317518 1630.274,5.85211844 1630.274,7.01291277 C1630.274,8.19140213 1629.41415,9.34157943 1627.85015,10.2440262 C1624.29046,12.3037284 1618.51923,12.3072674 1614.98785,10.2652603 C1613.44862,9.38050851 1612.60292,8.25156525 1612.60292,7.08723191 M1614.10323,11.8011894 C1616.14138,12.9761397 1618.75631,13.5636149 1621.37831,13.5636149 C1624.02508,13.5636149 1626.67185,12.9690617 1628.73477,11.7764163 C1630.86846,10.5413028 1632.04677,8.84965745 1632.04323,7.01291277 C1632.04323,5.19386312 1630.88262,3.51991277 1628.77723,2.30249433 C1624.69031,-0.0580234043 1618.26446,-0.0509453901 1614.14569,2.32726738 C1612.00846,3.56238085 1610.83369,5.25048723 1610.83369,7.08723191 C1610.83369,8.90982057 1611.99431,10.5837709 1614.10323,11.8011894" id="Fill-102"></path>
                <path d="M1490.19763,82.6368936 C1488.6584,81.7486028 1487.81271,80.6196596 1487.81625,79.4553262 C1487.81625,78.2803759 1488.67609,77.1337376 1490.24363,76.2312908 C1492.03055,75.1979007 1494.37655,74.6847447 1496.71548,74.6847447 C1499.03317,74.6847447 1501.34378,75.1908227 1503.1024,76.2100567 C1504.63809,77.0948085 1505.48378,78.2237518 1505.48378,79.3845461 C1505.48378,80.5630355 1504.62394,81.7061348 1503.05994,82.6085816 C1499.50378,84.6682837 1493.73255,84.6753617 1490.19763,82.6368936 M1496.58809,85.9352482 C1499.23132,85.9352482 1501.88163,85.337156 1503.94455,84.1445106 C1506.07825,82.9093972 1507.25302,81.2212908 1507.25302,79.3845461 C1507.25302,77.5619574 1506.09594,75.8915461 1503.98702,74.6741277 C1499.90363,72.3136099 1493.47778,72.3206879 1489.35902,74.6989007 C1487.22178,75.9304752 1486.04702,77.6185816 1486.04702,79.4553262 C1486.04348,81.2779149 1487.20409,82.9518652 1489.31302,84.1728227 C1491.35117,85.347773 1493.96609,85.9352482 1496.58809,85.9352482" id="Fill-105"></path>
                <path d="M1382.67192,189.238865 C1382.67192,188.060376 1383.53177,186.917277 1385.09931,186.01483 C1386.88269,184.98144 1389.22869,184.464745 1391.56762,184.464745 C1393.88531,184.464745 1396.19946,184.974362 1397.95808,185.990057 C1399.49731,186.874809 1400.343,188.003752 1400.343,189.168085 C1400.343,190.343035 1399.48315,191.493213 1397.91915,192.39566 C1394.363,194.451823 1388.59177,194.46244 1385.05685,192.416894 C1383.51762,191.532142 1382.67192,190.403199 1382.67192,189.238865 M1380.90269,189.238865 C1380.90269,191.061454 1382.06331,192.735404 1384.17223,193.952823 C1386.21038,195.127773 1388.82531,195.715248 1391.44731,195.715248 C1394.09408,195.715248 1396.73731,195.120695 1398.80377,193.92805 C1398.51715,194.094383 1398.19515,194.218248 1397.88731,194.363348 L1496.21054,250.70434 C1496.34854,250.785738 1496.50069,250.821128 1496.65285,250.821128 C1496.805,250.821128 1496.95715,250.785738 1497.09162,250.70434 L1645.15146,165.683234 C1645.42746,165.523979 1645.59731,165.23378 1645.59731,164.91527 C1645.59731,164.600298 1645.42746,164.30656 1645.155,164.147305 L1505.131,83.302227 C1504.77008,83.5959645 1504.39146,83.8826241 1503.94208,84.1445106 C1503.78992,84.2329858 1503.613,84.2966879 1503.45377,84.3780851 L1642.93992,164.91173 L1496.65285,248.917142 L1399.64238,193.329957 C1401.21346,192.169163 1402.11223,190.728787 1402.11223,189.164546 C1402.11223,187.345496 1400.95162,185.671546 1398.84269,184.454128 C1394.74869,182.09361 1388.32992,182.104227 1384.21469,184.478901 C1382.07746,185.714014 1380.90269,187.402121 1380.90269,189.238865" id="Fill-107"></path>
                <path d="M1613.15598,11.1309014 C1613.46029,11.3573979 1613.74691,11.5980504 1614.10429,11.7997738 C1614.35198,11.941334 1614.62798,12.0510433 1614.88983,12.1749085 L1505.17983,75.5195965 C1504.82245,75.2223199 1504.43675,74.9321213 1503.98737,74.6737738 C1503.83522,74.5888376 1503.66537,74.5251355 1503.50614,74.4472773 L1613.15598,11.1309014 Z" id="Fill-109"></path>
            </g>
        </g>
    </g>
</svg>