<svg xmlns="http://www.w3.org/2000/svg" width="327" height="650" viewBox="0 0 327 650">
  <g fill="#696A6D" fill-rule="evenodd" opacity=".23" transform="translate(0 -13)">
    <path d="M265.056208 179.134393C262.549096 180.583157 258.458413 180.573113 255.933733 179.114306 254.824481 178.474037 254.214642 177.663031 254.214642 176.826916 254.214642 176.003355 254.814442 175.202391 255.903618 174.574677 257.1509 173.851551 258.789683 173.492498 260.435995 173.492498 262.094854 173.492498 263.756224 173.856572 265.026093 174.589743 266.135345 175.230011 266.745183 176.043528 266.745183 176.877133 266.747693 177.703204 266.147893 178.504168 265.056208 179.134393M13.7853575 202.726399C13.7853575 203.554982 13.1855579 204.355945 12.0963821 204.983659 9.59428928 206.432423 5.50109634 206.42489 2.97390732 204.966083 1.86465454 204.325814 1.25481647 203.512297 1.25481647 202.676182 1.25481647 201.852621 1.85461605 201.051658 2.94379186 200.423944 4.19107383 199.700817 5.8323664 199.341765 7.47867822 199.341765 9.13502852 199.341765 10.7989077 199.705839 12.0662666 200.439009 13.1755194 201.079277 13.7853575 201.892795 13.7853575 202.726399M265.653498 173.502542C262.729789 171.815246 258.172316 171.810225 255.276212 173.484966 253.780478 174.3487 252.959832 175.533825 252.959832 176.826916 252.959832 177.853856 253.496891 178.810492 254.460585 179.603923L171.286704 227.646648 68.7485817 168.418058C67.7823774 167.860647 66.5802686 167.860647 65.6115546 168.418058L12.3498539 199.186092C9.42614463 197.682089 5.10708574 197.719751 2.31638644 199.334232.823161544 200.197967.00000563591696 201.383091.00000563591696 202.676182-.00250398575 203.979316.833200031 205.176995 2.3465019 206.055795 3.81212095 206.901953 5.68931796 207.323777 7.56149573 207.323777 9.42363501 207.323777 11.2782454 206.906975 12.7237875 206.073371 14.219522 205.209636 15.0401683 204.01949 15.0401683 202.726399 15.0401683 201.696948 14.5031093 200.740312 13.5394146 199.949392L66.23896 169.507769C66.8211923 169.168804 67.5414537 169.168804 68.1211763 169.507769L170.973001 228.917142C171.068367 228.974891 171.17879 229 171.286704 229 171.394618 229 171.502531 228.974891 171.600407 228.917142L255.650146 180.364712C257.060553 181.092861 258.787173 181.474511 260.523831 181.474511 262.383461 181.474511 264.238071 181.057709 265.683613 180.224104 267.179348 179.357859 268.002504 178.170224 267.999994 176.877133 267.999994 175.573998 267.1668 174.37632 265.653498 173.502542M59.9015167 461.45C59.9015167 460.61336 60.5137759 459.7994 61.6228685 459.1568 62.8900444 458.42096 64.5536833 458.05304 66.2123037 458.05304 67.8558685 458.05304 69.4944148 458.41592 70.7415167 459.13916 71.8305352 459.76916 72.4327574 460.57304 72.4327574 461.3996 72.4327574 462.23876 71.8204981 463.05524 70.7114056 463.69784 68.1870907 465.16196 64.0969981 465.17204 61.5902481 463.71548 60.5012296 463.08296 59.9015167 462.27908 59.9015167 461.45M314.543656 485.1002C315.810831 484.36436 317.47447 483.99644 319.133091 483.99644 320.776656 483.99644 322.417711 484.35932 323.664813 485.08256 324.753831 485.71256 325.356054 486.51644 325.356054 487.343 325.356054 488.18216 324.743794 489.00116 323.634702 489.64376 321.110387 491.10788 317.017785 491.11292 314.513544 489.65888 313.424526 489.02888 312.824813 488.225 312.824813 487.39592 312.824813 486.55928 313.434563 485.7428 314.543656 485.1002M58.646887 461.45C58.646887 462.75032 59.4699241 463.93976 60.9629333 464.80916 62.4082667 465.6458 64.2626093 466.06412 66.1219704 466.06412 67.8583778 466.06412 69.5822389 465.6836 70.9949519 464.95532L155.035063 513.68204C155.130415 513.73748 155.240822 513.7652 155.34872 513.7652 155.456619 513.7652 155.564517 513.73748 155.662378 513.68204L258.496841 454.0538C259.07648 453.71612 259.799146 453.71612 260.378785 454.0538L313.07072 484.6088C312.107165 485.40512 311.570183 486.36524 311.570183 487.39592 311.570183 488.69372 312.39322 489.88568 313.88623 490.75256 315.331563 491.5892 317.188415 492.00752 319.047776 492.00752 320.919683 492.00752 322.799119 491.58416 324.262017 490.73492 325.777609 489.85292 326.610683 488.65088 326.610683 487.343 326.610683 486.04772 325.785137 484.85576 324.292128 483.98888 321.501831 482.37356 317.183396 482.33324 314.262619 483.84524L261.0061 452.96264C260.037526 452.40068 258.8381 452.40068 257.869526 452.96264L155.34872 512.40692 72.1843407 464.18924C73.1478963 463.39292 73.687387 462.43532 73.687387 461.3996 73.687387 460.10432 72.86435 458.91236 71.3688315 458.04548 68.4731463 456.36464 63.9163315 456.36968 60.9955537 458.06312 59.4824704 458.9426 58.646887 460.14212 58.646887 461.45M116.062063 247.721043C113.564567 249.129497 109.482987 249.127052 106.96547 247.703926 105.859364 247.080392 105.251256 246.288136 105.251256 245.473874 105.251256 244.671837 105.849354 243.891808 106.93544 243.280499 108.181686 242.576272 109.815819 242.226604 111.45746 242.226604 113.111614 242.226604 114.76827 242.581163 116.032033 243.295171 117.140641 243.918705 117.748749 244.710961 117.748749 245.525223 117.748749 246.329705 117.150651 247.109734 116.062063 247.721043M119 245.525223C119 244.256147 118.169169 243.087326 116.657659 242.236385 113.747249 240.593188 109.200204 240.588298 106.309815 242.219268 104.820826 243.060428 104.000006 244.214578 104.000006 245.473874 103.997503 246.742949 104.830836 247.909326 106.339845 248.765157 107.801305 249.589201 109.673177 250 111.540043 250 113.396899 250 115.246248 249.594091 116.687689 248.782274 118.179179 247.941114 119 246.782073 119 245.525223M195.967967 298.703302C194.861861 298.079598 194.251251 297.289573 194.251251 296.475089 194.251251 295.672835 194.851851 294.890148 195.937937 294.278673 197.18168 293.576701 198.815814 293.226937 200.454952 293.226937 202.111608 293.226937 203.768264 293.581592 205.03453 294.295795 206.138133 294.919498 206.748744 295.709523 206.748744 296.521561 206.751246 297.328708 206.150646 298.108949 205.06456 298.722869 202.564561 300.131706 198.482981 300.126815 195.967967 298.703302M205.690185 299.781943C207.179174 298.940554 208.002497 297.783645 207.999994 296.521561 207.999994 295.254586 207.169164 294.087893 205.660155 293.236721 202.744741 291.593078 198.200198 291.588186 195.312311 293.2196 193.820821 294.060988 193 295.215452 193 296.475089 193 297.742064 193.830831 298.911203 195.342341 299.764822 196.8013 300.589089 198.675674 301 200.545042 301 202.399396 301 204.248744 300.593981 205.690185 299.781943"/>
    <path d="M270.914016 377.494803C269.803182 376.853748 269.192474 376.03923 269.192474 375.204601 269.192474 374.377514 269.793129 373.575566 270.886371 372.94708 272.135432 372.223065 273.779066 371.863571 275.425212 371.863571 277.086438 371.863571 278.750177 372.228093 280.019344 372.962164 281.132692 373.60322 281.7434 374.417737 281.7434 375.25488 281.7434 376.081967 281.142744 376.883915 280.049502 377.512401 277.538814 378.962946 273.439783 378.955404 270.914016 377.494803zM270.258071 371.856029C268.760203 372.720826 267.935873 373.907407 267.935873 375.202087 267.935873 376.310736 268.571713 377.336425 269.687574 378.160998L200.788169 417.647499 96.8874139 357.974037 196.732636 300.16592C196.064124 299.816482 195.795212 299.610339 195.538865 299.401682L95.3141501 357.431025C95.1206336 357.544152 95 357.75281 95 357.976551 95 358.200292 95.1206336 358.406435 95.3166633 358.519562L200.474019 418.91704C200.896237 419 201.004305 418.972347 201.099806 418.91704L270.936635 378.892555C270.717987 378.791998 270.489285 378.701496 270.285716 378.585854 271.753426 379.433053 273.630787 379.855395 275.508148 379.855395 277.372943 379.855395 279.230199 379.438081 280.677802 378.603452 282.17567 377.738656 283 376.547047 283 375.25488 283 373.950144 282.165617 372.748479 280.647644 371.873627 277.724791 370.186771 273.165845 370.179229 270.258071 371.856029zM118.229748 249C118.016424 249.164331 117.81063 249.333718 117.557151 249.480352 117.383982 249.581478 117.185717 249.657323 117 249.748337L194.812917 295C195.068905 294.787634 195.339952 294.580324 195.658682 294.395768 195.766599 294.332564 195.889574 294.289585 196 294.231437L118.229748 249zM294.060046 75.8665221C291.556202 77.3052671 287.473358 77.3027693 284.949464 75.8490373 283.841657 75.2120929 283.232614 74.4052966 283.230108 73.5735221 283.230108 72.7542367 283.829126 71.9574317 284.919388 71.3304785 286.165044 70.611106 287.804197 70.2539175 289.448362 70.2539175 291.102553 70.2539175 292.764263 70.6161016 294.02997 71.3454654 295.137776 71.9824099 295.746819 72.7942018 295.746819 73.6259763 295.746819 74.4452617 295.147802 75.2420667 294.060046 75.8665221M160.080606 152.672031C157.579269 154.113273 153.493919 154.10578 150.972531 152.654546 149.864724 152.017601 149.253175 151.210805 149.253175 150.381528 149.253175 149.559745 149.852193 148.76294 150.939948 148.135987 152.188111 147.419112 153.824757 147.059426 155.466416 147.059426 157.12562 147.059426 158.78733 147.424108 160.053037 148.153472 161.160843 148.790416 161.769886 149.59971 161.769886 150.431485 161.769886 151.25077 161.170869 152.047575 160.080606 152.672031M294.656557 70.2639088C291.741672 68.582875 287.187635 68.5803772 284.2928 70.246424 282.799016 71.1081724 281.976933 72.2871441 281.976933 73.5735221 281.976933 74.595131 282.515798 75.5468009 283.478237 76.3336146L160.632003 147.049435C160.647042 147.056928 160.664586 147.061924 160.679624 147.071915 157.767246 145.395877 153.213208 145.385886 150.313361 147.051932 148.822083 147.913681 148 149.092653 148 150.381528 148 151.677898 148.834615 152.866861 150.345943 153.7386 151.809652 154.580366 153.684402 155 155.554139 155 157.411344 155 159.266043 154.585362 160.707194 153.756085 162.200978 152.896834 163.023061 151.715365 163.023061 150.431485 163.023061 149.487308 162.571918 148.600582 161.744823 147.848737L161.747329 147.848737 284.666247 77.0929523C286.077322 77.8148227 287.799184 78.1944915 289.533578 78.1944915 291.390783 78.1944915 293.245482 77.7798532 294.686633 76.9505765 296.177912 76.091326 296.999994 74.9098565 296.999994 73.6259763 297.002501 72.329607 296.167886 71.1356484 294.656557 70.2639088"/>
    <path d="M46.9878087 92.6783263C45.8743083 92.0381744 45.2596158 91.224805 45.2596158 90.3913524 45.2596158 89.5654309 45.8642314 88.7621031 46.9575779 88.1345032 48.2096361 87.4140186 49.8572135 87.0550314 51.5073103 87.0550314 53.1725224 87.0550314 54.842773 87.4190394 56.1149849 88.152076 57.2284853 88.7922279 57.8431778 89.6055973 57.8406586 90.4415604 57.8406586 91.2674818 57.2385622 92.0682992 56.1452157 92.6958991 53.6310225 94.1418892 49.5221557 94.1393788 46.9878087 92.6783263zM106.872464 6.88040275C105.758964 6.24025088 105.144271 5.42939184 105.144271 4.59593921 105.141752 3.77001777 105.746367 2.96920033 106.839714 2.33909006 108.091772 1.6186054 109.739349 1.25710788 111.389446 1.25710788 113.054658 1.25710788 114.724909 1.6236262 115.997121 2.35666286 117.110621 2.99681473 117.725314 3.81018416 117.725314 4.6461472 117.725314 5.46955823 117.120698 6.27037567 116.027352 6.89797554 113.513158 8.34396565 109.406811 8.34145525 106.872464 6.88040275zM57.6265239 93.1804062C57.3695623 93.3912798 57.094966 93.5971325 56.7750236 93.7829021 58.2739664 92.9218351 59.1002744 91.7344161 59.1002744 90.4415604 59.1002744 89.4173174 58.5687165 88.465876 57.6088893 87.6776105L155.055288 31.6128586C155.647308 31.2714442 156 30.6639276 156 29.9836093 156 29.303291 155.649827 28.693264 155.05025 28.3468288L117.516218 7.37746185C118.460929 6.599238 118.98493 5.65783819 118.98493 4.6461472 118.98493 3.34324986 118.148545 2.1457893 116.626929 1.26965987 113.699582-.414818188 109.124657-.424859786 106.209906 1.24957668 104.710963 2.1156645 103.882136 3.30057307 103.884655 4.59593921 103.884655 5.89883654 104.72104 7.0937867 106.242656 7.96991613 107.711368 8.81592076 109.598273 9.23766787 111.477619 9.23766787 113.208331 9.23766787 114.921409 8.86110795 116.319583 8.14564409L154.42548 29.4363422C154.710153 29.6020286 154.740384 29.8731517 154.740384 29.9810989 154.740384 30.0890461 154.710153 30.3626796 154.42548 30.5233452L56.419812 86.9094283C56.5231005 86.9646571 56.6415043 87.0048235 56.7447928 87.065073 53.8124072 85.3780846 49.2374826 85.3730638 46.32777 87.0475002 44.826308 87.9110777 44 89.0984966 44 90.3913524 44 91.6917393 44.8363849 92.8917103 46.3580008 93.7678397 47.8267129 94.6138443 49.7136173 95.033081 51.5929641 95.033081 53.3236763 95.033081 55.0367538 94.6590315 56.4349273 93.9435677L150.309056 148C150.578614 147.771554 150.873364 147.555659 151.21346 147.359848 151.299114 147.30964 151.399883 147.274495 151.490575 147.226797L57.6265239 93.1804062zM30.2531749 615.625976C30.2531749 614.794202 30.862218 613.984908 31.972531 613.347963 33.2357313 612.618599 34.8974413 612.253917 36.5541386 612.253917 38.1957977 612.253917 39.8349506 612.613604 41.0806064 613.330478 42.1708686 613.957432 42.7698863 614.754237 42.7698863 615.573522 42.7698863 616.405297 42.1583369 617.214591 41.0505302 617.851535 38.5291423 619.305267 34.4437919 619.307765 31.9399484 617.866522 30.8521926 617.242067 30.2531749 616.445262 30.2531749 615.625976M164.230108 692.431485C164.230108 691.59971 164.841657 690.792914 165.949464 690.15597 167.215171 689.426606 168.876881 689.059426 170.533578 689.059426 172.175237 689.059426 173.81439 689.419112 175.060046 690.135987 176.147802 690.76294 176.749326 691.559745 176.746819 692.381528 176.746819 693.213303 176.137776 694.020099 175.02997 694.657044 172.506075 696.108278 168.420725 696.115771 165.919388 694.672031 164.829126 694.047575 164.230108 693.25077 164.230108 692.431485M29 615.625976C29 616.912354 29.8220828 618.091326 31.3133609 618.950577 32.7570185 619.779853 34.609211 620.194492 36.4664163 620.194492 38.2008104 620.194492 39.9226728 619.819818 41.3312414 619.09545L164.252665 689.853733 164.252665 689.851235C163.428076 690.60308 162.976933 691.487308 162.976933 692.431485 162.976933 693.717863 163.799016 694.896834 165.2928 695.756085 166.736458 696.585362 168.58865 697 170.445856 697 172.318099 697 174.192849 696.580366 175.656557 695.7386 177.167886 694.869358 177.999994 693.677898 177.999994 692.381528 178.002501 691.09515 177.180418 689.913681 175.686633 689.051932 172.789293 687.385886 168.235255 687.395877 165.322877 689.071915 165.335408 689.061924 165.352953 689.056928 165.367991 689.051932L42.5217576 618.336112C43.484196 617.549299 44.0230612 616.597629 44.0230612 615.573522 44.0230612 614.289642 43.2009784 613.108172 41.7071939 612.246424 38.8123598 610.580377 34.2608284 610.582875 31.3459435 612.263909 29.8321082 613.138146 29 614.329607 29 615.625976"/>
    <path d="M270.857032,635.695899 C269.763661,635.068299 269.161551,634.267482 269.161551,633.444071 C269.159032,632.608108 269.773738,631.792228 270.887263,631.152076 C272.159504,630.419039 273.829792,630.055031 275.492522,630.055031 C277.145175,630.055031 278.792789,630.414019 280.044875,631.137014 C281.138246,631.764613 281.740356,632.565431 281.740356,633.391352 C281.740356,634.224805 281.128169,635.038174 280.014644,635.678326 C277.477721,637.139379 273.371281,637.141889 270.857032,635.695899 Z M210.971037,549.897976 C209.877666,549.270376 209.275556,548.469558 209.275556,547.646147 C209.275556,546.810184 209.887743,545.999325 211.003788,545.359173 C212.276028,544.626137 213.946316,544.257108 215.611565,544.257108 C217.261699,544.257108 218.906794,544.618605 220.15888,545.33909 C221.25477,545.9692 221.85688,546.770018 221.85688,547.595939 C221.85688,548.429392 221.242174,549.242761 220.128649,549.880403 C217.594245,551.341455 213.487806,551.343966 210.971037,549.897976 Z M175.509539,690.231818 C175.597714,690.277005 175.698486,690.312151 175.786661,690.359848 C176.124245,690.55817 176.421521,690.774064 176.688566,691 L270.564794,636.943568 C271.962999,637.659032 273.678634,638.035591 275.409385,638.035591 C277.288774,638.035591 279.173202,637.613844 280.644466,636.76784 C282.163596,635.89171 283,634.69425 283,633.391352 C283,632.098497 282.176193,630.911078 280.674697,630.0475 C277.76492,628.373064 273.187373,628.378085 270.257441,630.065073 C270.358213,630.004823 270.476619,629.967167 270.582429,629.909428 L172.572049,573.523345 C172.289889,573.36268 172.259657,573.091556 172.259657,572.983609 C172.257138,572.875662 172.289889,572.602029 172.574568,572.436342 L210.681319,551.148154 C212.079524,551.863618 213.792639,552.237668 215.52339,552.237668 C217.402779,552.237668 219.287206,551.815921 220.758471,550.969916 C222.277601,550.093787 223.116524,548.898837 223.116524,547.595939 C223.116524,546.303083 222.290198,545.115665 220.788702,544.249577 C217.876405,542.57514 213.301378,542.585182 210.373966,544.26966 C208.852316,545.145789 208.015912,546.34325 208.015912,547.646147 C208.015912,548.660349 208.539924,549.601748 209.484657,550.382483 L171.949785,571.346829 C171.350194,571.693264 170.997494,572.303291 171.000013,572.98612 C171.000013,573.663928 171.352714,574.271444 171.942227,574.612859 L269.390806,630.677611 C268.433477,631.465876 267.899388,632.419828 267.901907,633.444071 C267.901907,634.734416 268.728233,635.921835 270.22721,636.785412 C269.90726,636.599643 269.632658,636.39379 269.373171,636.180406 L175.509539,690.231818 Z"/>
  </g>
</svg>
