<?xml version="1.0" encoding="UTF-8"?>
<svg width="1500px" height="998px" viewBox="0 0 1500 998" version="1.1" xmlns="http://www.w3.org/2000/svg" xmlns:xlink="http://www.w3.org/1999/xlink">
    <!-- Generator: Sketch 49.1 (51147) - http://www.bohemiancoding.com/sketch -->
    <title>pattern_lightpurple</title>
    <desc>Created with Sketch.</desc>
    <defs></defs>
    <g id="Page-1" stroke="none" stroke-width="1" fill="none" fill-rule="evenodd">
        <g id="patterns" transform="translate(-106.000000, -1229.000000)" fill="#2F2983">
            <g id="pattern_lightpurple" transform="translate(106.000000, 1229.000000)">
                <path d="M716.547794,327.297469 C712.707941,329.524053 706.432591,329.508617 702.561957,327.266598 C700.861341,326.282579 699.926387,325.036155 699.926387,323.751141 C699.926387,322.485423 700.845951,321.254434 702.519634,320.28971 C704.431866,319.178347 706.944314,318.626525 709.464458,318.626525 C712.007687,318.626525 714.554764,319.186065 716.501623,320.312863 C718.202239,321.296882 719.141041,322.547165 719.141041,323.828319 C719.141041,325.097897 718.221477,326.328885 716.547794,327.297469 M331.323613,363.555675 C331.323613,364.829112 330.404049,366.0601 328.730366,367.024825 C324.89436,369.251409 318.61901,369.239832 314.744529,366.997813 C313.043913,366.013794 312.108959,364.763511 312.108959,363.478497 C312.108959,362.212779 313.028523,360.98179 314.702206,360.017066 C316.614438,358.905703 319.126886,358.353881 321.650878,358.353881 C324.190259,358.353881 326.741183,358.913421 328.684195,360.040219 C330.388659,361.024238 331.323613,362.274521 331.323613,363.555675 M717.46351,318.64196 C712.981117,316.048781 705.997818,316.041063 701.557747,318.614948 C699.264609,319.942409 698.002613,321.763809 698.002613,323.751141 C698.002613,325.329431 698.829836,326.799671 700.303447,328.019083 L572.788018,401.855239 L415.58491,310.827692 C414.103604,309.971016 412.260628,309.971016 410.775475,310.827692 L329.118968,358.114629 C324.636575,355.803149 318.018793,355.861033 313.740319,358.342304 C311.447181,359.669765 310.185185,361.491165 310.185185,363.478497 C310.185185,365.481266 311.462571,367.32196 313.782642,368.672574 C316.02961,369.973023 318.907576,370.621318 321.777847,370.621318 C324.632727,370.621318 327.479913,369.980741 329.692253,368.699587 C331.985391,367.372126 333.247387,365.543008 333.247387,363.555675 C333.247387,361.973527 332.420164,360.503287 330.942706,359.291593 L411.737362,312.502453 C412.629993,311.981502 413.734239,311.981502 414.623023,312.502453 L572.307074,403.807842 C572.457129,403.896596 572.622573,403.935185 572.788018,403.935185 C572.953462,403.935185 573.122754,403.896596 573.268961,403.807842 L702.131032,329.192188 C704.289506,330.307409 706.940467,330.893962 709.599122,330.893962 C712.454003,330.893962 715.297341,330.253385 717.509681,328.972231 C719.802819,327.640911 721.064815,325.815652 721.064815,323.828319 C721.064815,321.825551 719.783581,319.984857 717.46351,318.64196" id="Fill-1"></path>
                <path d="M384.146651,901.869198 C387.986503,899.642614 394.261854,899.658049 398.132487,901.900069 C399.833103,902.884088 400.768057,904.130512 400.768057,905.415525 C400.768057,906.681244 399.848493,907.912232 398.17481,908.876957 C396.262579,909.988319 393.75013,910.540142 391.229986,910.540142 C388.686757,910.540142 386.139681,909.980602 384.192821,908.853803 C382.492205,907.869784 381.553404,906.619501 381.553404,905.338347 C381.553404,904.06877 382.472967,902.837781 384.146651,901.869198 M769.370832,865.610991 C769.370832,864.337555 770.290396,863.106566 771.964079,862.141842 C775.800084,859.915258 782.075434,859.926834 785.949915,862.168854 C787.650531,863.152873 788.585485,864.403156 788.585485,865.688169 C788.585485,866.953888 787.665921,868.184876 785.992238,869.149601 C784.080007,870.260963 781.567558,870.812786 779.043567,870.812786 C776.504185,870.812786 773.953261,870.253246 772.010249,869.126447 C770.305786,868.142428 769.370832,866.892145 769.370832,865.610991 M383.230934,910.524706 C387.713328,913.117886 394.696627,913.125604 399.136697,910.551719 C401.429835,909.224258 402.691831,907.402858 402.691831,905.415525 C402.691831,903.837236 401.864608,902.366996 400.390998,901.147584 L527.906427,827.311428 L685.109535,918.338975 C686.590841,919.19565 688.433816,919.19565 689.91897,918.338975 L771.575477,871.052038 C776.05787,873.363518 782.675652,873.305634 786.954125,870.824363 C789.247264,869.496902 790.509259,867.675502 790.509259,865.688169 C790.509259,863.685401 789.231873,861.844707 786.911802,860.494092 C784.664834,859.193644 781.786868,858.545349 778.916598,858.545349 C776.061717,858.545349 773.214532,859.185926 771.002192,860.46708 C768.709053,861.794541 767.447058,863.623659 767.447058,865.610991 C767.447058,867.193139 768.274281,868.66338 769.751739,869.875074 L688.957083,916.664213 C688.064452,917.185164 686.960205,917.185164 686.071422,916.664213 L528.38737,825.358825 C528.237316,825.27007 528.071871,825.231481 527.906427,825.231481 C527.740982,825.231481 527.57169,825.27007 527.425483,825.358825 L398.563412,899.974479 C396.404938,898.859257 393.753978,898.272705 391.095322,898.272705 C388.240442,898.272705 385.397104,898.913282 383.184764,900.194436 C380.891625,901.525756 379.62963,903.351015 379.62963,905.338347 C379.62963,907.341115 380.910863,909.18181 383.230934,910.524706" id="Fill-3"></path>
                <path d="M1357.75529,565.723395 C1353.91156,567.949979 1347.64,567.934543 1343.76933,565.692524 C1342.0687,564.708505 1341.13373,563.46208 1341.13373,562.177067 C1341.13373,560.911349 1342.05331,559.68036 1343.72316,558.715636 C1345.63541,557.604273 1348.14788,557.052451 1350.66804,557.052451 C1353.2113,557.052451 1355.76225,557.611991 1357.70528,558.738789 C1359.40976,559.722808 1360.34472,560.973091 1360.34472,562.254245 C1360.34857,563.523823 1359.42899,564.754811 1357.75529,565.723395 M972.523675,601.981601 C972.523675,603.255038 971.604102,604.486026 969.934251,605.450751 C966.094362,607.677335 959.818953,607.665758 955.948284,605.423738 C954.247652,604.439719 953.312689,603.189436 953.312689,601.904423 C953.312689,600.638705 954.232262,599.407716 955.902113,598.442992 C957.814362,597.331629 960.330682,596.779807 962.850849,596.779807 C965.394102,596.779807 967.94505,597.339347 969.884232,598.466145 C971.588712,599.450164 972.523675,600.700447 972.523675,601.981601 M1358.66717,557.067886 C1354.18858,554.474707 1347.20137,554.466989 1342.76126,557.040874 C1340.4681,558.368335 1339.20994,560.189735 1339.20994,562.177067 C1339.20994,563.755357 1340.03332,565.225597 1341.5108,566.445009 L1213.99418,640.281165 L1056.7896,549.253618 C1055.30828,548.396942 1053.46529,548.396942 1051.98012,549.253618 L970.322857,596.540555 C965.840422,594.229075 959.21873,594.286959 954.940217,596.76823 C952.650905,598.095691 951.388898,599.917091 951.388898,601.904423 C951.38505,603.907191 952.666295,605.747886 954.986388,607.0985 C957.22953,608.398949 960.107522,609.047244 962.981667,609.047244 C965.836574,609.047244 968.679939,608.406667 970.896147,607.125513 C973.189307,605.798052 974.447466,603.968934 974.447466,601.981601 C974.447466,600.399453 973.624084,598.929213 972.142764,597.717519 L1052.94202,550.928379 C1053.83466,550.407428 1054.93892,550.407428 1055.82771,550.928379 L1213.51323,642.233767 C1213.65944,642.322522 1213.82873,642.361111 1213.99418,642.361111 C1214.15962,642.361111 1214.32507,642.322522 1214.47513,642.233767 L1343.33455,567.618114 C1345.49689,568.733335 1348.14403,569.319888 1350.80656,569.319888 C1353.65762,569.319888 1356.50098,568.679311 1358.71719,567.398157 C1361.01035,566.066837 1362.27236,564.241578 1362.26851,562.254245 C1362.26851,560.251477 1360.99111,558.410783 1358.66717,557.067886" id="Fill-5"></path>
                <path d="M1357.75529,60.7233948 C1353.91156,62.949979 1347.64,62.9345434 1343.76933,60.6925236 C1342.0687,59.7085046 1341.13373,58.4620805 1341.13373,57.1770674 C1341.13373,55.9113488 1342.05331,54.6803603 1343.72316,53.7156358 C1345.63541,52.6042731 1348.14788,52.0524507 1350.66804,52.0524507 C1353.2113,52.0524507 1355.76225,52.6119909 1357.70528,53.7387892 C1359.40976,54.7228082 1360.34472,55.9730912 1360.34472,57.2542454 C1360.34857,58.5238228 1359.42899,59.7548113 1357.75529,60.7233948 M972.523675,96.9816013 C972.523675,98.2550377 971.604102,99.4860262 969.934251,100.450751 C966.094362,102.677335 959.818953,102.665758 955.948284,100.423738 C954.247652,99.4397194 953.312689,98.1894365 953.312689,96.9044234 C953.312689,95.6387048 954.232262,94.4077163 955.902113,93.4429918 C957.814362,92.3316291 960.330682,91.7798067 962.850849,91.7798067 C965.394102,91.7798067 967.94505,92.3393469 969.884232,93.4661452 C971.588712,94.4501642 972.523675,95.7004472 972.523675,96.9816013 M1358.66717,52.0678863 C1354.18858,49.4747068 1347.20137,49.466989 1342.76126,52.040874 C1340.4681,53.368335 1339.20994,55.1897349 1339.20994,57.1770674 C1339.20994,58.7553567 1340.03332,60.2255969 1341.5108,61.4450087 L1213.99418,135.281165 L1056.7896,44.2536176 C1055.30828,43.3969423 1053.46529,43.3969423 1051.98012,44.2536176 L970.322857,91.540555 C965.840422,89.2290751 959.21873,89.2869585 954.940217,91.76823 C952.650905,93.095691 951.388898,94.9170909 951.388898,96.9044234 C951.38505,98.9071915 952.666295,100.747886 954.986388,102.0985 C957.22953,103.398949 960.107522,104.047244 962.981667,104.047244 C965.836574,104.047244 968.679939,103.406667 970.896147,102.125513 C973.189307,100.798052 974.447466,98.9689339 974.447466,96.9816013 C974.447466,95.3994531 973.624084,93.9292129 972.142764,92.7175189 L1052.94202,45.9283794 C1053.83466,45.4074282 1054.93892,45.4074282 1055.82771,45.9283794 L1213.51323,137.233767 C1213.65944,137.322522 1213.82873,137.361111 1213.99418,137.361111 C1214.15962,137.361111 1214.32507,137.322522 1214.47513,137.233767 L1343.33455,62.6181137 C1345.49689,63.7333353 1348.14403,64.3198878 1350.80656,64.3198878 C1353.65762,64.3198878 1356.50098,63.6793107 1358.71719,62.3981565 C1361.01035,61.0668367 1362.27236,59.2415779 1362.26851,57.2542454 C1362.26851,55.2514772 1360.99111,53.4107828 1358.66717,52.0678863" id="Fill-5"></path>
                <path d="M603.331728,500.819644 C599.670275,503.174313 593.686477,503.170225 589.995674,500.791029 C588.374068,499.748597 587.482552,498.424096 587.482552,497.062803 C587.482552,495.72195 588.359393,494.417888 589.951648,493.395897 C591.778706,492.218562 594.174426,491.633983 596.577484,491.633983 C599.002555,491.633983 601.434964,492.226738 603.287703,493.420424 C604.912977,494.462856 605.804493,495.787357 605.804493,497.14865 C605.804493,498.493591 604.927652,499.797653 603.331728,500.819644 M607.638889,497.14865 C607.638889,495.026995 606.42085,493.072947 604.204901,491.650335 C599.934428,488.903221 593.271904,488.895045 589.03445,491.621719 C586.85152,493.02798 585.648156,494.9575 585.648156,497.062803 C585.644488,499.184458 586.866195,501.134418 589.078476,502.565206 C591.217381,503.942851 593.961637,504.62963 596.702223,504.62963 C599.424466,504.62963 602.135703,503.951027 604.248926,502.593822 C606.435525,501.187562 607.638889,499.249865 607.638889,497.14865" id="Fill-7"></path>
                <path d="M726.573408,579.493689 C724.951803,578.450974 724.056618,577.130202 724.056618,575.768539 C724.056618,574.427322 724.937127,573.118817 726.525714,572.096547 C728.349103,570.922982 730.748492,570.338244 733.15155,570.338244 C735.576621,570.338244 738.009029,570.93116 739.861769,572.125171 C741.483374,573.167886 742.378559,574.488658 742.378559,575.846232 C742.382228,577.195627 741.501718,578.500043 739.909463,579.526402 C736.244341,581.881711 730.260543,581.873533 726.573408,579.493689 M740.826661,581.296973 C743.009591,579.89033 744.216623,577.956196 744.212955,575.846232 C744.212955,573.728089 742.994916,571.777599 740.778966,570.3546 C736.508494,567.60674 729.84597,567.598562 725.608516,570.325977 C723.425586,571.732619 722.222222,573.662664 722.222222,575.768539 C722.222222,577.886682 723.440261,579.841261 725.65621,581.268349 C727.795116,582.646368 730.54304,583.333333 733.283627,583.333333 C735.998532,583.333333 738.713437,582.654546 740.826661,581.296973" id="Fill-9"></path>
                <path d="M855.43074,698.222523 C851.581984,700.437505 845.298378,700.425988 841.426505,698.195651 C839.723652,697.21676 838.787468,695.972992 838.787468,694.698514 C838.787468,693.435552 839.708241,692.210978 841.384127,691.25128 C843.298873,690.145709 845.81848,689.596762 848.341939,689.596762 C850.888514,689.596762 853.438941,690.153386 855.384509,691.274313 C857.091215,692.253204 858.027399,693.496972 858.027399,694.775289 C858.027399,696.038251 857.106625,697.262825 855.43074,698.222523 M856.347661,689.612117 C851.867077,687.036289 844.878443,687.024772 840.420974,689.585245 C838.124819,690.905789 836.861163,692.717698 836.861163,694.694675 C836.861163,696.387581 837.839726,697.953808 839.546432,699.212931 L733.927146,759.508805 L574.652569,668.387447 L726.522431,581.028103 C726.345211,580.939811 726.15258,580.874552 725.986918,580.774743 C725.497636,580.494511 725.08926,580.183569 724.692441,579.861111 L572.240835,667.558268 C571.944185,667.731014 571.759259,668.049634 571.759259,668.391286 C571.759259,668.732938 571.944185,669.047719 572.244688,669.220464 L733.449422,761.447394 C733.595821,761.531847 733.761484,761.574074 733.927146,761.574074 C734.092808,761.574074 734.25847,761.531847 734.408722,761.447394 L841.461179,700.330019 C841.126002,700.176467 840.775414,700.042109 840.463353,699.861686 C842.713277,701.155358 845.591176,701.800275 848.469075,701.800275 C851.327711,701.800275 854.17479,701.163036 856.393893,699.888558 C858.690048,698.568014 859.953704,696.748428 859.953704,694.775289 C859.953704,692.782957 858.674637,690.948016 856.347661,689.612117" id="Fill-11"></path>
                <path d="M607.197811,500 C606.868951,500.244281 606.559211,500.500012 606.172991,500.721392 C605.905315,500.874067 605.607047,500.992391 605.324074,501.125982 L725.832397,570.905762 C726.218617,570.585143 726.635427,570.272158 727.121069,569.993526 C727.285499,569.898104 727.469049,569.833216 727.641127,569.749245 L607.197811,500 Z" id="Fill-13"></path>
                <path d="M836.128567,469.286535 C836.128567,470.647828 835.23705,471.968241 833.611775,473.010673 C831.762704,474.204359 829.330295,474.801202 826.905223,474.801202 C824.502164,474.801202 822.102774,474.212535 820.279384,473.039289 C818.68346,472.017297 817.806618,470.713235 817.806618,469.372382 C817.806618,468.011089 818.698135,466.6825 820.319741,465.640068 C824.010546,463.260872 829.994346,463.256784 833.655801,465.615541 C835.251725,466.637532 836.128567,467.941594 836.128567,469.286535 M834.572999,463.841363 C832.463443,462.484158 829.748537,461.805556 827.029962,461.805556 C824.289374,461.805556 821.545118,462.492334 819.402543,463.869979 C817.190261,465.296679 815.972222,467.250727 815.972222,469.372382 C815.972222,471.473597 817.175586,473.407206 819.362186,474.813466 C823.595973,477.54014 830.262168,477.531964 834.528973,474.78485 C836.744924,473.35815 837.962963,471.40819 837.962963,469.286535 C837.962963,467.181232 836.759599,465.247624 834.572999,463.841363" id="Fill-15"></path>
                <path d="M969.072468,386.911837 C970.668392,387.937917 971.545234,389.241978 971.545234,390.586919 C971.545234,391.944124 970.650048,393.268625 969.028442,394.311057 C967.172033,395.504743 964.743293,396.097499 962.318221,396.097499 C959.915162,396.097499 957.519441,395.512919 955.696051,394.335585 C954.100126,393.313593 953.223285,392.009532 953.223285,390.668679 C953.223285,389.307386 954.114802,387.986972 955.736408,386.944541 C959.423544,384.565344 965.407344,384.557168 969.072468,386.911837 M962.446629,383.101852 C959.706041,383.101852 956.961784,383.792718 954.81921,385.170363 C952.606928,386.597064 951.388889,388.547024 951.388889,390.668679 C951.388889,392.773981 952.592253,394.703502 954.778853,396.109762 C959.00897,398.836436 965.671497,398.82826 969.94564,396.081147 C972.157922,394.658534 973.37963,392.708574 973.37963,390.586919 C973.37963,388.481616 972.176266,386.548008 969.989666,385.137659 C967.88011,383.780454 965.168873,383.101852 962.446629,383.101852" id="Fill-17"></path>
                <path d="M1087.19407,271.659896 C1087.19407,272.938213 1086.25788,274.178142 1084.55118,275.157033 C1082.60946,276.27796 1080.05518,276.838423 1077.50861,276.838423 C1074.98515,276.838423 1072.46554,276.285638 1070.55079,275.183905 C1068.87491,274.224207 1067.95413,272.999633 1067.95413,271.736672 C1067.95413,270.462193 1068.89032,269.214587 1070.59317,268.235695 C1074.46504,266.005358 1080.74865,265.993842 1084.59741,268.212662 C1086.27329,269.17236 1087.19407,270.396934 1087.19407,271.659896 M1089.12037,271.659896 C1089.12037,269.682919 1087.85671,267.867171 1085.56056,266.546627 C1083.34146,265.272149 1080.49438,264.63491 1077.63959,264.63491 C1074.75784,264.63491 1071.87994,265.279827 1069.63002,266.573499 C1069.94208,266.393076 1070.28882,266.258718 1070.62399,266.105167 L963.571536,204.987791 C963.425137,204.899499 963.259475,204.861111 963.093812,204.861111 C962.92815,204.861111 962.762488,204.899499 962.612236,204.987791 L801.407502,297.210882 C801.110851,297.383627 800.925926,297.698408 800.925926,298.043899 C800.925926,298.385552 801.106999,298.704171 801.407502,298.876917 L953.86296,386.574074 C954.252074,386.251616 954.668156,385.940674 955.153585,385.656603 C955.323099,385.560634 955.511877,385.491535 955.685245,385.407082 L803.819236,298.047738 L963.093812,206.92638 L1068.7131,267.222254 C1067.00254,268.481378 1066.02783,270.043765 1066.02783,271.74051 C1066.02783,273.713648 1067.29149,275.529396 1069.58764,276.84994 C1074.04511,279.410413 1081.03374,279.398896 1085.51433,276.823068 C1087.8413,275.483331 1089.12037,273.652228 1089.12037,271.659896" id="Fill-19"></path>
                <path d="M837.51812,464.12037 C837.193074,463.87609 836.8795,463.620358 836.493268,463.398979 C836.229407,463.246303 835.927306,463.12798 835.648148,462.994389 L954.209732,394.675926 C954.599787,394.996544 955.016611,395.309529 955.502269,395.588162 C955.66288,395.679767 955.850259,395.748471 956.018519,395.832443 L837.51812,464.12037 Z" id="Fill-21"></path>
                <path d="M420.265787,525.581173 C416.438082,527.78855 410.18642,527.784718 406.324197,525.554348 C404.628961,524.577124 403.696964,523.339306 403.696964,522.063166 C403.696964,520.806188 404.613619,519.5837 406.282008,518.621804 C408.188189,517.518116 410.69269,516.970104 413.208696,516.970104 C415.740044,516.970104 418.282898,517.52578 420.219763,518.644798 C421.918834,519.622022 422.850831,520.867504 422.850831,522.143644 C422.850831,523.400622 421.934176,524.623111 420.265787,525.581173 M217.830822,639.981552 C217.830822,641.238531 216.910332,642.461019 215.245779,643.419082 C211.414239,645.630291 205.162576,645.618795 201.304188,643.392256 C199.608952,642.415032 198.676956,641.177215 198.676956,639.904907 C198.67312,638.644096 199.589775,637.421608 201.254328,636.459713 C203.164345,635.359857 205.672681,634.808012 208.181017,634.808012 C210.720036,634.808012 213.26289,635.367521 215.199754,636.486539 C216.89499,637.463763 217.830822,638.705412 217.830822,639.981552 M421.178607,516.985433 C416.718065,514.406327 409.753023,514.402495 405.323164,516.958607 C403.03728,518.280734 401.779277,520.089557 401.779277,522.063166 C401.779277,523.630557 402.603882,525.090645 404.072831,526.297805 L216.089562,634.792683 C216.112574,634.80418 216.135586,634.811845 216.158598,634.827174 C211.701892,632.255733 204.733014,632.240404 200.295484,634.796516 C198.013436,636.118643 196.755433,637.927465 196.759268,639.904907 C196.759268,641.893846 198.032613,643.717998 200.345344,645.055454 C202.585204,646.346922 205.454065,646.990741 208.315255,646.990741 C211.157268,646.990741 213.995446,646.354587 216.204623,645.082279 C218.490507,643.763985 219.74851,641.95133 219.74851,639.981552 C219.74851,638.532961 219.054307,637.172512 217.792468,636.022836 L405.894635,527.462809 C408.050116,528.57033 410.685019,529.152832 413.339099,529.152832 C416.184948,529.152832 419.01929,528.516678 421.224631,527.244371 C423.510515,525.926076 424.768519,524.113421 424.768519,522.143644 C424.768519,520.154705 423.495174,518.322889 421.178607,516.985433" id="Fill-23"></path>
                <path d="M55.4829735,552.962308 C51.6674966,555.178697 45.4257285,555.174849 41.571982,552.935373 C39.8804667,551.954159 38.9505159,550.70744 38.9505159,549.429938 C38.9505159,548.16398 39.8651588,546.936501 41.5298855,545.974527 C43.4318835,544.866332 45.9308869,544.316083 48.4413712,544.316083 C50.9671633,544.316083 53.5044364,544.874028 55.43705,545.997614 C57.1323923,546.978828 58.0623431,548.229394 58.0623431,549.510744 C58.0623431,550.772854 57.1477002,552.000334 55.4829735,552.962308 Z M146.453587,421.452728 C142.630456,423.669117 136.396342,423.665269 132.542595,421.425792 C130.85108,420.448427 129.917302,419.201708 129.917302,417.924206 C129.917302,416.658248 130.831945,415.430769 132.496672,414.464947 C134.39867,413.3606 136.897673,412.806503 139.408158,412.806503 C141.937777,412.806503 144.47505,413.372144 146.407663,414.49573 C148.099179,415.476944 149.029129,416.719814 149.029129,418.001164 C149.029129,419.263274 148.114487,420.490753 146.453587,421.452728 Z M57.7370517,553.704952 C57.342875,554.028175 56.9295636,554.343703 56.439713,554.632295 C58.7205798,553.308619 59.975822,551.488563 59.975822,549.510744 C59.975822,547.940802 59.1645069,546.478601 57.706436,545.270361 L205.740817,459.335275 C206.636325,458.811961 207.175926,457.88077 207.175926,456.841838 C207.175926,455.79521 206.640152,454.860171 205.729336,454.329161 L148.711492,422.191524 C150.146601,420.998676 150.942608,419.551867 150.942608,418.001164 C150.942608,416.004105 149.672058,414.168659 147.364403,412.825742 C142.917478,410.243803 135.963896,410.228412 131.539932,412.794959 C129.259066,414.122484 128.003823,415.942539 128.003823,417.924206 C128.003823,419.921265 129.2782,421.752864 131.585856,423.09578 C133.820799,424.392521 136.683364,425.038968 139.542101,425.038968 C142.167394,425.038968 144.769725,424.461783 146.893687,423.365133 L204.784077,455.999148 C205.216524,456.253109 205.262447,456.67253 205.262447,456.83799 C205.262447,457.003449 205.212697,457.419022 204.784077,457.665288 L55.9001119,544.092905 C56.0608442,544.177559 56.2368842,544.239125 56.3937895,544.331475 C51.9430376,541.745688 44.9932823,541.737992 40.573146,544.304539 C38.2922792,545.628216 37.037037,547.448271 37.037037,549.429938 C37.037037,551.426997 38.307587,553.262444 40.6152426,554.60536 C42.8501859,555.902101 45.7127503,556.548548 48.5676608,556.548548 C51.2006078,556.548548 53.8029391,555.971363 55.9230737,554.874713 L198.530828,637.731481 C198.936486,637.381323 199.388067,637.054252 199.900879,636.750268 C200.030996,636.677158 200.187901,636.623287 200.325672,636.550177 L57.7370517,553.704952 Z" id="Fill-25"></path>
                <path d="M558.001096,227.894898 C559.669484,228.856793 560.586139,230.079282 560.582303,231.340092 C560.582303,232.6124 559.650307,233.85405 557.951236,234.831274 C554.092848,237.057812 547.845021,237.069309 544.01348,234.854267 C542.345092,233.896204 541.428437,232.673716 541.428437,231.416738 C541.428437,230.140598 542.364269,228.90278 544.055669,227.925556 C545.992534,226.806539 548.535388,226.243198 551.074407,226.243198 C553.586578,226.243198 556.094914,226.795042 558.001096,227.894898 M352.931227,116.993365 C349.069004,119.223736 342.821177,119.227568 338.989636,117.016359 C337.325083,116.058296 336.408429,114.835807 336.408429,113.578829 C336.408429,112.302689 337.340425,111.061039 339.035661,110.083815 C340.972526,108.964798 343.51538,108.405289 346.046728,108.405289 C348.56657,108.405289 351.07107,108.957133 352.977252,110.05699 C354.64564,111.018885 355.562295,112.241373 355.562295,113.498352 C355.562295,114.774491 354.630299,116.016141 352.931227,116.993365 M543.096826,226.262359 C543.119838,226.24703 543.146685,226.239365 543.169698,226.227869 L355.182593,117.736822 C356.655377,116.52583 357.479983,115.069575 357.479983,113.498352 C357.479983,111.528574 356.22198,109.715919 353.936096,108.393792 C349.506237,105.83768 342.537359,105.841513 338.076817,108.420618 C335.764085,109.761906 334.490741,111.58989 334.490741,113.578829 C334.490741,115.552439 335.748744,117.361261 338.030793,118.679556 C340.239969,119.951863 343.074312,120.588017 345.916325,120.588017 C348.570405,120.588017 351.205308,120.009347 353.364625,118.901827 L541.462955,227.461854 C540.201117,228.611529 539.510749,229.968146 539.510749,231.416738 C539.510749,233.390347 540.768752,235.19917 543.054636,236.517465 C545.263813,237.789772 548.098155,238.425926 550.940169,238.425926 C553.801359,238.425926 556.67022,237.782108 558.91008,236.490639 C561.226647,235.157015 562.499991,233.329031 562.499991,231.340092 C562.503827,229.366483 561.245823,227.553828 558.959939,226.231701 C554.526245,223.675589 547.553532,223.690918 543.096826,226.262359" id="Fill-27"></path>
                <path d="M719.660884,142.243678 C715.765687,144.475353 709.456783,144.479188 705.600267,142.27052 C703.921502,141.311896 702.993153,140.088693 702.993153,138.827145 C702.993153,137.550258 703.936975,136.307882 705.646684,135.330086 C707.600085,134.210414 710.164649,133.654413 712.717608,133.654413 C715.255095,133.654413 717.784846,134.202745 719.707302,135.303245 C721.386066,136.261868 722.314415,137.488906 722.314415,138.750455 C722.314415,140.023506 720.492422,141.903796 718.782713,142.881591 M613.697593,4.2824374 C615.650993,3.1627653 618.215557,2.60292925 620.776253,2.60292925 C623.309872,2.60292925 625.835755,3.15509631 627.75821,4.25559594 C629.440843,5.2180538 630.365324,6.44125722 630.365324,7.70280558 C630.365324,8.97585741 629.421502,10.2143988 627.711793,11.1921946 C623.820464,13.4238698 617.515427,13.4277043 613.655043,11.2190361 C611.972411,10.2604127 611.04793,9.03720931 611.04793,7.77949545 C611.04793,6.50260912 611.987883,5.26023323 613.697593,4.2824374 Z M704.679654,133.669751 C704.838247,133.577723 705.01618,133.516371 705.178641,133.432012 L554.697151,47.3054542 C554.260054,47.0600466 554.213636,46.6420868 554.213636,46.4772036 C554.213636,46.3123204 554.256186,45.8981951 554.697151,45.6451185 L613.206341,13.1247794 C615.353148,14.21761 617.98347,14.792784 620.637001,14.792784 C623.526487,14.792784 626.423709,14.1485891 628.678823,12.8563648 C631.0113,11.5181266 632.299384,9.69290769 632.299384,7.70280558 C632.299384,5.72420694 631.03064,3.91432602 628.725241,2.59142577 C624.253693,0.0338186236 617.229187,0.0491565975 612.730562,2.62210172 C610.398086,3.96033994 609.11387,5.78939333 609.11387,7.77949545 C609.11387,9.32863081 609.918439,10.7665659 611.368984,11.9552588 L553.737857,43.9809484 C552.817245,44.5101085 552.279576,45.4418904 552.279576,46.4810381 C552.279576,47.5201858 552.821113,48.4481333 553.730121,48.9696244 L703.34902,134.605367 C701.879135,135.809398 701.059093,137.266506 701.059093,138.827145 C701.059093,140.801909 702.331705,142.615624 704.633236,143.930855 C704.138117,143.647103 703.72036,143.332674 703.321944,143.010577 L558.32534,226.2013 C559.273029,226.703619 559.725599,227.033385 560.13562,227.382324 L705.155433,144.176263 C707.30224,145.269094 709.928693,145.840433 712.58996,145.840433 C715.475578,145.840433 718.368932,145.200073 720.627915,143.907848 C722.964259,142.56961 724.248475,140.736722 724.248475,138.750455 C724.248475,136.775691 722.975864,134.961975 720.674332,133.642909 C716.202785,131.085302 709.178278,131.092971 704.679654,133.669751 Z" id="Fill-29"></path>
                <path d="M1174.89542,724.651245 C1172.98924,725.751085 1170.48473,726.306754 1167.96873,726.306754 C1165.43355,726.306754 1162.89069,725.743421 1160.95383,724.620588 C1159.25859,723.64721 1158.32659,722.405578 1158.32659,721.133289 C1158.32659,719.876329 1159.24325,718.650026 1160.91164,717.691977 C1164.73934,715.4808 1170.98717,715.488464 1174.84939,717.718802 C1176.54463,718.69218 1177.48046,719.937644 1177.48046,721.209933 C1177.48046,722.466893 1176.56381,723.693196 1174.89542,724.651245 M972.460452,839.049963 C972.460452,840.306923 971.539961,841.525561 969.875408,842.491275 C967.969227,843.591115 965.460891,844.139119 962.944885,844.139119 C960.409701,844.139119 957.870682,843.583451 955.933818,842.460617 C954.238582,841.487239 953.306585,840.245608 953.306585,838.965654 C953.306585,837.708694 954.22324,836.490056 955.883958,835.532007 C959.715498,833.32083 965.967161,833.32083 969.825549,835.551168 C971.52462,836.53221 972.456616,837.770009 972.460452,839.049963 M1179.39815,721.209933 C1179.39815,719.217191 1178.12097,717.389234 1175.80824,716.059462 C1173.56838,714.764179 1170.69952,714.12037 1167.83449,714.12037 C1164.99248,714.12037 1162.15813,714.756515 1159.95279,716.028804 C1157.66691,717.347079 1156.40891,719.155876 1156.40891,721.133289 C1156.40891,722.578027 1157.09544,723.934625 1158.35728,725.088116 L970.262781,833.642734 C968.103465,832.535229 965.468562,831.9604 962.814482,831.9604 C959.972468,831.9604 957.13429,832.596545 954.925114,833.868834 C952.646901,835.187109 951.388898,836.995906 951.388898,838.965654 C951.385062,840.958396 952.662242,842.782522 954.974974,844.12379 C959.435516,846.70669 966.404393,846.70669 970.834252,844.154448 C973.120136,842.828508 974.37814,841.015879 974.37814,839.049963 C974.374304,837.47493 973.553534,836.018696 972.076914,834.807722 L1160.06785,726.322083 C1160.04484,726.306754 1160.01799,726.29909 1159.99498,726.283761 C1164.45169,728.858997 1171.42057,728.874325 1175.85426,726.314418 C1178.14014,724.996143 1179.39815,723.183514 1179.39815,721.209933" id="Fill-32"></path>
                <path d="M1328.87319,819.114684 C1326.34351,819.114684 1323.81001,818.549037 1321.87735,817.429287 C1320.1858,816.444215 1319.252,815.197483 1319.25583,813.919967 C1319.25583,812.657844 1320.17049,811.426504 1321.83143,810.464519 C1325.65082,808.244259 1331.8889,808.251955 1335.7389,810.491455 C1337.43428,811.468831 1338.36426,812.719411 1338.36426,813.996926 C1338.36426,815.266746 1337.44959,816.49039 1335.78866,817.452375 C1333.88662,818.556733 1331.38373,819.114684 1328.87319,819.114684 Z M1244.77008,941.998584 C1246.46164,942.983657 1247.39161,944.222693 1247.39161,945.500208 C1247.39543,946.770028 1246.48077,947.99752 1244.81601,948.9672 C1242.91397,950.071558 1240.41491,950.617966 1237.90819,950.617966 C1235.37852,950.617966 1232.84119,950.056167 1230.90853,948.936417 C1229.21315,947.951345 1228.28318,946.712309 1228.28318,945.427097 C1228.28318,944.164974 1229.19784,942.937481 1230.85878,941.975497 C1234.682,939.759085 1240.92008,939.759085 1244.77008,941.998584 Z M1328.74307,806.878241 C1326.11772,806.878241 1323.5115,807.451584 1321.38749,808.552094 C1257.09499,771.20595 1209.141,743.348009 1177.52551,724.978271 C1176.7786,725.130755 1176.47197,725.538992 1175.95149,725.839132 C1175.86474,725.893003 1223.74129,753.852632 1319.58113,809.718019 C1319.96766,809.394792 1320.38863,809.079261 1320.87467,808.794514 C1318.59758,810.118205 1317.34231,811.934431 1317.34231,813.919967 C1317.33848,815.486078 1318.14981,816.944447 1319.60409,818.160395 L1171.57022,904.092547 C1170.67087,904.615867 1170.13891,905.550916 1170.13891,906.586011 C1170.13508,907.63265 1170.66704,908.571547 1171.5817,909.094866 L1228.597,941.236693 C1227.16568,942.429554 1226.36966,943.87253 1226.36966,945.427097 C1226.36966,947.424177 1227.64024,949.259644 1229.95177,950.606422 C1234.3988,953.180692 1241.34871,953.196084 1245.77277,950.633357 C1248.05369,949.305819 1249.30896,947.485744 1249.30513,945.500208 C1249.30513,943.510824 1248.03455,941.675358 1245.72684,940.332427 C1243.49185,939.03952 1240.62922,938.393067 1237.77425,938.393067 C1235.14124,938.393067 1232.53885,938.962561 1230.41867,940.059224 L1172.53081,907.428709 C1172.09836,907.170897 1172.0486,906.759168 1172.05243,906.593707 C1172.05243,906.428245 1172.09836,906.00882 1172.52698,905.758704 L1321.41428,819.330168 C1321.25355,819.249362 1321.07367,819.187795 1320.92059,819.099292 C1325.37144,821.685106 1332.32518,821.692802 1336.74542,819.12238 C1339.02633,817.798689 1340.27778,815.978614 1340.27778,813.996926 C1340.27778,812.003694 1339.0072,810.160532 1336.69567,808.825297 C1334.4645,807.524694 1331.60187,806.878241 1328.74307,806.878241 Z" id="Fill-34"></path>
                <path d="M1111.8714,352.004755 C1111.8714,350.728615 1112.8034,349.486965 1114.50247,348.509741 C1116.4355,347.390724 1118.97835,346.831215 1121.51353,346.831215 C1124.02571,346.831215 1126.53404,347.383059 1128.44022,348.482915 C1130.10861,349.444811 1131.02527,350.667299 1131.02527,351.924277 C1131.02143,353.200417 1130.08943,354.442067 1128.3942,355.419291 C1124.53581,357.649662 1118.28415,357.653494 1114.45261,355.442285 C1112.78805,354.484222 1111.8714,353.261733 1111.8714,352.004755 M1316.89141,469.842663 C1316.89141,468.566524 1317.82341,467.328706 1319.52248,466.351482 C1321.45934,465.232465 1324.0022,464.669124 1326.53738,464.669124 C1329.04955,464.669124 1331.55405,465.220968 1333.46023,466.320824 C1335.12862,467.282719 1336.04528,468.505208 1336.04528,469.766018 C1336.04528,471.042158 1335.10944,472.279976 1333.41804,473.2572 C1329.55582,475.483738 1323.30416,475.495235 1319.47645,473.280193 C1317.80806,472.32213 1316.89141,471.099642 1316.89141,469.842663 M1109.95371,352.004755 C1109.95371,353.978364 1111.21172,355.787187 1113.49376,357.105482 C1115.69911,358.377789 1118.53728,359.013943 1121.3793,359.013943 C1124.03338,359.013943 1126.66444,358.435273 1128.82376,357.327752 L1316.92593,465.883947 C1315.66409,467.037455 1314.97372,468.394072 1314.97372,469.842663 C1314.97372,471.816273 1316.23172,473.625096 1318.51761,474.94339 C1320.72295,476.215698 1323.55729,476.851852 1326.40314,476.851852 C1329.26817,476.851852 1332.13703,476.208034 1334.37689,474.916565 C1336.68578,473.582941 1337.96296,471.754957 1337.96296,469.766018 C1337.96296,467.792409 1336.70496,465.979754 1334.41908,464.657627 C1329.98538,462.101515 1323.02034,462.116844 1318.56363,464.688285 C1318.58281,464.672956 1318.60582,464.665291 1318.62883,464.657627 L1130.64556,356.162748 C1132.11835,354.955589 1132.93912,353.495501 1132.94295,351.924277 C1132.94295,349.9545 1131.68495,348.141845 1129.39907,346.819718 C1124.96921,344.263606 1118.00417,344.267439 1113.54362,346.846544 C1111.22706,348.187832 1109.94988,350.015816 1109.95371,352.004755" id="Fill-36"></path>
                <path d="M1481.39473,373.457689 C1483.34426,372.338017 1485.90882,371.778181 1488.46565,371.778181 C1490.99927,371.778181 1493.52902,372.330348 1495.45148,373.430847 C1497.13024,374.389471 1498.05472,375.612674 1498.05472,376.874222 C1498.05472,378.151109 1497.11477,379.393485 1495.40506,380.371281 C1491.51373,382.602956 1485.20483,382.60679 1481.34444,380.394287 C1479.66568,379.435664 1478.7412,378.212461 1478.7412,376.954747 C1478.73733,375.677861 1479.68115,374.435485 1481.39473,373.457689 Z M1389.44564,242.41004 C1391.39904,241.290368 1393.9636,240.730532 1396.52043,240.730532 C1399.05405,240.730532 1401.5838,241.278864 1403.50625,242.379364 C1405.18502,243.341822 1406.11337,244.56886 1406.1095,245.830408 C1406.1095,247.10346 1405.16568,248.342001 1403.45597,249.319797 C1399.56464,251.551472 1393.2596,251.555307 1389.39535,249.346638 C1387.72045,248.388015 1386.79211,247.160977 1386.79211,245.903263 C1386.79211,244.626377 1387.73593,243.387836 1389.44564,242.41004 Z M1333.96426,464.923712 C1334.90808,465.426031 1335.36065,465.755797 1335.77454,466.104736 L1480.89961,382.303865 C1483.04255,383.396696 1485.67674,383.968035 1488.33027,383.968035 C1491.22362,383.968035 1494.11698,383.323841 1496.37209,382.031616 C1498.70457,380.697212 1499.98878,378.864325 1499.98878,376.874222 C1499.98878,374.903293 1498.72391,373.085743 1496.41851,371.766677 C1491.95083,369.20907 1484.92632,369.216739 1480.4277,371.793519 C1480.58242,371.705325 1480.76036,371.640139 1480.92282,371.559615 L1330.43746,285.433057 C1330.00423,285.183814 1329.95781,284.769689 1329.95781,284.604806 C1329.95394,284.439923 1330.00423,284.025797 1330.44133,283.768886 L1388.95052,251.252382 C1391.09732,252.345212 1393.72378,252.916552 1396.38504,252.916552 C1399.27066,252.916552 1402.16402,252.272357 1404.423,250.980133 C1406.75934,249.645729 1408.04356,247.816676 1408.04356,245.830408 C1408.04743,243.851809 1406.77868,242.038094 1404.47328,240.719028 C1400.00174,238.161421 1392.97336,238.176759 1388.47861,240.749704 C1386.14613,242.084108 1384.85805,243.916996 1384.85805,245.903263 C1384.85805,247.452399 1385.66648,248.890334 1387.11316,250.079027 L1329.48203,282.108551 C1328.56142,282.633876 1328.01988,283.569493 1328.02375,284.60864 C1328.02375,285.647788 1328.56529,286.575736 1329.47043,287.093392 L1479.09706,372.729135 C1477.62331,373.937 1476.80327,375.390274 1476.80714,376.954747 C1476.80714,378.929511 1478.07588,380.739392 1480.37741,382.058458 C1479.88616,381.774705 1479.46454,381.460277 1479.06612,381.138179 L1333.96426,464.923712 Z" id="Fill-38"></path>
                <path d="M32.7298749,64.4779562 C29.0684203,66.8320662 23.0846201,66.8238923 19.3938151,64.4452602 C17.7722089,63.4071631 16.8806924,62.0829762 16.8806924,60.7179193 C16.8806924,59.3773844 17.7575338,58.0777195 19.3534584,57.0559704 C21.1768481,55.8789153 23.5762383,55.2903878 25.9792972,55.2903878 C28.4043689,55.2903878 30.8331093,55.8870893 32.6858494,57.0764054 C34.3111244,58.1226765 35.2026409,59.4427764 35.2026409,60.8078333 C35.2026409,62.1483681 34.3257996,63.4562071 32.7298749,64.4779562 M37.037037,60.8078333 C37.037037,58.682595 35.818998,56.7330976 33.6030475,55.3067358 C29.3362421,52.5602741 22.6700466,52.5521001 18.4362603,55.2822138 C16.2496602,56.6881407 15.0462963,58.6172031 15.0462963,60.7179193 C15.0462963,62.8431576 16.2643353,64.7885679 18.476617,66.2190168 C20.6191917,67.6004216 23.3634483,68.287037 26.1003673,68.287037 C28.8226112,68.287037 31.5375175,67.6085956 33.647073,66.2517127 C35.8336732,64.8457859 37.037037,62.9044625 37.037037,60.8078333" id="Fill-41"></path>
                <path d="M153.656017,141.994601 C152.034682,140.948045 151.139646,139.631675 151.139646,138.266247 C151.139646,136.925348 152.020009,135.621242 153.611999,134.599215 C155.435085,133.425928 157.834075,132.837241 160.236733,132.837241 C162.6614,132.837241 165.089735,133.434105 166.945834,134.623744 C168.563502,135.670299 169.462206,136.98667 169.462206,138.343921 C169.462206,139.697085 168.581843,140.997103 166.989853,142.027306 C163.325341,144.382055 157.342539,144.373879 153.656017,141.994601 M167.906898,143.797456 C170.089465,142.387059 171.296296,140.453384 171.296296,138.343921 C171.296296,136.23037 170.074792,134.280343 167.86288,132.853593 C163.58945,130.106386 156.928034,130.098209 152.694954,132.829065 C150.512387,134.235374 149.305556,136.16496 149.305556,138.266247 C149.305556,140.387975 150.523391,142.338002 152.738972,143.768839 C154.88119,145.142443 157.624988,145.833333 160.365119,145.833333 C163.083241,145.833333 165.797694,145.154708 167.906898,143.797456" id="Fill-43"></path>
                <path d="M283.671481,261.876091 C279.822724,264.094912 273.539118,264.079557 269.667246,261.853059 C267.964393,260.870329 267.028209,259.626561 267.028209,258.352082 C267.028209,257.092959 267.948982,255.864546 269.624867,254.904849 C271.539614,253.799277 274.059221,253.254169 276.58268,253.254169 C279.129255,253.254169 281.679682,253.806955 283.62525,254.93172 C285.331956,255.906773 286.26814,257.15438 286.26814,258.428858 C286.26814,259.695659 285.347366,260.916394 283.671481,261.876091 M284.588402,253.269524 C280.107817,250.689857 273.119184,250.68218 268.661715,253.238814 C266.36556,254.559358 265.101904,256.371267 265.101904,258.352082 C265.101904,260.044989 266.076614,261.611215 267.787173,262.866499 L162.167887,323.162374 L2.89330964,232.044854 L154.759319,144.685511 C154.585951,144.59338 154.393321,144.52812 154.223806,144.432151 C153.738377,144.151919 153.326148,143.837138 152.933182,143.518519 L0.481576172,231.211837 C0.181072641,231.384583 0,231.707041 0,232.044854 C0,232.386507 0.18492525,232.701288 0.481576172,232.874033 L161.68631,325.104801 C161.836562,325.185416 162.002224,325.231481 162.167887,325.231481 C162.333549,325.231481 162.499211,325.185416 162.64561,325.104801 L269.698067,263.987426 C269.36289,263.833874 269.016155,263.695678 268.704094,263.519094 C270.954017,264.808927 273.831917,265.453844 276.709816,265.453844 C279.568452,265.453844 282.41553,264.816605 284.634633,263.542126 C286.930789,262.221583 288.194444,260.405835 288.194444,258.428858 C288.194444,256.440365 286.915378,254.601584 284.588402,253.269524" id="Fill-45"></path>
                <path d="M35.4347869,64.8148148 C35.1097406,65.0629125 34.7961666,65.3186439 34.4099351,65.5400234 C34.146074,65.688882 33.8439722,65.8072055 33.5648148,65.9446134 L152.126398,134.259259 C152.516454,133.938641 152.933278,133.625656 153.418935,133.35084 C153.579546,133.255418 153.766926,133.186714 153.935185,133.102742 L35.4347869,64.8148148 Z" id="Fill-47"></path>
                <path d="M266.880692,733.259761 C266.880692,731.898468 267.772208,730.578055 269.397482,729.535624 C271.246553,728.341937 273.68263,727.745094 276.107701,727.745094 C278.510759,727.745094 280.906479,728.333761 282.733537,729.507008 C284.325792,730.528999 285.202633,731.833061 285.202633,733.173914 C285.202633,734.535207 284.311117,735.863796 282.689512,736.906228 C278.998708,739.285425 273.01491,739.289512 269.353457,736.930756 C267.757533,735.908764 266.880692,734.604702 266.880692,733.259761 M268.436259,738.704933 C270.549483,740.062138 273.260719,740.740741 275.979293,740.740741 C278.723549,740.740741 281.467804,740.053962 283.606709,738.676317 C285.81899,737.249617 287.040698,735.295569 287.037029,733.173914 C287.037029,731.072699 285.833665,729.139091 283.650735,727.73283 C279.413281,725.006156 272.750757,725.014332 268.480285,727.761446 C266.264335,729.188146 265.046296,731.138107 265.046296,733.259761 C265.046296,735.365064 266.24966,737.298673 268.436259,738.704933" id="Fill-49"></path>
                <path d="M135.091255,815.634459 C133.495065,814.60838 132.618078,813.304318 132.621747,811.959377 C132.621747,810.602172 133.513412,809.277671 135.138957,808.235239 C136.992006,807.041553 139.42482,806.448798 141.850296,806.448798 C144.253755,806.448798 146.649875,807.033377 148.473568,808.210711 C150.066089,809.232703 150.943076,810.536765 150.943076,811.877618 C150.943076,813.238911 150.051411,814.559324 148.429535,815.601756 C144.741785,817.980952 138.756989,817.989128 135.091255,815.634459 M141.718197,819.444444 C144.459241,819.444444 147.207624,818.753578 149.346886,817.375933 C151.559536,815.949233 152.777778,813.999273 152.777778,811.877618 C152.777778,809.772315 151.577883,807.842794 149.390919,806.436534 C145.156428,803.70986 138.492792,803.718036 134.221607,806.46515 C132.005287,807.887762 130.787045,809.837722 130.787045,811.959377 C130.783376,814.06468 131.98694,815.998288 134.173904,817.408637 C136.287481,818.765842 138.999169,819.444444 141.718197,819.444444" id="Fill-51"></path>
                <path d="M18.1300084,930.884989 C18.1300084,929.606645 19.0661925,928.36669 20.7728984,927.387778 C22.7146136,926.266827 25.2688936,925.706352 27.8154684,925.706352 C30.3389275,925.706352 32.858534,926.25915 34.7732809,927.360906 C36.449166,928.320623 37.3699396,929.545223 37.3699396,930.808212 C37.3699396,932.082717 36.4337555,933.33035 34.7309022,934.309262 C30.8590298,936.539646 24.5754239,936.551163 20.7266671,934.332296 C19.050782,933.372578 18.1300084,932.147978 18.1300084,930.884989 M16.2037037,930.884989 C16.2037037,932.862008 17.4673596,934.677794 19.7635148,935.998366 C21.9826178,937.272871 24.8296961,937.910123 27.6844796,937.910123 C30.5662315,937.910123 33.4441307,937.265193 35.6940545,935.971494 C35.3819932,936.151921 35.0314057,936.29012 34.6962287,936.443675 L141.748685,997.558502 C141.898937,997.646796 142.064599,997.685185 142.230262,997.685185 C142.395924,997.685185 142.561586,997.646796 142.707985,997.558502 L303.912719,905.333463 C304.213223,905.160714 304.398148,904.845927 304.398148,904.500428 C304.398148,904.158769 304.213223,903.840143 303.916572,903.667393 L151.457261,815.972222 C151.068148,816.290849 150.652066,816.605636 150.166637,816.885874 C150.000975,816.981845 149.808344,817.050945 149.634977,817.139239 L301.504839,904.49659 L142.230262,995.619873 L36.607123,935.322724 C38.3176815,934.067414 39.2962443,932.504993 39.2962443,930.804373 C39.2962443,928.831193 38.0325884,927.015407 35.7364332,925.694836 C31.2789642,923.134309 24.2903308,923.145825 19.8097461,925.721708 C17.48277,927.061474 16.2037037,928.892615 16.2037037,930.884989" id="Fill-53"></path>
                <path d="M267.43396,737.802612 C267.758996,738.05071 268.07256,738.306441 268.458779,738.524004 C268.722632,738.676679 269.024724,738.795003 269.307697,738.928594 L149.956878,807.87037 C149.570658,807.549752 149.153848,807.236767 148.668206,806.958134 C148.503776,806.866529 148.316402,806.797825 148.148148,806.713854 L267.43396,737.802612 Z" id="Fill-55"></path>
            </g>
        </g>
    </g>
</svg>