<svg xmlns="http://www.w3.org/2000/svg" xmlns:xlink="http://www.w3.org/1999/xlink" width="1440" height="460" viewBox="0 0 1440 460">
  <defs>
    <rect id="pricing_pattern-a" width="1440" height="460"/>
  </defs>
  <g fill="none" fill-rule="evenodd">
    <mask id="pricing_pattern-b" fill="#fff">
      <use xlink:href="#pricing_pattern-a"/>
    </mask>
    <use fill="#151746" xlink:href="#pricing_pattern-a"/>
    <g fill="#2C2E58" mask="url(#pricing_pattern-b)">
      <g transform="translate(0 -192)">
        <path d="M716.547794 327.297469C712.707941 329.524053 706.432591 329.508617 702.561957 327.266598 700.861341 326.282579 699.926387 325.036155 699.926387 323.751141 699.926387 322.485423 700.845951 321.254434 702.519634 320.28971 704.431866 319.178347 706.944314 318.626525 709.464458 318.626525 712.007687 318.626525 714.554764 319.186065 716.501623 320.312863 718.202239 321.296882 719.141041 322.547165 719.141041 323.828319 719.141041 325.097897 718.221477 326.328885 716.547794 327.297469M331.323613 363.555675C331.323613 364.829112 330.404049 366.0601 328.730366 367.024825 324.89436 369.251409 318.61901 369.239832 314.744529 366.997813 313.043913 366.013794 312.108959 364.763511 312.108959 363.478497 312.108959 362.212779 313.028523 360.98179 314.702206 360.017066 316.614438 358.905703 319.126886 358.353881 321.650878 358.353881 324.190259 358.353881 326.741183 358.913421 328.684195 360.040219 330.388659 361.024238 331.323613 362.274521 331.323613 363.555675M717.46351 318.64196C712.981117 316.048781 705.997818 316.041063 701.557747 318.614948 699.264609 319.942409 698.002613 321.763809 698.002613 323.751141 698.002613 325.329431 698.829836 326.799671 700.303447 328.019083L572.788018 401.855239 415.58491 310.827692C414.103604 309.971016 412.260628 309.971016 410.775475 310.827692L329.118968 358.114629C324.636575 355.803149 318.018793 355.861033 313.740319 358.342304 311.447181 359.669765 310.185185 361.491165 310.185185 363.478497 310.185185 365.481266 311.462571 367.32196 313.782642 368.672574 316.02961 369.973023 318.907576 370.621318 321.777847 370.621318 324.632727 370.621318 327.479913 369.980741 329.692253 368.699587 331.985391 367.372126 333.247387 365.543008 333.247387 363.555675 333.247387 361.973527 332.420164 360.503287 330.942706 359.291593L411.737362 312.502453C412.629993 311.981502 413.734239 311.981502 414.623023 312.502453L572.307074 403.807842C572.457129 403.896596 572.622573 403.935185 572.788018 403.935185 572.953462 403.935185 573.122754 403.896596 573.268961 403.807842L702.131032 329.192188C704.289506 330.307409 706.940467 330.893962 709.599122 330.893962 712.454003 330.893962 715.297341 330.253385 717.509681 328.972231 719.802819 327.640911 721.064815 325.815652 721.064815 323.828319 721.064815 321.825551 719.783581 319.984857 717.46351 318.64196M1357.75529 565.723395C1353.91156 567.949979 1347.64 567.934543 1343.76933 565.692524 1342.0687 564.708505 1341.13373 563.46208 1341.13373 562.177067 1341.13373 560.911349 1342.05331 559.68036 1343.72316 558.715636 1345.63541 557.604273 1348.14788 557.052451 1350.66804 557.052451 1353.2113 557.052451 1355.76225 557.611991 1357.70528 558.738789 1359.40976 559.722808 1360.34472 560.973091 1360.34472 562.254245 1360.34857 563.523823 1359.42899 564.754811 1357.75529 565.723395M972.523675 601.981601C972.523675 603.255038 971.604102 604.486026 969.934251 605.450751 966.094362 607.677335 959.818953 607.665758 955.948284 605.423738 954.247652 604.439719 953.312689 603.189436 953.312689 601.904423 953.312689 600.638705 954.232262 599.407716 955.902113 598.442992 957.814362 597.331629 960.330682 596.779807 962.850849 596.779807 965.394102 596.779807 967.94505 597.339347 969.884232 598.466145 971.588712 599.450164 972.523675 600.700447 972.523675 601.981601M1358.66717 557.067886C1354.18858 554.474707 1347.20137 554.466989 1342.76126 557.040874 1340.4681 558.368335 1339.20994 560.189735 1339.20994 562.177067 1339.20994 563.755357 1340.03332 565.225597 1341.5108 566.445009L1213.99418 640.281165 1056.7896 549.253618C1055.30828 548.396942 1053.46529 548.396942 1051.98012 549.253618L970.322857 596.540555C965.840422 594.229075 959.21873 594.286959 954.940217 596.76823 952.650905 598.095691 951.388898 599.917091 951.388898 601.904423 951.38505 603.907191 952.666295 605.747886 954.986388 607.0985 957.22953 608.398949 960.107522 609.047244 962.981667 609.047244 965.836574 609.047244 968.679939 608.406667 970.896147 607.125513 973.189307 605.798052 974.447466 603.968934 974.447466 601.981601 974.447466 600.399453 973.624084 598.929213 972.142764 597.717519L1052.94202 550.928379C1053.83466 550.407428 1054.93892 550.407428 1055.82771 550.928379L1213.51323 642.233767C1213.65944 642.322522 1213.82873 642.361111 1213.99418 642.361111 1214.15962 642.361111 1214.32507 642.322522 1214.47513 642.233767L1343.33455 567.618114C1345.49689 568.733335 1348.14403 569.319888 1350.80656 569.319888 1353.65762 569.319888 1356.50098 568.679311 1358.71719 567.398157 1361.01035 566.066837 1362.27236 564.241578 1362.26851 562.254245 1362.26851 560.251477 1360.99111 558.410783 1358.66717 557.067886M603.331728 500.819644C599.670275 503.174313 593.686477 503.170225 589.995674 500.791029 588.374068 499.748597 587.482552 498.424096 587.482552 497.062803 587.482552 495.72195 588.359393 494.417888 589.951648 493.395897 591.778706 492.218562 594.174426 491.633983 596.577484 491.633983 599.002555 491.633983 601.434964 492.226738 603.287703 493.420424 604.912977 494.462856 605.804493 495.787357 605.804493 497.14865 605.804493 498.493591 604.927652 499.797653 603.331728 500.819644M607.638889 497.14865C607.638889 495.026995 606.42085 493.072947 604.204901 491.650335 599.934428 488.903221 593.271904 488.895045 589.03445 491.621719 586.85152 493.02798 585.648156 494.9575 585.648156 497.062803 585.644488 499.184458 586.866195 501.134418 589.078476 502.565206 591.217381 503.942851 593.961637 504.62963 596.702223 504.62963 599.424466 504.62963 602.135703 503.951027 604.248926 502.593822 606.435525 501.187562 607.638889 499.249865 607.638889 497.14865M726.573408 579.493689C724.951803 578.450974 724.056618 577.130202 724.056618 575.768539 724.056618 574.427322 724.937127 573.118817 726.525714 572.096547 728.349103 570.922982 730.748492 570.338244 733.15155 570.338244 735.576621 570.338244 738.009029 570.93116 739.861769 572.125171 741.483374 573.167886 742.378559 574.488658 742.378559 575.846232 742.382228 577.195627 741.501718 578.500043 739.909463 579.526402 736.244341 581.881711 730.260543 581.873533 726.573408 579.493689M740.826661 581.296973C743.009591 579.89033 744.216623 577.956196 744.212955 575.846232 744.212955 573.728089 742.994916 571.777599 740.778966 570.3546 736.508494 567.60674 729.84597 567.598562 725.608516 570.325977 723.425586 571.732619 722.222222 573.662664 722.222222 575.768539 722.222222 577.886682 723.440261 579.841261 725.65621 581.268349 727.795116 582.646368 730.54304 583.333333 733.283627 583.333333 735.998532 583.333333 738.713437 582.654546 740.826661 581.296973"/>
        <path d="M855.43074 698.222523C851.581984 700.437505 845.298378 700.425988 841.426505 698.195651 839.723652 697.21676 838.787468 695.972992 838.787468 694.698514 838.787468 693.435552 839.708241 692.210978 841.384127 691.25128 843.298873 690.145709 845.81848 689.596762 848.341939 689.596762 850.888514 689.596762 853.438941 690.153386 855.384509 691.274313 857.091215 692.253204 858.027399 693.496972 858.027399 694.775289 858.027399 696.038251 857.106625 697.262825 855.43074 698.222523M856.347661 689.612117C851.867077 687.036289 844.878443 687.024772 840.420974 689.585245 838.124819 690.905789 836.861163 692.717698 836.861163 694.694675 836.861163 696.387581 837.839726 697.953808 839.546432 699.212931L733.927146 759.508805 574.652569 668.387447 726.522431 581.028103C726.345211 580.939811 726.15258 580.874552 725.986918 580.774743 725.497636 580.494511 725.08926 580.183569 724.692441 579.861111L572.240835 667.558268C571.944185 667.731014 571.759259 668.049634 571.759259 668.391286 571.759259 668.732938 571.944185 669.047719 572.244688 669.220464L733.449422 761.447394C733.595821 761.531847 733.761484 761.574074 733.927146 761.574074 734.092808 761.574074 734.25847 761.531847 734.408722 761.447394L841.461179 700.330019C841.126002 700.176467 840.775414 700.042109 840.463353 699.861686 842.713277 701.155358 845.591176 701.800275 848.469075 701.800275 851.327711 701.800275 854.17479 701.163036 856.393893 699.888558 858.690048 698.568014 859.953704 696.748428 859.953704 694.775289 859.953704 692.782957 858.674637 690.948016 856.347661 689.612117M607.197811 500C606.868951 500.244281 606.559211 500.500012 606.172991 500.721392 605.905315 500.874067 605.607047 500.992391 605.324074 501.125982L725.832397 570.905762C726.218617 570.585143 726.635427 570.272158 727.121069 569.993526 727.285499 569.898104 727.469049 569.833216 727.641127 569.749245L607.197811 500zM836.128567 469.286535C836.128567 470.647828 835.23705 471.968241 833.611775 473.010673 831.762704 474.204359 829.330295 474.801202 826.905223 474.801202 824.502164 474.801202 822.102774 474.212535 820.279384 473.039289 818.68346 472.017297 817.806618 470.713235 817.806618 469.372382 817.806618 468.011089 818.698135 466.6825 820.319741 465.640068 824.010546 463.260872 829.994346 463.256784 833.655801 465.615541 835.251725 466.637532 836.128567 467.941594 836.128567 469.286535M834.572999 463.841363C832.463443 462.484158 829.748537 461.805556 827.029962 461.805556 824.289374 461.805556 821.545118 462.492334 819.402543 463.869979 817.190261 465.296679 815.972222 467.250727 815.972222 469.372382 815.972222 471.473597 817.175586 473.407206 819.362186 474.813466 823.595973 477.54014 830.262168 477.531964 834.528973 474.78485 836.744924 473.35815 837.962963 471.40819 837.962963 469.286535 837.962963 467.181232 836.759599 465.247624 834.572999 463.841363M969.072468 386.911837C970.668392 387.937917 971.545234 389.241978 971.545234 390.586919 971.545234 391.944124 970.650048 393.268625 969.028442 394.311057 967.172033 395.504743 964.743293 396.097499 962.318221 396.097499 959.915162 396.097499 957.519441 395.512919 955.696051 394.335585 954.100126 393.313593 953.223285 392.009532 953.223285 390.668679 953.223285 389.307386 954.114802 387.986972 955.736408 386.944541 959.423544 384.565344 965.407344 384.557168 969.072468 386.911837M962.446629 383.101852C959.706041 383.101852 956.961784 383.792718 954.81921 385.170363 952.606928 386.597064 951.388889 388.547024 951.388889 390.668679 951.388889 392.773981 952.592253 394.703502 954.778853 396.109762 959.00897 398.836436 965.671497 398.82826 969.94564 396.081147 972.157922 394.658534 973.37963 392.708574 973.37963 390.586919 973.37963 388.481616 972.176266 386.548008 969.989666 385.137659 967.88011 383.780454 965.168873 383.101852 962.446629 383.101852"/>
        <path d="M1087.19407 271.659896C1087.19407 272.938213 1086.25788 274.178142 1084.55118 275.157033 1082.60946 276.27796 1080.05518 276.838423 1077.50861 276.838423 1074.98515 276.838423 1072.46554 276.285638 1070.55079 275.183905 1068.87491 274.224207 1067.95413 272.999633 1067.95413 271.736672 1067.95413 270.462193 1068.89032 269.214587 1070.59317 268.235695 1074.46504 266.005358 1080.74865 265.993842 1084.59741 268.212662 1086.27329 269.17236 1087.19407 270.396934 1087.19407 271.659896M1089.12037 271.659896C1089.12037 269.682919 1087.85671 267.867171 1085.56056 266.546627 1083.34146 265.272149 1080.49438 264.63491 1077.63959 264.63491 1074.75784 264.63491 1071.87994 265.279827 1069.63002 266.573499 1069.94208 266.393076 1070.28882 266.258718 1070.62399 266.105167L963.571536 204.987791C963.425137 204.899499 963.259475 204.861111 963.093812 204.861111 962.92815 204.861111 962.762488 204.899499 962.612236 204.987791L801.407502 297.210882C801.110851 297.383627 800.925926 297.698408 800.925926 298.043899 800.925926 298.385552 801.106999 298.704171 801.407502 298.876917L953.86296 386.574074C954.252074 386.251616 954.668156 385.940674 955.153585 385.656603 955.323099 385.560634 955.511877 385.491535 955.685245 385.407082L803.819236 298.047738 963.093812 206.92638 1068.7131 267.222254C1067.00254 268.481378 1066.02783 270.043765 1066.02783 271.74051 1066.02783 273.713648 1067.29149 275.529396 1069.58764 276.84994 1074.04511 279.410413 1081.03374 279.398896 1085.51433 276.823068 1087.8413 275.483331 1089.12037 273.652228 1089.12037 271.659896M837.51812 464.12037C837.193074 463.87609 836.8795 463.620358 836.493268 463.398979 836.229407 463.246303 835.927306 463.12798 835.648148 462.994389L954.209732 394.675926C954.599787 394.996544 955.016611 395.309529 955.502269 395.588162 955.66288 395.679767 955.850259 395.748471 956.018519 395.832443L837.51812 464.12037zM420.265787 525.581173C416.438082 527.78855 410.18642 527.784718 406.324197 525.554348 404.628961 524.577124 403.696964 523.339306 403.696964 522.063166 403.696964 520.806188 404.613619 519.5837 406.282008 518.621804 408.188189 517.518116 410.69269 516.970104 413.208696 516.970104 415.740044 516.970104 418.282898 517.52578 420.219763 518.644798 421.918834 519.622022 422.850831 520.867504 422.850831 522.143644 422.850831 523.400622 421.934176 524.623111 420.265787 525.581173M217.830822 639.981552C217.830822 641.238531 216.910332 642.461019 215.245779 643.419082 211.414239 645.630291 205.162576 645.618795 201.304188 643.392256 199.608952 642.415032 198.676956 641.177215 198.676956 639.904907 198.67312 638.644096 199.589775 637.421608 201.254328 636.459713 203.164345 635.359857 205.672681 634.808012 208.181017 634.808012 210.720036 634.808012 213.26289 635.367521 215.199754 636.486539 216.89499 637.463763 217.830822 638.705412 217.830822 639.981552M421.178607 516.985433C416.718065 514.406327 409.753023 514.402495 405.323164 516.958607 403.03728 518.280734 401.779277 520.089557 401.779277 522.063166 401.779277 523.630557 402.603882 525.090645 404.072831 526.297805L216.089562 634.792683C216.112574 634.80418 216.135586 634.811845 216.158598 634.827174 211.701892 632.255733 204.733014 632.240404 200.295484 634.796516 198.013436 636.118643 196.755433 637.927465 196.759268 639.904907 196.759268 641.893846 198.032613 643.717998 200.345344 645.055454 202.585204 646.346922 205.454065 646.990741 208.315255 646.990741 211.157268 646.990741 213.995446 646.354587 216.204623 645.082279 218.490507 643.763985 219.74851 641.95133 219.74851 639.981552 219.74851 638.532961 219.054307 637.172512 217.792468 636.022836L405.894635 527.462809C408.050116 528.57033 410.685019 529.152832 413.339099 529.152832 416.184948 529.152832 419.01929 528.516678 421.224631 527.244371 423.510515 525.926076 424.768519 524.113421 424.768519 522.143644 424.768519 520.154705 423.495174 518.322889 421.178607 516.985433"/>
        <path d="M55.4829735 552.962308C51.6674966 555.178697 45.4257285 555.174849 41.571982 552.935373 39.8804667 551.954159 38.9505159 550.70744 38.9505159 549.429938 38.9505159 548.16398 39.8651588 546.936501 41.5298855 545.974527 43.4318835 544.866332 45.9308869 544.316083 48.4413712 544.316083 50.9671633 544.316083 53.5044364 544.874028 55.43705 545.997614 57.1323923 546.978828 58.0623431 548.229394 58.0623431 549.510744 58.0623431 550.772854 57.1477002 552.000334 55.4829735 552.962308zM146.453587 421.452728C142.630456 423.669117 136.396342 423.665269 132.542595 421.425792 130.85108 420.448427 129.917302 419.201708 129.917302 417.924206 129.917302 416.658248 130.831945 415.430769 132.496672 414.464947 134.39867 413.3606 136.897673 412.806503 139.408158 412.806503 141.937777 412.806503 144.47505 413.372144 146.407663 414.49573 148.099179 415.476944 149.029129 416.719814 149.029129 418.001164 149.029129 419.263274 148.114487 420.490753 146.453587 421.452728zM57.7370517 553.704952C57.342875 554.028175 56.9295636 554.343703 56.439713 554.632295 58.7205798 553.308619 59.975822 551.488563 59.975822 549.510744 59.975822 547.940802 59.1645069 546.478601 57.706436 545.270361L205.740817 459.335275C206.636325 458.811961 207.175926 457.88077 207.175926 456.841838 207.175926 455.79521 206.640152 454.860171 205.729336 454.329161L148.711492 422.191524C150.146601 420.998676 150.942608 419.551867 150.942608 418.001164 150.942608 416.004105 149.672058 414.168659 147.364403 412.825742 142.917478 410.243803 135.963896 410.228412 131.539932 412.794959 129.259066 414.122484 128.003823 415.942539 128.003823 417.924206 128.003823 419.921265 129.2782 421.752864 131.585856 423.09578 133.820799 424.392521 136.683364 425.038968 139.542101 425.038968 142.167394 425.038968 144.769725 424.461783 146.893687 423.365133L204.784077 455.999148C205.216524 456.253109 205.262447 456.67253 205.262447 456.83799 205.262447 457.003449 205.212697 457.419022 204.784077 457.665288L55.9001119 544.092905C56.0608442 544.177559 56.2368842 544.239125 56.3937895 544.331475 51.9430376 541.745688 44.9932823 541.737992 40.573146 544.304539 38.2922792 545.628216 37.037037 547.448271 37.037037 549.429938 37.037037 551.426997 38.307587 553.262444 40.6152426 554.60536 42.8501859 555.902101 45.7127503 556.548548 48.5676608 556.548548 51.2006078 556.548548 53.8029391 555.971363 55.9230737 554.874713L198.530828 637.731481C198.936486 637.381323 199.388067 637.054252 199.900879 636.750268 200.030996 636.677158 200.187901 636.623287 200.325672 636.550177L57.7370517 553.704952zM558.001096 227.894898C559.669484 228.856793 560.586139 230.079282 560.582303 231.340092 560.582303 232.6124 559.650307 233.85405 557.951236 234.831274 554.092848 237.057812 547.845021 237.069309 544.01348 234.854267 542.345092 233.896204 541.428437 232.673716 541.428437 231.416738 541.428437 230.140598 542.364269 228.90278 544.055669 227.925556 545.992534 226.806539 548.535388 226.243198 551.074407 226.243198 553.586578 226.243198 556.094914 226.795042 558.001096 227.894898M352.931227 116.993365C349.069004 119.223736 342.821177 119.227568 338.989636 117.016359 337.325083 116.058296 336.408429 114.835807 336.408429 113.578829 336.408429 112.302689 337.340425 111.061039 339.035661 110.083815 340.972526 108.964798 343.51538 108.405289 346.046728 108.405289 348.56657 108.405289 351.07107 108.957133 352.977252 110.05699 354.64564 111.018885 355.562295 112.241373 355.562295 113.498352 355.562295 114.774491 354.630299 116.016141 352.931227 116.993365M543.096826 226.262359C543.119838 226.24703 543.146685 226.239365 543.169698 226.227869L355.182593 117.736822C356.655377 116.52583 357.479983 115.069575 357.479983 113.498352 357.479983 111.528574 356.22198 109.715919 353.936096 108.393792 349.506237 105.83768 342.537359 105.841513 338.076817 108.420618 335.764085 109.761906 334.490741 111.58989 334.490741 113.578829 334.490741 115.552439 335.748744 117.361261 338.030793 118.679556 340.239969 119.951863 343.074312 120.588017 345.916325 120.588017 348.570405 120.588017 351.205308 120.009347 353.364625 118.901827L541.462955 227.461854C540.201117 228.611529 539.510749 229.968146 539.510749 231.416738 539.510749 233.390347 540.768752 235.19917 543.054636 236.517465 545.263813 237.789772 548.098155 238.425926 550.940169 238.425926 553.801359 238.425926 556.67022 237.782108 558.91008 236.490639 561.226647 235.157015 562.499991 233.329031 562.499991 231.340092 562.503827 229.366483 561.245823 227.553828 558.959939 226.231701 554.526245 223.675589 547.553532 223.690918 543.096826 226.262359M719.660884 142.243678C715.765687 144.475353 709.456783 144.479188 705.600267 142.27052 703.921502 141.311896 702.993153 140.088693 702.993153 138.827145 702.993153 137.550258 703.936975 136.307882 705.646684 135.330086 707.600085 134.210414 710.164649 133.654413 712.717608 133.654413 715.255095 133.654413 717.784846 134.202745 719.707302 135.303245 721.386066 136.261868 722.314415 137.488906 722.314415 138.750455 722.314415 140.023506 721.370594 141.265882 719.660884 142.243678M611.04793 7.77949545C611.04793 6.50260912 611.987883 5.26023323 613.697593 4.2824374 615.650993 3.1627653 618.215557 2.60292925 620.776253 2.60292925 623.309872 2.60292925 625.835755 3.15509631 627.75821 4.25559594 629.440843 5.2180538 630.365324 6.44125722 630.365324 7.70280558 630.365324 8.97585741 629.421502 10.2143988 627.711793 11.1921946 623.820464 13.4238698 617.515427 13.4277043 613.655043 11.2190361 611.972411 10.2604127 611.04793 9.03720931 611.04793 7.77949545M720.674332 133.642909C716.202785 131.085302 709.178278 131.092971 704.679654 133.669751 704.838247 133.577723 705.01618 133.516371 705.178641 133.432012L554.697151 47.3054542C554.260054 47.0600466 554.213636 46.6420868 554.213636 46.4772036 554.213636 46.3123204 554.256186 45.8981951 554.697151 45.6451185L613.206341 13.1247794C615.353148 14.21761 617.98347 14.792784 620.637001 14.792784 623.526487 14.792784 626.423709 14.1485891 628.678823 12.8563648 631.0113 11.5181266 632.299384 9.69290769 632.299384 7.70280558 632.299384 5.72420694 631.03064 3.91432602 628.725241 2.59142577 624.253693.0338186236 617.229187.0491565975 612.730562 2.62210172 610.398086 3.96033994 609.11387 5.78939333 609.11387 7.77949545 609.11387 9.32863081 609.918439 10.7665659 611.368984 11.9552588L553.737857 43.9809484C552.817245 44.5101085 552.279576 45.4418904 552.279576 46.4810381 552.279576 47.5201858 552.821113 48.4481333 553.730121 48.9696244L703.34902 134.605367C701.879135 135.809398 701.059093 137.266506 701.059093 138.827145 701.059093 140.801909 702.331705 142.615624 704.633236 143.930855 704.138117 143.647103 703.72036 143.332674 703.321944 143.010577L559.203512 225.563387C559.342764 225.640077 559.497489 225.69376 559.629005 225.766615 560.151201 226.065706 560.603771 226.395472 561.013792 226.744411L705.155433 144.176263C707.30224 145.269094 709.928693 145.840433 712.58996 145.840433 715.475578 145.840433 718.368932 145.200073 720.627915 143.907848 722.964259 142.56961 724.248475 140.736722 724.248475 138.750455 724.248475 136.775691 722.975864 134.961975 720.674332 133.642909M1111.8714 352.004755C1111.8714 350.728615 1112.8034 349.486965 1114.50247 348.509741 1116.4355 347.390724 1118.97835 346.831215 1121.51353 346.831215 1124.02571 346.831215 1126.53404 347.383059 1128.44022 348.482915 1130.10861 349.444811 1131.02527 350.667299 1131.02527 351.924277 1131.02143 353.200417 1130.08943 354.442067 1128.3942 355.419291 1124.53581 357.649662 1118.28415 357.653494 1114.45261 355.442285 1112.78805 354.484222 1111.8714 353.261733 1111.8714 352.004755M1316.89141 469.842663C1316.89141 468.566524 1317.82341 467.328706 1319.52248 466.351482 1321.45934 465.232465 1324.0022 464.669124 1326.53738 464.669124 1329.04955 464.669124 1331.55405 465.220968 1333.46023 466.320824 1335.12862 467.282719 1336.04528 468.505208 1336.04528 469.766018 1336.04528 471.042158 1335.10944 472.279976 1333.41804 473.2572 1329.55582 475.483738 1323.30416 475.495235 1319.47645 473.280193 1317.80806 472.32213 1316.89141 471.099642 1316.89141 469.842663M1109.95371 352.004755C1109.95371 353.978364 1111.21172 355.787187 1113.49376 357.105482 1115.69911 358.377789 1118.53728 359.013943 1121.3793 359.013943 1124.03338 359.013943 1126.66444 358.435273 1128.82376 357.327752L1316.92593 465.883947C1315.66409 467.037455 1314.97372 468.394072 1314.97372 469.842663 1314.97372 471.816273 1316.23172 473.625096 1318.51761 474.94339 1320.72295 476.215698 1323.55729 476.851852 1326.40314 476.851852 1329.26817 476.851852 1332.13703 476.208034 1334.37689 474.916565 1336.68578 473.582941 1337.96296 471.754957 1337.96296 469.766018 1337.96296 467.792409 1336.70496 465.979754 1334.41908 464.657627 1329.98538 462.101515 1323.02034 462.116844 1318.56363 464.688285 1318.58281 464.672956 1318.60582 464.665291 1318.62883 464.657627L1130.64556 356.162748C1132.11835 354.955589 1132.93912 353.495501 1132.94295 351.924277 1132.94295 349.9545 1131.68495 348.141845 1129.39907 346.819718 1124.96921 344.263606 1118.00417 344.267439 1113.54362 346.846544 1111.22706 348.187832 1109.94988 350.015816 1109.95371 352.004755M1478.7412 376.954747C1478.73733 375.677861 1479.68115 374.435485 1481.39473 373.457689 1483.34426 372.338017 1485.90882 371.778181 1488.46565 371.778181 1490.99927 371.778181 1493.52902 372.330348 1495.45148 373.430847 1497.13024 374.389471 1498.05472 375.612674 1498.05472 376.874222 1498.05472 378.151109 1497.11477 379.393485 1495.40506 380.371281 1491.51373 382.602956 1485.20483 382.60679 1481.34444 380.394287 1479.66568 379.435664 1478.7412 378.212461 1478.7412 376.954747zM1386.79211 245.903263C1386.79211 244.626377 1387.73593 243.387836 1389.44564 242.41004 1391.39904 241.290368 1393.9636 240.730532 1396.52043 240.730532 1399.05405 240.730532 1401.5838 241.278864 1403.50625 242.379364 1405.18502 243.341822 1406.11337 244.56886 1406.1095 245.830408 1406.1095 247.10346 1405.16568 248.342001 1403.45597 249.319797 1399.56464 251.551472 1393.2596 251.555307 1389.39535 249.346638 1387.72045 248.388015 1386.79211 247.160977 1386.79211 245.903263zM1334.94769 463.690989C1335.08307 463.763845 1335.2378 463.813693 1335.37318 463.894217 1335.89151 464.193308 1336.34408 464.523074 1336.75797 464.872013L1480.89961 382.303865C1483.04255 383.396696 1485.67674 383.968035 1488.33027 383.968035 1491.22362 383.968035 1494.11698 383.323841 1496.37209 382.031616 1498.70457 380.697212 1499.98878 378.864325 1499.98878 376.874222 1499.98878 374.903293 1498.72391 373.085743 1496.41851 371.766677 1491.95083 369.20907 1484.92632 369.216739 1480.4277 371.793519 1480.58242 371.705325 1480.76036 371.640139 1480.92282 371.559615L1330.43746 285.433057C1330.00423 285.183814 1329.95781 284.769689 1329.95781 284.604806 1329.95394 284.439923 1330.00423 284.025797 1330.44133 283.768886L1388.95052 251.252382C1391.09732 252.345212 1393.72378 252.916552 1396.38504 252.916552 1399.27066 252.916552 1402.16402 252.272357 1404.423 250.980133 1406.75934 249.645729 1408.04356 247.816676 1408.04356 245.830408 1408.04743 243.851809 1406.77868 242.038094 1404.47328 240.719028 1400.00174 238.161421 1392.97336 238.176759 1388.47861 240.749704 1386.14613 242.084108 1384.85805 243.916996 1384.85805 245.903263 1384.85805 247.452399 1385.66648 248.890334 1387.11316 250.079027L1329.48203 282.108551C1328.56142 282.633876 1328.01988 283.569493 1328.02375 284.60864 1328.02375 285.647788 1328.56529 286.575736 1329.47043 287.093392L1479.09706 372.729135C1477.62331 373.937 1476.80327 375.390274 1476.80714 376.954747 1476.80714 378.929511 1478.07588 380.739392 1480.37741 382.058458 1479.88616 381.774705 1479.46454 381.460277 1479.06612 381.138179L1334.94769 463.690989zM283.671481 261.876091C279.822724 264.094912 273.539118 264.079557 269.667246 261.853059 267.964393 260.870329 267.028209 259.626561 267.028209 258.352082 267.028209 257.092959 267.948982 255.864546 269.624867 254.904849 271.539614 253.799277 274.059221 253.254169 276.58268 253.254169 279.129255 253.254169 281.679682 253.806955 283.62525 254.93172 285.331956 255.906773 286.26814 257.15438 286.26814 258.428858 286.26814 259.695659 285.347366 260.916394 283.671481 261.876091M284.588402 253.269524C280.107817 250.689857 273.119184 250.68218 268.661715 253.238814 266.36556 254.559358 265.101904 256.371267 265.101904 258.352082 265.101904 260.044989 266.076614 261.611215 267.787173 262.866499L162.167887 323.162374 2.89330964 232.044854 154.759319 144.685511C154.585951 144.59338 154.393321 144.52812 154.223806 144.432151 153.738377 144.151919 153.326148 143.837138 152.933182 143.518519L.481576172 231.211837C.181072641 231.384583 0 231.707041 0 232.044854 0 232.386507.18492525 232.701288.481576172 232.874033L161.68631 325.104801C161.836562 325.185416 162.002224 325.231481 162.167887 325.231481 162.333549 325.231481 162.499211 325.185416 162.64561 325.104801L269.698067 263.987426C269.36289 263.833874 269.016155 263.695678 268.704094 263.519094 270.954017 264.808927 273.831917 265.453844 276.709816 265.453844 279.568452 265.453844 282.41553 264.816605 284.634633 263.542126 286.930789 262.221583 288.194444 260.405835 288.194444 258.428858 288.194444 256.440365 286.915378 254.601584 284.588402 253.269524"/>
      </g>
    </g>
  </g>
</svg>
