<?xml version="1.0" encoding="UTF-8"?>
<svg width="104px" height="59px" viewBox="0 0 104 59" version="1.1" xmlns="http://www.w3.org/2000/svg" xmlns:xlink="http://www.w3.org/1999/xlink">
    <!-- Generator: Sketch 49 (51002) - http://www.bohemiancoding.com/sketch -->
    <title>Group 11@2x</title>
    <desc>Created with Sketch.</desc>
    <defs></defs>
    <g id="Page-1" stroke="none" stroke-width="1" fill="none" fill-rule="evenodd">
        <g id="illustration" transform="translate(-142.000000, -119.000000)" fill="#00A3E0">
            <g id="illustration_exams">
                <g id="Group-11" transform="translate(142.000000, 119.000000)">
                    <path d="M1.958,5.0968 C1.142,5.1858 0.41,4.7838 0.525,4.3078 L1.348,0.9038 C1.439,0.5208 2.051,0.2558 2.714,0.3128 C3.377,0.3668 3.839,0.7238 3.746,1.1048 L3.16,3.5408 L19.051,1.8018 C19.707,1.7318 20.348,1.9808 20.474,2.3598 C20.601,2.7398 20.173,3.1048 19.518,3.1768 L1.958,5.0968 Z" id="Fill-68"></path>
                    <path d="M100.5088,58.1847 L16.6868,9.7897 C16.2098,9.5157 16.2708,9.0357 16.8198,8.7177 L17.4348,8.3637 C17.9848,8.0457 18.8158,8.0117 19.2908,8.2867 L103.1128,56.6807 C103.5898,56.9557 103.5298,57.4357 102.9808,57.7527 L102.3648,58.1087 C101.8158,58.4247 100.9848,58.4597 100.5088,58.1847" id="Fill-70"></path>
                    <path d="M57.4932,38.8604 L11.7732,12.4644 C11.3752,12.2344 11.4252,11.8334 11.8852,11.5674 L12.8242,11.0244 C13.2842,10.7584 13.9802,10.7304 14.3792,10.9604 L60.0972,37.3564 C60.4962,37.5864 60.4462,37.9884 59.9862,38.2544 L59.0472,38.7964 C58.5872,39.0614 57.8902,39.0894 57.4932,38.8604" id="Fill-72"></path>
                </g>
            </g>
        </g>
    </g>
</svg>