<?xml version="1.0" encoding="UTF-8"?>
<svg width="92px" height="52px" viewBox="0 0 92 52" version="1.1" xmlns="http://www.w3.org/2000/svg" xmlns:xlink="http://www.w3.org/1999/xlink">
    <!-- Generator: Sketch 49 (51002) - http://www.bohemiancoding.com/sketch -->
    <title>Group 10@3x</title>
    <desc>Created with Sketch.</desc>
    <defs></defs>
    <g id="Page-1" stroke="none" stroke-width="1" fill="none" fill-rule="evenodd">
        <g id="illustration" transform="translate(-165.000000, -105.000000)" fill="#00A3E0">
            <g id="illustration_exams">
                <g id="Group-10" transform="translate(165.000000, 105.000000)">
                    <path d="M2.1592,5.7013 C1.3422,5.7913 0.6112,5.3893 0.7252,4.9133 L1.5492,1.5093 C1.6402,1.1263 2.2522,0.8603 2.9152,0.9183 C3.5782,0.9713 4.0402,1.3283 3.9462,1.7103 L3.3602,4.1453 L19.2522,2.4073 C19.9072,2.3373 20.5482,2.5853 20.6742,2.9653 C20.8022,3.3453 20.3732,3.7103 19.7182,3.7823 L2.1592,5.7013 Z" id="Fill-44"></path>
                    <path d="M88.5059,51.7442 L16.8229,10.3582 C16.3829,10.1032 16.4379,9.6592 16.9459,9.3662 L17.7099,8.9252 C18.2179,8.6322 18.9869,8.5992 19.4279,8.8532 L91.1109,50.2402 C91.5519,50.4942 91.4959,50.9382 90.9869,51.2322 L90.2249,51.6732 C89.7159,51.9672 88.9459,51.9992 88.5059,51.7442" id="Fill-46"></path>
                    <path d="M68.1074,45.4776 L12.0504,13.1136 C11.6104,12.8596 11.6654,12.4146 12.1734,12.1216 L12.9374,11.6806 C13.4464,11.3866 14.2144,11.3556 14.6554,11.6096 L70.7114,43.9736 C71.1524,44.2276 71.0974,44.6716 70.5884,44.9656 L69.8254,45.4066 C69.3164,45.7006 68.5474,45.7316 68.1074,45.4776" id="Fill-48"></path>
                </g>
            </g>
        </g>
    </g>
</svg>