<?xml version="1.0" encoding="UTF-8"?>
<svg width="195px" height="147px" viewBox="0 0 195 147" version="1.1" xmlns="http://www.w3.org/2000/svg" xmlns:xlink="http://www.w3.org/1999/xlink">
    <!-- Generator: Sketch 49 (51002) - http://www.bohemiancoding.com/sketch -->
    <title>Group@3x</title>
    <desc>Created with Sketch.</desc>
    <defs>
        <path d="M179.9981,53.2245 C179.9951,53.9645 179.6281,54.7035 178.8951,55.1255 L91.7781,105.4185 C91.0961,105.8125 90.2551,105.8125 89.5721,105.4185 L2.4611,55.1265 C1.6641,54.6665 1.2991,53.8315 1.3651,53.0295 L1.35208181,53.0295 L1.3521,83.4535 C1.3491,84.2005 1.7171,84.9475 2.4551,85.3735 L89.5651,135.6655 C90.2481,136.0595 91.0901,136.0595 91.7721,135.6655 L178.8891,85.3725 C179.6701,84.9215 180.0361,84.1115 179.9871,83.3235 L179.9871,53.2125" id="path-1"></path>
        <filter x="-7.8%" y="-12.1%" width="115.7%" height="133.8%" filterUnits="objectBoundingBox" id="filter-2">
            <feOffset dx="0" dy="4" in="SourceAlpha" result="shadowOffsetOuter1"></feOffset>
            <feGaussianBlur stdDeviation="4" in="shadowOffsetOuter1" result="shadowBlurOuter1"></feGaussianBlur>
            <feColorMatrix values="0 0 0 0 0.0823529412   0 0 0 0 0.0901960784   0 0 0 0 0.274509804  0 0 0 0.2 0" type="matrix" in="shadowBlurOuter1"></feColorMatrix>
        </filter>
    </defs>
    <g id="Page-1" stroke="none" stroke-width="1" fill="none" fill-rule="evenodd">
        <g id="Home" transform="translate(-978.000000, -1651.000000)">
            <g id="labs" transform="translate(208.000000, 1637.000000)">
                <g id="illustration" transform="translate(687.000000, 0.000000)">
                    <g id="illustration_labs" transform="translate(0.000000, 13.000000)">
                        <g id="Group" transform="translate(90.000000, 1.000000)">
                            <g id="Fill-40">
                                <use fill="black" fill-opacity="1" filter="url(#filter-2)" xlink:href="#path-1"></use>
                                <use fill="#F4F4F7" fill-rule="evenodd" xlink:href="#path-1"></use>
                            </g>
                            <path d="M2.461,55.1268 L89.572,105.4188 C90.255,105.8128 91.096,105.8128 91.778,105.4188 L178.896,55.1258 C180.366,54.2768 180.366,52.1538 178.896,51.3048 L91.786,1.0078 C91.104,0.6128 90.262,0.6128 89.579,1.0078 L2.461,51.3058 C0.99,52.1548 0.99,54.2778 2.461,55.1268" id="Fill-42" fill="#FFFFFF"></path>
                            <path d="M178.6514,84.9608 L91.5344,135.2538 C91.0004,135.5618 90.3354,135.5618 89.8034,135.2538 L2.6924,84.9628 C2.1484,84.6488 1.8234,84.0858 1.8274,83.4548 L1.8273635,55.2358 C1.9534,55.3438 2.0754,55.4538 2.2224,55.5398 L89.3344,105.8308 C89.7484,106.0678 90.2134,106.1878 90.6744,106.1878 C91.1384,106.1878 91.6024,106.0678 92.0154,105.8308 L179.1324,55.5378 C179.2744,55.4558 179.3914,55.3488 179.5124,55.2468 L179.5124,83.3538 C179.5554,84.0248 179.2324,84.6268 178.6514,84.9608 M2.6984,51.7178 L89.8174,1.4208 C90.3514,1.1078 91.0124,1.1078 91.5474,1.4208 L178.6574,51.7178 C179.1994,52.0288 179.5214,52.5888 179.5224,53.2138 L179.5124,53.2138 L179.5124,53.2868 C179.4884,53.8828 179.1774,54.4138 178.6574,54.7138 L91.5404,105.0068 C91.0054,105.3148 90.3444,105.3148 89.8094,105.0068 L2.6984,54.7158 C2.1564,54.4008 1.8334,53.8428 1.8334,53.2158 C1.8334,52.5898 2.1564,52.0288 2.6984,51.7178 M180.4724,53.2158 C180.4724,52.2458 179.9714,51.3778 179.1324,50.8938 L92.0244,0.5988 C91.1984,0.1148 90.1724,0.1168 89.3414,0.5968 L2.2224,50.8938 C1.4394,51.3468 0.9684,52.1378 0.9064,53.0278 L0.8774,53.0278 L0.8774,83.4528 C0.8714,84.4258 1.3724,85.2988 2.2164,85.7868 L89.3294,136.0778 C89.7414,136.3148 90.2054,136.4348 90.6694,136.4348 C91.1314,136.4348 91.5954,136.3148 92.0094,136.0778 L179.1274,85.7848 C180.0144,85.2728 180.5244,84.3178 180.4634,83.3228 L180.4634,53.2868 C180.4634,53.2628 180.4724,53.2398 180.4724,53.2158" id="Fill-44" fill="#464465"></path>
                            <path d="M15.9737,79.0379 C17.1777,83.2589 15.3567,84.3069 12.2797,81.1779 C11.5287,80.4139 10.9287,79.3849 10.6347,78.3559 C9.4307,74.1369 11.2527,73.0879 14.3287,76.2179 C15.0807,76.9809 15.6797,78.0099 15.9737,79.0379" id="Fill-46" fill="#464465"></path>
                            <path d="M56.5977,104.7889 L19.3607,83.2899 C19.0907,83.1349 18.8717,82.5179 18.8717,81.9119 C18.8717,81.3059 19.0907,80.9409 19.3607,81.0979 L56.5977,102.5969 C56.8677,102.7529 57.0857,103.3689 57.0857,103.9749 C57.0857,104.5809 56.8677,104.9449 56.5977,104.7889" id="Fill-48" fill="#464465"></path>
                            <path d="M81.2237,115.035 L70.6057,108.904 C70.5287,108.86 70.4657,108.579 70.4657,108.276 C70.4657,107.973 70.5287,107.764 70.6057,107.808 L81.2237,113.939 C81.3007,113.983 81.3627,114.264 81.3627,114.567 C81.3627,114.87 81.3007,115.08 81.2237,115.035" id="Fill-50" fill="#464465"></path>
                            <path d="M81.2237,118.4588 L70.6057,112.3278 C70.5287,112.2838 70.4657,112.0028 70.4657,111.6998 C70.4657,111.3968 70.5287,111.1878 70.6057,111.2318 L81.2237,117.3618 C81.3007,117.4068 81.3627,117.6878 81.3627,117.9908 C81.3627,118.2938 81.3007,118.5028 81.2237,118.4588" id="Fill-52" fill="#464465"></path>
                            <path d="M81.2237,121.8827 L70.6057,115.7517 C70.5287,115.7067 70.4657,115.4267 70.4657,115.1227 C70.4657,114.8207 70.5287,114.6117 70.6057,114.6547 L81.2237,120.7857 C81.3007,120.8307 81.3627,121.1117 81.3627,121.4147 C81.3627,121.7177 81.3007,121.9267 81.2237,121.8827" id="Fill-54" fill="#464465"></path>
                            <path d="M63.8819,109.8172 L61.4249,108.3982 C61.1799,108.2562 60.9819,107.8782 60.9819,107.5512 L60.9819,104.8962 C60.9819,104.5702 61.1799,104.4202 61.4249,104.5612 L63.8819,105.9802 C64.1269,106.1212 64.3249,106.5012 64.3249,106.8272 L64.3249,109.4822 C64.3249,109.8082 64.1269,109.9582 63.8819,109.8172" id="Fill-56" fill="#464465"></path>
                        </g>
                    </g>
                </g>
            </g>
        </g>
    </g>
</svg>